<svg width="98" height="96" viewBox="0 0 98 96" fill="none" xmlns="http://www.w3.org/2000/svg">
<path d="M96.4268 26.3225H93.2803C91.1949 26.325 89.1955 27.1414 87.7209 28.5928C86.2463 30.0441 85.4167 32.0119 85.4142 34.0644V49.0312C84.3734 48.3166 83.1138 47.9778 81.8485 48.072C80.5831 48.1663 79.3897 48.6878 78.47 49.5483L66.8848 60.9506C65.2727 62.5288 63.9947 64.4059 63.1246 66.4734C62.2545 68.5409 61.8097 70.7577 61.8159 72.9955V80.5161H60.2427C59.8254 80.5161 59.4253 80.6792 59.1302 80.9696C58.8352 81.2599 58.6694 81.6538 58.6694 82.0644V94.4515C58.6694 94.8622 58.8352 95.256 59.1302 95.5464C59.4253 95.8368 59.8254 95.9999 60.2427 95.9999H85.4142C85.8314 95.9999 86.2316 95.8368 86.5266 95.5464C86.8217 95.256 86.9874 94.8622 86.9874 94.4515V82.0644C86.9874 81.6538 86.8217 81.2599 86.5266 80.9696C86.2316 80.6792 85.8314 80.5161 85.4142 80.5161H83.841V76.4237L97.6444 59.8188C97.8743 59.5422 97.9999 59.1959 98 58.8386V27.8709C98 27.4602 97.8342 27.0664 97.5392 26.776C97.2442 26.4856 96.844 26.3225 96.4268 26.3225ZM83.841 92.9032H61.8159V83.6128H83.841V92.9032ZM94.8535 58.2859L81.0501 74.8908C80.8202 75.1673 80.6946 75.5136 80.6945 75.8709V80.5161H64.9623V72.9955C64.9575 71.1646 65.3216 69.3508 66.0334 67.6592C66.7452 65.9676 67.7907 64.4316 69.1093 63.1401L80.6945 51.7377C81.1189 51.3405 81.6821 51.119 82.2678 51.119C82.8534 51.119 83.4166 51.3405 83.841 51.7377L86.3361 54.1935L78.009 62.3891L80.2336 64.5785L89.6729 55.2882C89.9678 54.9978 90.1335 54.6041 90.1335 54.1935C90.1335 53.7829 89.9678 53.3891 89.6729 53.0988L88.5606 52.0041V34.0644C88.5606 32.8325 89.0579 31.651 89.943 30.7798C90.8281 29.9087 92.0286 29.4193 93.2803 29.4193H94.8535V58.2859Z" fill="#C39B69"/>
<path d="M14.6192 80.5162H13.046C12.6287 80.5162 12.2286 80.6793 11.9335 80.9697C11.6385 81.2601 11.4728 81.6539 11.4728 82.0646V94.4517C11.4728 94.8623 11.6385 95.2562 11.9335 95.5465C12.2286 95.8369 12.6287 96.0001 13.046 96.0001H38.2175C38.6348 96.0001 39.0349 95.8369 39.33 95.5465C39.625 95.2562 39.7907 94.8623 39.7907 94.4517V82.0646C39.7907 81.6539 39.625 81.2601 39.33 80.9697C39.0349 80.6793 38.6348 80.5162 38.2175 80.5162H36.6443V72.9957C36.6505 70.7578 36.2056 68.541 35.3356 66.4735C34.4655 64.406 33.1874 62.5289 31.5754 60.9508L19.9902 49.5484C19.0705 48.6879 17.8771 48.1664 16.6117 48.0722C15.3463 47.9779 14.0868 48.3167 13.046 49.0313V34.0646C13.0435 32.012 12.2139 30.0443 10.7393 28.5929C9.26465 27.1415 7.26532 26.3251 5.17987 26.3226H2.03343C1.61618 26.3226 1.21603 26.4858 0.920991 26.7761C0.625955 27.0665 0.460205 27.4604 0.460205 27.871V58.8388C0.460272 59.1961 0.585888 59.5423 0.815753 59.8189L14.6192 76.4238V80.5162ZM36.6443 92.9033H14.6192V83.613H36.6443V92.9033ZM3.60665 58.286V29.4194H5.17987C6.4316 29.4194 7.63207 29.9088 8.51718 30.7799C9.40229 31.6511 9.89953 32.8326 9.89953 34.0646V52.0042L8.78727 53.0989C8.49233 53.3893 8.32665 53.783 8.32665 54.1936C8.32665 54.6042 8.49233 54.9979 8.78727 55.2883L18.2266 64.5786L20.4511 62.3892L12.1241 54.1936L14.6192 51.7379C15.0435 51.3406 15.6068 51.1191 16.1924 51.1191C16.7781 51.1191 17.3413 51.3406 17.7656 51.7379L29.3508 63.1402C30.6695 64.4317 31.715 65.9677 32.4268 67.6593C33.1386 69.351 33.5026 71.1647 33.4979 72.9957V80.5162H17.7656V75.871C17.7656 75.5137 17.64 75.1674 17.4101 74.8909L3.60665 58.286Z" fill="#C39B69"/>
<path d="M85.4143 24.7742V21.6774H74.4017C74.0815 21.6771 73.7687 21.773 73.5053 21.9523C73.2419 22.1316 73.0403 22.3857 72.9276 22.6808L69.0984 32.7329C68.6918 31.7198 68.0706 30.8036 67.276 30.0453C66.4815 29.2871 65.5318 28.7042 64.4904 28.3355C64.0261 27.0619 63.2303 25.9305 62.1825 25.0545L71.9066 15.4839H75.9749C76.3922 15.4838 76.7922 15.3206 77.0872 15.0302L80.2337 11.9334C80.5287 11.6431 80.6945 11.2493 80.6946 10.8387V4.64516C80.6945 4.33897 80.6022 4.03967 80.4294 3.7851C80.2565 3.53053 80.0108 3.33212 79.7234 3.21495C79.436 3.09778 79.1197 3.06712 78.8146 3.12684C78.5094 3.18656 78.2291 3.33397 78.0091 3.55045L75.3236 6.19355H74.4017V5.28619L77.0872 2.6431C77.3072 2.42655 77.4569 2.15069 77.5176 1.85037C77.5783 1.55006 77.5471 1.23878 77.4281 0.95589C77.309 0.673 77.1075 0.431199 76.8488 0.261056C76.5901 0.0909122 76.286 6.53796e-05 75.9749 0H69.6821C69.2648 8.76966e-05 68.8648 0.163278 68.5698 0.453677L65.4233 3.55045C65.1283 3.84076 64.9625 4.23454 64.9624 4.64516V8.64929L53.9498 19.488V6.19355C53.9495 6.02718 53.9218 5.86197 53.868 5.70426L52.2948 1.0591C52.1905 0.7509 51.9904 0.482793 51.7227 0.292722C51.4551 0.102652 51.1334 0.000246648 50.8034 0H47.657C47.3269 0.000246648 47.0053 0.102652 46.7376 0.292722C46.47 0.482793 46.2698 0.7509 46.1655 1.0591L44.5923 5.70426C44.5385 5.86197 44.5109 6.02718 44.5105 6.19355V19.488L33.498 8.64929V4.64516C33.4979 4.23454 33.3321 3.84076 33.037 3.55045L29.8906 0.453677C29.5956 0.163278 29.1955 8.76966e-05 28.7783 0H22.4854C22.1743 6.53796e-05 21.8702 0.0909122 21.6116 0.261056C21.3529 0.431199 21.1513 0.673 21.0323 0.95589C20.9132 1.23878 20.8821 1.55006 20.9427 1.85037C21.0034 2.15069 21.1532 2.42655 21.3731 2.6431L24.0586 5.28619V6.19355H23.1367L20.4512 3.55045C20.2312 3.33397 19.9509 3.18656 19.6458 3.12684C19.3407 3.06712 19.0244 3.09778 18.737 3.21495C18.4495 3.33212 18.2039 3.53053 18.031 3.7851C17.8581 4.03967 17.7658 4.33897 17.7657 4.64516V10.8387C17.7658 11.2493 17.9316 11.6431 18.2267 11.9334L21.3731 15.0302C21.6681 15.3206 22.0682 15.4838 22.4854 15.4839H26.5538L36.2826 25.0591C35.2334 25.933 34.4359 27.0628 33.9699 28.3355C32.7022 28.7825 31.5739 29.5452 30.6949 30.5493C29.8159 31.5533 29.2163 32.7644 28.9545 34.0645H25.6319C25.3728 34.0645 25.1177 34.1274 24.8893 34.2478C24.6609 34.3681 24.4662 34.5421 24.3226 34.7542C24.1789 34.9664 24.0907 35.2102 24.0658 35.464C24.0409 35.7178 24.08 35.9737 24.1798 36.209L32.0459 54.7897C32.1654 55.0717 32.3671 55.3126 32.6255 55.4821C32.8839 55.6516 33.1875 55.742 33.498 55.7419H35.9459C35.3797 56.6792 35.0777 57.7483 35.0712 58.8387C35.0712 60.4813 35.7342 62.0567 36.9143 63.2182C38.0945 64.3797 39.6951 65.0323 41.3641 65.0323C43.033 65.0323 44.6337 64.3797 45.8138 63.2182C46.994 62.0567 47.657 60.4813 47.657 58.8387C47.6504 57.7483 47.3485 56.6792 46.7822 55.7419H51.6781C51.1119 56.6792 50.8099 57.7483 50.8034 58.8387C50.8034 60.4813 51.4664 62.0567 52.6465 63.2182C53.8267 64.3797 55.4273 65.0323 57.0963 65.0323C58.7653 65.0323 60.3659 64.3797 61.546 63.2182C62.7262 62.0567 63.3892 60.4813 63.3892 58.8387C63.3826 57.7483 63.0807 56.6792 62.5145 55.7419H64.9624C65.2729 55.742 65.5765 55.6516 65.8349 55.4821C66.0933 55.3126 66.2949 55.0717 66.4145 54.7897L74.2806 36.209C74.3803 35.9737 74.4195 35.7178 74.3946 35.464C74.3696 35.2102 74.2814 34.9664 74.1378 34.7542C73.9941 34.5421 73.7994 34.3681 73.571 34.2478C73.3426 34.1274 73.0876 34.0645 72.8285 34.0645H71.9522L75.492 24.7742H85.4143ZM67.6479 10.385C67.9429 10.0947 68.1087 9.70095 68.1088 9.29032V5.28619L70.3334 3.09677H72.1772L71.7162 3.55045C71.4212 3.84076 71.2554 4.23454 71.2553 4.64516V7.74194C71.2553 8.15259 71.421 8.54643 71.7161 8.83681C72.0111 9.12719 72.4113 9.29032 72.8285 9.29032H75.9749C76.3922 9.29023 76.7922 9.12704 77.0872 8.83664L77.5482 8.38297V10.1977L75.3236 12.3871H71.2553C70.8381 12.3872 70.438 12.5504 70.143 12.8408L59.2673 23.5448C58.0813 23.1964 56.8269 23.138 55.6127 23.3745C55.4515 23.1541 55.2788 22.9422 55.0951 22.7396L67.6479 10.385ZM48.7912 3.09677H49.6691L50.8034 6.44439V20.2963C49.7668 20.0733 48.6935 20.0733 47.657 20.2963V6.44439L48.7912 3.09677ZM27.2051 12.3871H23.1367L20.9122 10.1977V8.38297L21.3731 8.83664C21.6681 9.12704 22.0682 9.29023 22.4854 9.29032H25.6319C26.0491 9.29032 26.4493 9.12719 26.7443 8.83681C27.0393 8.54643 27.2051 8.15259 27.2051 7.74194V4.64516C27.205 4.23454 27.0392 3.84076 26.7441 3.55045L26.2832 3.09677H28.127L30.3515 5.28619V9.29032C30.3516 9.70095 30.5174 10.0947 30.8125 10.385L43.3652 22.7396C43.1816 22.9422 43.0088 23.1541 42.8476 23.3745C41.6334 23.1387 40.3792 23.1971 39.193 23.5448L28.3173 12.8408C28.0224 12.5504 27.6223 12.3872 27.2051 12.3871ZM35.5919 31.0947C35.8799 31.0297 36.1435 30.8861 36.3525 30.6804C36.5614 30.4748 36.7073 30.2153 36.7734 29.9319C36.9121 29.2807 37.1939 28.6673 37.599 28.1347C38.0041 27.6021 38.5227 27.1631 39.1185 26.8487C39.7142 26.5343 40.3726 26.352 41.0476 26.3146C41.7225 26.2772 42.3976 26.3856 43.0254 26.6323C43.3931 26.7691 43.7994 26.7655 44.1646 26.6223C44.5297 26.479 44.8271 26.2064 44.9982 25.8581C45.377 25.0687 45.976 24.4016 46.7252 23.9343C47.4745 23.4671 48.3432 23.2191 49.2302 23.2191C50.1172 23.2191 50.9859 23.4671 51.7351 23.9343C52.4844 24.4016 53.0833 25.0687 53.4621 25.8581C53.6333 26.2064 53.9307 26.479 54.2958 26.6223C54.6609 26.7655 55.0673 26.7691 55.435 26.6323C56.0624 26.3862 56.7369 26.278 57.4113 26.3153C58.0856 26.3525 58.7436 26.5344 59.3391 26.8481C59.9346 27.1618 60.4533 27.5997 60.8588 28.1313C61.2644 28.6629 61.547 29.2753 61.6869 29.9257C61.753 30.2092 61.8989 30.4686 62.1079 30.6742C62.3168 30.8799 62.5804 31.0235 62.8684 31.0885C63.6449 31.2604 64.3643 31.6237 64.9589 32.1442C65.5536 32.6648 66.0041 33.3256 66.2682 34.0645H32.1922C32.4571 33.3267 32.908 32.6672 33.5026 32.1478C34.0973 31.6283 34.8161 31.266 35.5919 31.0947ZM44.5105 58.8387C44.5105 59.4512 44.326 60.0499 43.9802 60.5592C43.6345 61.0684 43.1431 61.4654 42.5682 61.6998C41.9932 61.9341 41.3606 61.9955 40.7502 61.876C40.1399 61.7565 39.5792 61.4616 39.1392 61.0285C38.6992 60.5954 38.3995 60.0436 38.2781 59.4429C38.1567 58.8421 38.219 58.2195 38.4571 57.6536C38.6953 57.0878 39.0986 56.6041 39.616 56.2638C40.1334 55.9236 40.7418 55.7419 41.3641 55.7419C42.1986 55.7419 42.9989 56.0682 43.5889 56.649C44.179 57.2297 44.5105 58.0174 44.5105 58.8387ZM60.2427 58.8387C60.2427 59.4512 60.0582 60.0499 59.7125 60.5592C59.3667 61.0684 58.8753 61.4654 58.3004 61.6998C57.7254 61.9341 57.0928 61.9955 56.4824 61.876C55.8721 61.7565 55.3114 61.4616 54.8714 61.0285C54.4314 60.5954 54.1317 60.0436 54.0103 59.4429C53.8889 58.8421 53.9512 58.2195 54.1894 57.6536C54.4275 57.0878 54.8308 56.6041 55.3482 56.2638C55.8656 55.9236 56.474 55.7419 57.0963 55.7419C57.9308 55.7419 58.7311 56.0682 59.3212 56.649C59.9112 57.2297 60.2427 58.0174 60.2427 58.8387ZM63.9131 52.6452H34.5473L27.9917 37.1613H70.4687L63.9131 52.6452Z" fill="#C39B69"/>
</svg>
