<svg width="522" height="517" viewBox="0 0 522 517" fill="none" xmlns="http://www.w3.org/2000/svg">
<mask id="mask0_313_781" style="mask-type:luminance" maskUnits="userSpaceOnUse" x="0" y="0" width="522" height="517">
<path d="M331.055 479.684C332.284 480.667 343.346 484.109 345.559 484.846C352.934 487.059 361.046 488.534 368.175 490.992C374.566 493.204 380.22 495.171 386.858 496.892C392.266 498.366 393.986 492.958 391.282 490.5C389.562 488.779 377.516 486.321 374.812 486.075C369.895 485.584 366.7 485.584 361.783 484.6C355.638 483.371 352.442 482.88 346.788 480.421C341.871 478.209 339.413 477.963 334.251 476.734C333.759 476.734 333.268 476.488 333.022 476.488C330.809 476.242 329.089 477.471 331.055 479.684ZM24.2651 431.748C24.2651 433.714 25.7401 435.189 27.7067 435.189C29.6733 435.189 31.1482 433.714 31.1482 431.748C30.6566 379.387 28.69 323.585 30.1649 271.47C37.2939 295.561 39.998 392.416 41.4729 409.624C43.1937 394.628 42.4562 268.52 29.9191 262.128C29.6733 262.128 29.4274 261.883 29.4274 261.883C19.3486 261.883 24.2651 416.752 24.2651 431.748ZM59.664 362.425C61.8764 314.243 61.8764 264.587 59.664 216.405C57.4515 264.587 57.4515 313.998 59.664 362.425ZM160.944 281.549C160.944 283.515 162.665 284.99 164.631 284.99C166.598 284.99 168.073 283.269 168.073 281.303C167.827 270.241 165.86 223.78 167.09 203.376C171.269 220.584 177.168 263.849 177.906 271.716C179.135 257.704 175.202 206.572 169.302 194.772C168.073 192.314 167.09 191.331 166.106 191.331C157.502 191.085 160.944 281.549 160.944 281.549ZM118.662 314.489C120.137 274.911 113.746 238.283 115.221 196.493C115.466 192.56 115.712 184.693 116.204 178.302C122.349 208.293 125.791 242.708 126.528 273.191C127.02 293.348 127.02 293.348 129.724 310.556C128.741 294.823 128.249 290.89 128.249 273.191C128.249 255 122.841 175.106 117.187 168.961C116.695 168.223 116.204 167.977 115.712 167.977C106.125 167.731 118.17 301.46 118.662 314.489ZM341.871 159.619C326.876 160.111 332.53 159.865 317.289 161.094C372.354 165.765 431.106 162.569 486.417 165.273C488.629 165.519 490.596 163.798 490.596 161.586C490.842 159.373 489.121 157.407 486.908 157.407C477.321 157.161 467.488 157.161 457.655 157.161C419.552 157.161 378.745 158.39 341.871 159.619ZM414.39 143.641C442.906 146.591 453.476 144.87 480.517 142.411C474.863 141.92 467.734 141.674 460.359 141.674C444.626 141.674 426.927 142.903 414.39 143.641ZM28.1983 227.959C30.6565 192.314 30.6566 152.982 28.69 117.337C25.2484 142.166 26.7233 201.41 28.1983 227.959ZM380.22 118.075C413.898 120.533 451.755 120.287 485.925 121.025C488.138 121.025 489.858 119.304 489.858 117.092C489.858 114.879 488.138 113.158 485.925 113.158C453.476 113.896 411.686 112.912 380.22 118.075ZM195.851 136.266C194.868 171.419 196.589 206.326 198.801 241.479C201.014 208.293 198.555 169.944 198.309 136.266C198.064 121.271 198.555 117.583 196.097 102.588C195.605 105.046 196.097 131.595 195.851 136.266ZM428.402 100.621C390.053 102.588 357.604 111.929 319.501 113.65C319.255 113.65 291.723 114.879 301.556 121.271C313.356 128.891 443.152 133.316 467.242 132.578L487.154 131.841L467.242 130.858C443.397 129.874 354.409 125.45 318.272 119.796H319.501C357.604 118.812 390.299 109.717 428.156 108.242C446.839 107.504 464.047 105.538 482.483 104.8C484.696 104.8 486.417 103.079 486.417 100.867C486.417 98.6546 484.696 96.9338 482.483 96.9338C464.292 97.4255 447.085 99.6379 428.402 100.621ZM145.457 293.594C145.457 295.561 146.932 297.036 148.899 297.036C150.865 297.036 152.34 295.561 152.34 293.594C151.848 220.83 152.094 146.345 148.899 73.8263C145.703 146.345 146.194 221.076 145.457 293.594ZM335.972 63.7474C353.917 64.9765 368.912 64.9765 386.858 66.4515C419.798 69.4014 448.805 68.1723 481.746 66.6973C449.789 65.4682 419.306 65.714 387.349 63.7474C379.974 63.2558 373.337 63.01 366.946 63.01C356.867 63.01 347.28 63.5016 335.972 63.7474ZM291.723 51.9478C278.448 52.6853 285.577 51.702 272.794 54.6519L282.136 54.4061C348.509 53.6686 417.094 55.6352 483.958 56.3726C486.171 56.3726 487.892 54.6519 487.892 52.4394C487.892 50.227 486.171 48.5063 483.958 48.5063C421.273 48.7521 353.671 48.0146 291.723 51.9478ZM210.355 136.02C213.551 175.352 210.355 208.047 213.305 247.625C213.551 249.591 215.517 250.82 217.484 250.575C219.45 250.329 220.68 248.362 220.434 246.396C216.992 207.064 219.45 174.615 215.517 135.283C211.584 97.9171 210.847 69.4014 209.126 32.2818C206.668 73.3346 207.159 95.213 210.355 136.02ZM106.125 32.036C105.879 89.3132 102.192 113.158 112.762 170.19C110.058 138.97 108.583 123.729 108.583 92.2632C108.583 71.1222 108.092 53.1769 106.617 32.036C106.617 31.5443 106.617 31.7902 106.371 31.2985C106.125 31.5443 106.125 31.7901 106.125 32.036ZM141.278 120.779C141.524 123.237 141.278 122.008 142.015 124.22C142.015 122.991 142.261 121.762 142.261 120.533C138.574 91.5257 139.557 60.0601 137.345 29.8235C135.624 61.535 134.886 89.5591 141.278 120.779ZM45.8977 503.529C46.6352 504.02 47.3727 504.266 48.356 504.758C47.3727 504.758 46.3894 504.758 45.1603 504.758C45.4061 504.512 45.6519 504.02 45.8977 503.529ZM144.72 502.546C140.541 502.3 137.099 502.054 133.657 501.808C133.903 501.562 134.149 501.316 134.395 501.071C137.345 497.383 139.557 493.204 142.753 490.008C147.915 484.846 150.128 483.125 154.553 477.225C155.536 475.751 156.519 474.521 157.502 473.538C158.977 473.784 160.207 474.03 161.436 474.276C168.073 475.505 173.973 476.488 180.364 477.225C179.135 478.209 178.152 479.192 177.168 480.175C174.219 483.617 172.744 487.304 169.302 489.763C164.386 493.204 162.173 493.942 157.502 498.612C154.553 501.562 154.307 501.071 155.536 502.3C152.586 502.546 149.636 502.791 146.932 502.791C145.949 502.546 145.211 502.546 144.72 502.546ZM122.349 492.221C126.037 486.321 133.166 477.717 139.066 471.817C139.311 471.817 139.311 472.063 139.557 472.063C140.54 472.555 141.032 473.047 141.77 473.292C139.557 475.751 137.836 478.209 135.132 482.388C132.674 486.321 130.953 488.042 128.249 491.238C125.299 494.925 123.333 498.858 120.383 502.3C120.629 502.546 120.874 502.546 121.12 502.546C119.154 502.791 117.433 503.037 115.712 503.037C117.679 499.596 119.891 495.908 122.349 492.221ZM117.433 474.03C120.629 471.326 124.316 469.605 128.003 469.113C126.037 472.309 124.316 475.259 122.841 477.717C119.891 483.125 118.662 485.092 114.729 490.008C111.533 494.187 108.829 498.858 105.879 503.037C97.7669 502.791 92.1129 502.791 83.509 503.775C83.0173 503.775 82.2799 503.775 81.7882 503.775C82.5257 502.546 83.0173 501.316 83.509 499.841C84.9839 496.154 86.2131 493.696 88.1797 490.254C90.3922 486.321 92.1129 481.405 94.817 477.963C97.0294 475.259 99.2419 472.801 101.7 469.851C101.7 469.851 101.7 469.851 101.7 469.605C103.667 470.834 105.879 472.063 108.337 473.292C110.796 474.521 112.271 475.505 113.746 475.505C114.729 475.996 115.958 475.505 117.433 474.03ZM64.8263 490.008C67.0387 484.846 69.7428 480.667 71.7094 475.505C72.9385 472.309 74.4135 469.605 76.1342 466.655C76.8717 466.655 77.6092 466.409 78.3467 466.163C84.0007 464.443 86.9505 463.214 90.8837 464.443C90.1463 465.672 89.4088 467.147 88.6713 468.868C86.4589 473.784 85.2298 476.242 82.2799 480.913C80.0674 484.354 78.3467 487.55 76.3801 491.238C73.4302 496.154 71.7094 499.104 69.497 504.512C65.8096 504.512 62.1222 504.266 58.189 504.512C60.4014 499.596 62.6139 494.679 64.8263 490.008ZM63.5972 464.688C63.843 464.197 63.843 463.705 64.0888 462.968C64.5805 463.213 65.0721 463.459 65.3179 463.705C64.8263 464.443 64.3346 465.426 63.843 466.163C63.1055 467.147 62.6139 468.13 61.8764 469.113C62.6139 467.884 63.1055 466.409 63.5972 464.688ZM26.9692 504.512C28.9358 499.35 30.165 494.433 31.6399 489.025C36.0648 472.801 38.2771 470.097 45.4061 458.789C47.3727 459.034 49.3393 459.28 51.0601 459.526C47.6185 464.689 44.6686 471.326 42.2104 476.242C38.523 483.617 34.0981 492.958 31.3941 500.825C29.9191 504.512 29.6733 503.529 32.6232 505.004C30.9024 504.758 28.9358 504.758 26.9692 504.512ZM145.211 465.672C148.407 462.476 151.111 459.28 154.307 456.085C157.994 452.397 161.19 448.218 165.123 444.777C168.565 441.581 170.04 440.106 172.989 436.419C175.448 433.469 177.66 431.748 180.118 429.535C180.61 429.781 180.856 429.781 181.102 430.027C182.822 430.765 184.052 431.748 185.035 432.24C184.789 432.485 184.297 432.731 184.052 432.977C178.643 437.402 172.498 442.073 167.581 447.235C164.631 450.431 162.419 452.889 159.223 456.085C155.782 459.526 152.094 462.968 148.653 466.409C147.669 465.918 146.44 465.672 145.211 465.672ZM172.006 468.376C169.302 467.638 166.352 465.918 164.386 465.426C165.123 464.688 165.861 463.705 166.844 462.722C171.269 457.805 177.168 455.593 181.593 451.168C185.772 446.989 187.247 445.514 192.164 442.073C195.36 439.86 197.572 438.139 200.522 435.681C205.684 431.502 211.092 429.29 216.255 424.865C219.696 421.915 223.384 419.702 227.071 417.244C229.283 416.998 232.233 416.261 234.446 416.507C237.887 416.998 243.541 420.194 246.983 421.669C254.358 425.356 261.732 428.798 268.861 432.485C268.861 432.485 269.107 432.485 269.107 432.731C262.716 434.698 256.078 435.927 249.687 437.156C239.117 439.368 238.625 439.614 229.529 445.514C225.596 447.972 222.4 449.447 218.467 451.66C213.796 454.364 208.88 457.314 204.455 460.264C199.539 463.459 194.376 466.409 189.706 469.605C189.706 469.605 189.46 469.605 189.46 469.359C185.772 467.884 182.822 468.13 179.873 468.376C178.643 468.376 177.414 468.622 176.185 468.622C174.71 468.867 173.481 468.622 172.006 468.376ZM117.187 460.018C113.746 458.297 111.779 457.56 109.321 456.822C109.812 455.839 110.55 455.101 111.041 454.364C113.746 451.168 115.466 449.447 117.925 445.76C119.645 443.056 121.366 440.598 123.333 438.139C128.495 431.01 134.641 421.915 140.54 415.523C140.786 415.278 141.032 415.032 141.278 414.786C141.278 414.786 141.278 414.786 141.524 414.786C145.703 416.261 150.128 418.719 154.307 419.702C161.436 421.423 163.156 421.423 169.794 424.865C161.681 431.502 152.832 438.631 145.457 446.006C141.032 450.431 135.87 457.314 131.199 464.197C126.528 462.968 121.858 462.23 117.187 460.018ZM82.0341 456.085C84.7382 451.168 88.1797 446.252 91.6213 442.318C95.0628 438.631 97.7669 435.435 100.963 431.502C107.846 422.652 112.762 414.54 120.629 406.428C123.087 407.165 125.545 408.149 127.758 409.132C129.97 410.115 131.937 410.853 133.657 411.59C131.445 414.294 129.233 416.752 127.02 419.457C123.333 423.881 119.399 426.586 115.712 431.01C113.008 434.206 110.058 438.139 107.6 441.335C105.142 444.777 103.175 448.71 100.717 451.66C99.4876 453.135 98.5044 454.118 97.7669 455.347C94.3253 455.593 91.8671 456.33 87.4422 456.33H86.4589C84.4923 456.33 83.2632 456.085 82.0341 456.085ZM190.443 422.161C190.197 421.915 189.46 421.669 188.722 421.177C191.918 418.227 195.114 415.523 198.801 413.065C203.472 409.869 207.897 406.428 212.567 402.986C214.534 404.707 216.255 406.182 217.73 408.149C217.976 408.64 218.467 409.132 218.959 409.869C208.88 414.786 200.276 420.44 191.426 427.323C191.672 425.602 191.918 423.882 190.443 422.161ZM66.7929 455.839C68.7595 451.168 70.972 447.481 74.6593 441.581C77.8551 436.418 80.3133 431.256 83.2632 426.094C87.1964 419.211 90.8838 412.328 95.5545 405.936C97.0294 403.724 98.5044 401.757 99.9793 399.791C101.7 400.282 103.667 401.02 105.387 401.511C105.387 401.511 105.387 401.511 105.633 401.511C99.2418 409.378 93.0962 417.736 87.688 425.356C83.509 431.748 81.2966 437.893 77.3633 444.039C74.6593 448.218 72.2011 452.151 69.497 456.33C69.0053 456.822 68.022 456.33 66.7929 455.839ZM50.0768 451.414C56.7141 440.843 62.8597 430.519 69.7428 420.194C75.6426 411.344 81.2966 403.478 87.4422 395.612C89.6546 396.595 92.1129 397.332 94.3254 398.316C93.8337 399.053 93.0962 399.791 92.6045 400.528C89.4088 404.953 88.1797 407.165 84.0007 411.099C81.2966 413.803 79.33 416.015 76.8717 418.473C73.1844 422.407 71.9552 424.127 69.0053 428.798C67.2845 431.502 66.0554 434.206 64.3346 437.156C60.6473 443.056 60.4014 447.481 56.714 452.643C54.7474 451.905 52.5351 451.66 50.0768 451.414ZM169.056 411.099C162.911 405.445 162.419 407.657 155.536 406.674C153.569 406.428 151.603 405.69 149.882 405.199C151.111 403.97 152.094 402.495 153.323 401.757C157.257 398.562 161.681 396.103 165.615 392.662C168.81 389.712 172.498 387.008 175.939 384.058C176.677 384.304 177.168 384.795 178.152 385.287C182.577 387.991 184.789 390.941 190.197 390.941C199.539 391.187 200.768 392.17 206.913 397.824C202.488 400.528 198.064 403.478 193.639 406.92C188.968 410.853 184.052 414.294 179.135 417.982C174.219 416.261 172.498 414.54 169.056 411.099ZM248.949 416.507C245.262 414.54 242.066 413.311 238.379 411.59C237.887 411.344 237.396 411.098 236.904 410.853C237.396 410.607 237.642 410.607 238.133 410.361C243.05 407.903 247.966 406.674 252.637 404.461C257.799 402.003 262.224 400.036 267.632 398.07C273.04 396.103 277.957 394.137 283.119 391.924C285.577 390.941 287.544 390.449 290.002 389.958C296.394 388.974 301.31 388.728 307.456 387.253C316.551 385.041 325.401 383.074 334.742 381.354H334.988C336.709 383.074 338.43 384.549 341.134 386.024C349.738 391.187 349 391.187 355.146 399.053C358.342 403.232 360.8 407.165 364.487 411.099C368.666 415.769 371.616 421.177 376.041 425.356C379.974 429.044 383.908 432.977 387.841 436.664C395.215 443.547 406.032 450.922 411.686 458.789C414.636 462.968 416.356 465.426 419.798 469.113C422.748 472.309 425.944 474.276 428.648 477.963C433.073 483.617 437.497 487.304 441.185 493.45C443.151 496.646 445.118 499.841 447.085 502.791C442.906 503.037 438.727 503.037 435.285 502.791C427.419 502.3 423.24 501.316 414.882 502.054C406.278 503.037 401.361 503.529 392.757 503.037C386.12 502.791 380.466 502.791 373.829 502.791C368.666 502.791 365.225 502.546 360.062 502.054C355.883 501.808 351.95 502.054 348.017 502.3C344.576 502.546 341.38 502.791 337.692 502.546C327.614 502.054 319.01 502.791 308.931 502.791C293.444 503.037 276.482 505.987 260.995 505.004C251.408 504.266 245.508 500.825 235.675 501.808C228.546 502.546 225.104 505.496 218.221 503.775C214.534 502.791 211.584 502.3 208.88 501.808C208.88 501.808 209.126 501.808 209.126 501.562C222.155 494.679 231.742 487.55 246.737 484.354C252.391 483.125 257.799 481.896 263.453 480.667C271.32 478.946 279.432 478.209 287.052 475.996C293.935 474.276 295.41 473.538 302.785 473.292C305.489 473.292 307.947 473.538 310.406 473.538C312.864 473.784 315.076 474.03 317.78 473.784C323.68 473.538 327.122 472.063 332.776 473.538C332.776 470.342 332.776 467.884 333.268 464.934C332.038 464.934 330.809 464.688 329.334 464.688C321.468 463.705 318.764 462.968 309.914 463.459C301.556 464.197 293.69 464.197 285.332 464.443C276.974 464.443 271.565 465.672 263.699 467.638C258.537 468.868 252.883 471.326 247.966 473.047C245.508 474.03 243.05 474.767 240.591 475.505C232.971 478.701 231.742 482.634 222.155 484.354C217.484 485.338 216.009 485.829 211.83 487.55C204.701 490.254 198.064 495.417 191.918 500.333C188.968 500.579 185.527 501.071 181.593 501.562C175.448 502.3 172.252 501.808 168.073 501.316C170.531 497.383 173.235 493.45 176.677 491.729C181.348 489.517 183.806 488.533 187.739 485.092C190.689 482.634 193.639 480.421 196.589 477.963C203.472 478.455 210.355 478.7 217.484 478.946C219.205 478.946 224.613 479.93 225.596 478.455C226.088 476.98 223.138 476.488 222.155 476.488C215.763 475.259 209.617 474.03 203.226 473.047C202.98 473.047 202.98 473.047 202.734 473.047C205.93 470.588 209.126 468.376 212.567 466.163C216.992 463.213 220.925 461.247 225.35 458.543C230.267 455.347 232.479 454.364 238.133 452.397C243.05 450.676 246 448.956 250.424 446.497C255.833 443.302 260.012 441.581 265.911 439.123C271.32 436.91 273.286 436.91 275.99 436.91C276.482 436.91 276.974 436.91 277.465 436.91C280.907 439.368 284.102 442.072 288.036 445.268C288.773 445.76 294.181 450.431 294.181 448.464C294.181 448.218 294.673 440.106 294.427 439.368C293.69 437.156 291.723 435.681 289.265 434.698C291.231 433.96 292.952 433.469 294.673 433.223C297.131 432.977 299.098 433.223 300.819 433.223C304.014 433.469 306.718 433.469 311.881 431.748C319.01 429.29 319.255 429.29 326.876 430.027C329.334 430.273 332.038 430.273 334.742 430.027C336.709 430.027 338.676 430.027 340.642 430.027C345.313 430.273 349.738 431.01 354.163 430.765C359.817 430.273 360.8 430.519 366.454 431.256C366.7 427.815 366.946 425.111 367.437 421.669C367.683 419.948 367.929 419.948 367.191 419.948C366.946 419.948 366.946 419.948 366.7 419.948C363.504 419.702 360.308 419.457 357.113 419.211C349.492 418.473 343.346 418.965 335.726 419.457C330.072 419.702 326.876 420.194 321.468 421.177C317.78 421.915 315.568 421.669 312.864 421.669C311.389 421.669 309.914 421.669 308.193 421.669C300.081 421.915 296.885 425.111 290.248 426.34C284.594 427.323 281.644 427.323 276.482 429.29C266.895 425.848 258.291 421.177 248.949 416.507ZM226.334 405.199C220.925 402.74 218.467 402.003 215.763 400.528C218.959 398.316 221.909 396.103 225.104 393.891C231.742 389.712 237.887 388.728 244.279 385.287C251.162 381.6 257.553 379.387 264.682 376.191C278.94 369.8 294.181 365.867 309.177 362.179C313.356 361.196 317.781 360.458 322.205 359.721C323.926 363.163 325.401 366.113 327.122 369.308C326.139 369.554 324.909 369.8 323.926 369.8C318.026 370.537 312.127 371.767 306.473 373.487C298.606 375.454 289.265 377.912 281.89 380.616C275.744 382.829 268.616 385.779 262.716 388.483C257.062 390.941 250.424 393.399 245.262 396.349C238.871 399.791 233.954 402.986 227.317 405.936C227.071 405.69 226.825 405.445 226.334 405.199ZM239.608 341.038C240.346 340.793 240.837 340.301 241.575 340.055C241.575 341.284 241.575 342.513 241.575 343.742C240.837 342.759 240.346 342.022 239.608 341.038ZM128.495 397.824C128.249 397.824 128.249 397.578 128.003 397.578C129.478 395.612 130.953 393.891 132.674 391.678C137.591 385.041 140.786 381.845 146.686 375.946C153.569 369.308 158.732 361.933 165.123 354.805C170.531 348.905 176.431 344.726 182.085 339.072C188.476 332.68 189.951 330.714 197.818 325.797C200.522 324.322 202.98 322.601 205.438 321.126C207.897 323.093 210.601 324.814 214.78 327.764C217.484 329.485 220.188 331.205 223.138 332.68C223.384 332.68 223.384 332.926 223.629 332.926C217.484 336.368 211.83 340.055 207.651 343.988C200.768 350.626 196.097 355.05 187.985 360.213C181.839 364.146 176.185 368.079 170.531 372.258C169.794 372.504 169.302 372.75 168.81 373.487V373.733C166.106 375.7 163.648 377.912 160.944 379.879C154.307 385.533 149.636 392.662 143.982 399.299C142.753 400.528 141.77 402.003 140.54 403.232C136.116 402.249 132.92 400.282 128.495 397.824ZM280.661 320.143C281.398 319.897 282.136 319.406 283.119 319.16C283.365 318.914 283.611 318.914 284.103 318.914C287.298 322.356 290.494 325.551 293.444 329.239C296.148 332.68 299.589 338.088 302.785 340.547C305.735 343.005 309.668 345.709 313.11 348.659C312.127 348.905 311.143 349.151 310.16 349.642C306.227 350.871 302.293 352.1 298.114 353.33C294.181 354.559 290.986 356.034 287.052 357.509C280.415 359.967 274.515 363.408 267.878 366.112C262.961 368.079 258.045 369.308 253.374 372.012C248.458 374.716 245.016 376.191 239.854 378.404C233.954 381.108 230.758 383.812 225.596 387.008C219.942 390.203 214.534 393.153 209.372 396.103C209.126 395.857 208.634 395.612 208.388 395.366C199.784 388.237 191.672 383.074 182.331 377.666C183.806 376.191 185.527 374.716 187.247 373.241C189.706 371.275 192.41 368.817 194.622 367.096C201.505 361.933 209.617 358 217.238 354.313C224.367 350.626 230.267 346.446 237.15 342.759C238.625 344.972 240.346 346.938 241.821 349.151C241.821 355.05 242.066 359.721 242.066 362.917C242.312 364.883 244.033 366.358 246 366.112C247.966 365.867 249.441 364.146 249.195 362.179C249.195 360.704 249.195 359.229 248.949 357.754C249.933 358.738 250.916 359.721 251.899 360.704C253.374 361.934 256.57 365.621 258.291 364.392C258.783 363.9 258.782 363.163 258.537 362.425C257.553 359.721 251.162 353.821 248.704 351.363C248.704 346.938 248.458 342.022 248.212 337.105C251.899 335.139 255.587 332.926 259.028 330.468C259.274 330.222 259.52 330.222 259.766 329.976C259.766 333.172 259.766 336.368 259.52 339.809C259.52 341.776 260.995 343.251 262.961 343.251C264.928 343.251 266.403 341.776 266.403 339.809C266.403 335.139 266.403 330.714 266.157 326.289C271.319 323.585 275.744 322.11 280.661 320.143C280.661 320.389 280.661 320.635 280.661 320.635C280.661 320.635 280.661 320.389 280.661 320.143ZM106.371 392.416C105.879 392.416 105.633 392.17 105.387 392.17C105.879 391.433 106.371 390.449 106.862 389.712C114.975 376.929 119.891 376.683 130.953 368.817C136.607 364.883 137.591 362.917 142.015 358C145.457 354.067 148.653 350.134 152.34 346.446C159.223 339.809 165.369 328.255 172.989 323.339C180.118 318.668 186.756 314.981 193.393 310.064C195.36 311.785 197.326 313.26 199.047 315.227C199.539 315.718 200.03 316.21 200.522 316.702C197.818 318.668 195.114 320.635 192.41 322.847C184.789 328.993 176.677 333.664 169.548 340.055C163.402 345.463 157.994 349.642 151.357 354.313C143.736 359.721 136.361 367.342 129.97 374.225C125.545 378.895 121.12 383.812 116.941 388.728C115.712 389.958 114.483 391.432 113.5 392.907C111.041 392.907 108.829 392.662 106.371 392.416ZM225.596 329.976C220.925 328.501 215.026 322.601 210.355 318.422C210.601 318.422 210.846 318.177 210.846 318.177C220.188 312.523 229.775 308.098 239.116 302.198C239.854 301.706 240.591 301.215 241.083 300.969C241.083 309.573 241.329 317.685 241.329 324.814C237.15 326.535 232.725 328.501 228.3 330.96C227.563 330.468 226.579 330.222 225.596 329.976ZM92.8504 388.483C93.0962 388.237 93.342 387.991 93.342 387.745C99.9793 378.895 106.371 373.241 113.991 365.375C123.579 355.296 132.428 345.709 142.261 335.876C151.603 326.535 161.19 316.947 171.514 308.835C174.71 306.377 177.66 303.181 180.856 300.231C181.102 300.477 181.593 300.723 182.085 301.215C183.314 302.198 184.543 303.181 185.772 304.165C184.543 304.902 183.314 305.885 181.839 307.114C177.906 311.048 174.956 313.998 170.285 317.439C164.386 322.11 158.486 325.551 152.586 329.976C140.049 338.826 125.299 353.821 117.187 366.85C113.254 373.241 110.304 381.599 105.387 386.762C103.913 388.483 102.438 389.712 101.208 391.187C98.2585 390.449 95.5545 389.466 92.8504 388.483ZM265.911 299.002C269.107 302.444 272.303 305.885 275.253 309.327C275.499 309.819 275.99 310.064 276.236 310.31C273.04 311.785 269.845 313.26 266.403 314.735C266.403 309.327 266.157 304.165 265.911 299.002ZM247.229 297.281C249.441 296.052 251.899 295.069 255.833 293.84C257.062 293.348 258.291 293.102 259.766 292.611C260.012 292.611 260.012 292.611 260.257 292.365C260.257 300.477 260.257 308.589 260.257 317.193C257.308 318.422 254.358 319.652 251.162 320.881C250.179 321.126 249.195 321.618 248.212 322.11C247.72 314.243 247.475 305.885 247.229 297.281ZM275.499 300.969C272.057 297.281 268.861 293.594 265.666 290.153C269.599 288.432 273.04 286.465 277.219 284.253C277.465 284.007 277.957 284.007 278.203 283.761C278.94 290.89 279.432 298.019 279.923 305.639C278.449 304.165 276.974 302.444 275.499 300.969ZM246.737 278.107C248.704 279.828 250.67 281.549 252.391 283.515C250.179 285.236 248.704 287.203 246.983 288.923C246.983 285.482 246.983 281.794 246.737 278.107ZM196.835 307.606L197.08 307.36C203.718 301.952 210.846 298.265 217.484 292.857C223.875 287.694 227.563 286.219 234.446 282.04C236.658 280.811 238.871 279.336 241.083 278.107C241.083 283.515 241.083 288.678 241.083 293.84C236.167 296.544 227.563 300.477 224.859 301.461C217.975 304.165 215.763 305.885 209.863 310.064C208.142 311.294 206.422 312.523 204.701 313.752C201.997 311.785 199.539 309.819 196.835 307.606ZM250.424 271.961C253.62 269.749 256.078 268.274 259.52 266.307C259.766 270.486 259.766 274.665 260.012 278.845C259.028 279.336 258.045 279.828 257.062 280.565C254.603 277.615 252.637 274.666 250.424 271.961ZM280.907 306.869C280.907 298.511 280.661 290.644 280.415 282.778C285.086 280.565 289.756 278.107 294.673 276.386C295.902 275.895 296.885 275.649 298.114 275.403C307.21 273.191 308.439 274.174 317.043 268.52C321.222 265.816 325.155 265.324 329.826 263.358C329.826 263.358 330.072 263.358 330.318 263.112C331.055 264.833 332.284 266.553 335.48 269.995C341.38 276.632 341.38 281.794 344.821 287.448C342.363 287.94 339.905 288.678 337.447 289.169C332.53 290.153 330.072 291.136 325.401 292.857C321.714 294.332 318.272 294.823 314.585 296.052C309.177 297.773 303.768 299.494 298.606 301.215C292.952 303.181 287.052 304.902 281.644 307.606C281.644 307.36 281.398 307.114 280.907 306.869ZM185.035 296.544C186.756 295.069 188.231 293.84 189.951 292.857C198.555 287.203 204.947 281.303 213.059 275.649C217.975 272.207 224.121 267.291 229.283 264.587C230.267 264.095 231.004 263.603 231.988 263.112C233.954 265.57 237.396 269.257 238.625 270.487C238.625 270.487 238.625 270.487 238.871 270.732C235.921 272.699 233.463 274.911 230.021 276.632C225.842 278.845 223.138 280.074 218.959 282.778C216.009 284.744 213.059 286.219 209.863 288.186C204.947 291.136 203.963 294.086 200.276 297.281C197.326 299.986 193.885 300.723 190.197 302.198C188.722 299.986 187.001 298.265 185.035 296.544ZM263.945 264.095C267.878 262.128 271.32 260.653 275.499 259.424C275.99 263.849 276.728 268.274 277.219 272.945C272.794 274.174 268.861 275.157 264.928 276.632C264.436 272.453 264.191 268.274 263.945 264.095ZM239.116 258.933C239.608 258.687 240.346 258.195 240.837 257.949C240.837 258.933 240.837 259.916 240.837 260.899C240.346 260.162 239.854 259.424 239.116 258.933ZM340.151 260.408C344.084 259.67 348.017 259.179 350.967 258.687C357.358 257.949 359.817 256.966 365.716 255.491C372.845 253.525 377.762 254.262 384.399 252.541C384.399 252.787 384.399 253.033 384.645 253.279C385.382 256.966 386.612 262.866 387.841 266.307C389.561 271.47 392.02 276.141 393.986 280.811C389.807 280.811 385.628 281.057 380.958 281.549C377.024 282.04 373.091 282.286 369.158 283.024C364.733 283.761 360.554 284.007 356.375 284.99C355.883 284.99 355.392 285.236 354.9 285.236C349.984 276.878 345.313 268.52 340.151 260.408ZM246.245 255C250.67 252.787 254.603 250.575 258.537 248.362C258.782 252.295 259.028 256.229 259.274 260.162C257.553 261.145 255.833 261.883 253.866 262.866C251.408 264.095 248.949 265.078 246.491 266.307C246.491 262.374 246.491 258.687 246.245 255ZM278.448 258.687C279.432 258.441 280.169 258.195 281.153 257.949C292.461 255.245 301.556 249.1 313.356 246.641C316.06 246.15 318.764 245.166 321.468 244.429C323.434 247.871 325.647 251.066 327.122 254.754C327.122 255 327.368 254.999 327.368 255.245C322.451 256.474 317.535 257.949 312.372 259.179C304.506 261.145 300.573 264.833 293.69 267.291C289.265 269.012 284.348 271.224 279.923 272.453C279.432 267.782 278.94 263.112 278.448 258.687ZM262.47 245.904C263.207 245.412 263.945 244.921 264.682 244.429C267.878 242.462 270.09 240.987 272.549 239.758C273.286 243.937 273.778 247.871 274.515 252.05C270.828 254.016 267.141 255.983 263.453 257.704C263.207 254.016 262.716 249.837 262.47 245.904ZM329.826 244.429C329.089 243.692 328.351 242.954 327.859 242.217C329.089 241.725 330.563 241.479 331.793 241.233C338.922 239.758 344.084 238.038 350.721 235.825C358.342 233.367 365.471 232.629 373.091 230.663C374.32 230.171 375.795 229.925 377.024 229.679C377.762 233.121 379.483 236.808 380.466 238.775C380.712 239.758 380.958 240.25 381.449 241.233C378.991 241.479 376.287 242.217 371.371 243.937C365.717 245.904 361.046 245.904 355.638 247.379C350.229 249.1 345.559 250.82 339.905 252.05C338.43 252.295 337.201 252.787 335.726 253.033C334.251 250.083 332.776 247.625 329.826 244.429ZM275.744 238.283C277.219 237.546 278.94 236.808 280.661 235.825C290.74 230.909 297.131 229.188 307.456 226.238C308.439 225.992 309.668 225.5 310.652 225.255C312.127 227.959 313.601 230.663 315.322 233.121C312.618 234.35 309.177 235.579 306.718 237.054C300.819 240.004 299.835 241.233 292.952 242.708C286.807 244.183 282.628 247.379 277.465 250.329C276.728 246.396 276.236 242.462 275.744 238.283ZM392.757 241.479C392.02 241.479 391.282 241.233 390.545 241.233C390.545 240.742 390.299 240.496 390.299 240.004C389.07 234.842 388.087 231.646 386.366 227.467C389.07 226.975 392.02 226.484 394.97 225.992C402.59 224.763 409.473 223.042 417.34 222.305C423.977 221.567 430.123 220.338 436.76 219.601C444.872 218.863 455.197 217.88 463.063 219.109C463.801 219.109 464.538 219.355 465.276 219.355C465.03 220.584 465.276 220.584 466.751 222.551C470.192 227.467 470.93 229.188 469.946 233.613C465.276 233.367 458.638 233.121 454.214 233.367C450.772 233.613 447.822 234.35 444.626 234.842L443.643 235.088C439.71 235.579 437.006 235.579 434.548 235.579C430.614 235.579 426.927 235.334 420.29 237.792C414.144 240.004 413.407 239.513 407.261 240.004C402.59 240.25 398.657 241.971 394.478 241.971C393.741 241.725 393.249 241.725 392.757 241.479ZM272.057 216.159C272.057 215.667 272.057 214.93 271.811 214.193C271.32 210.013 271.074 205.834 270.828 201.41C289.265 201.655 308.685 201.901 326.384 201.655C315.322 205.834 304.752 210.259 298.36 213.209C289.511 217.388 281.644 219.601 273.778 225.009C273.04 222.305 272.549 219.355 272.057 216.159ZM469.701 187.398C469.946 187.398 469.946 187.398 470.192 187.398C470.192 192.56 471.667 194.035 469.946 199.689C468.963 202.885 468.226 205.834 467.488 208.538C462.818 209.03 458.147 210.013 453.23 210.013C448.068 210.259 442.906 211.488 437.989 211.488C432.335 211.488 430.369 210.751 424.223 211.734C417.586 212.718 411.932 211.98 405.294 212.963C401.115 213.701 397.182 214.192 393.003 214.684C388.578 215.176 384.891 216.405 380.466 216.651C372.6 217.388 365.471 218.617 357.604 220.092C345.805 222.305 333.268 225.992 321.96 230.663C321.714 230.171 321.714 229.68 321.222 229.188C320.73 228.205 319.255 225.255 317.78 222.305C321.468 220.584 325.155 218.617 330.072 217.388C334.497 216.159 337.938 215.422 342.363 213.455C349.492 210.505 356.867 208.784 363.996 205.343C377.516 198.951 374.566 200.426 389.07 198.951C405.294 197.231 412.915 188.135 429.139 188.872C437.252 189.118 444.626 188.627 452.739 187.889C455.934 187.643 459.13 187.643 462.08 187.643C464.784 187.398 467.242 187.398 469.701 187.398ZM476.092 199.689C476.338 198.706 476.092 192.56 476.092 186.906C484.942 186.414 493.3 186.168 502.395 186.66C503.625 186.66 504.608 186.66 505.345 186.66C507.312 186.66 507.066 186.66 507.066 188.872C507.312 202.639 505.837 216.651 506.329 230.417C506.574 236.808 506.329 242.462 506.329 248.608C506.329 258.441 505.591 268.028 505.837 278.107C505.837 286.465 505.591 294.577 505.837 302.935C506.083 308.344 505.591 311.294 505.345 316.456C504.854 325.306 505.837 332.926 505.837 341.776C505.837 348.905 504.854 355.05 504.854 361.688C504.854 367.587 505.591 372.996 505.591 378.65C505.591 385.287 505.1 391.187 505.345 398.07C505.591 407.657 505.837 417.244 506.083 426.831C506.574 439.86 506.329 453.38 507.312 466.163C507.558 470.834 510.999 493.696 509.77 496.154C509.279 496.892 509.033 496.892 508.049 497.383C499.937 501.316 476.338 500.333 466.751 500.825C463.063 501.071 459.13 501.316 454.951 501.808C451.755 498.858 448.805 495.908 446.101 491.975C445.364 490.992 444.626 490.008 444.135 488.779C441.431 484.6 436.76 475.505 433.318 472.801C430.86 470.834 429.877 469.851 427.91 467.392C422.994 461.984 422.502 461.247 416.111 457.805C410.948 455.101 402.344 445.022 399.149 439.86C394.724 432.977 393.495 425.848 386.858 420.686C381.941 416.752 380.22 415.278 376.287 410.361C372.354 405.445 368.175 401.511 363.996 396.841C359.079 391.433 354.163 387.499 349.492 382.091C348.755 381.108 348.017 380.37 347.28 379.633C355.883 378.895 365.471 378.895 372.6 378.65C380.958 378.65 390.545 378.404 398.903 378.895C400.869 378.895 400.624 379.633 400.87 377.912C401.115 373.241 402.099 368.571 402.344 364.146C401.361 364.146 400.132 363.9 399.149 363.9C392.02 363.408 385.137 364.146 378.254 364.392C373.337 364.638 368.175 365.621 363.504 365.375C359.079 365.375 355.146 365.621 350.721 365.867C344.33 366.112 342.117 366.604 336.217 367.833C336.217 367.833 336.217 367.833 335.972 367.833C333.268 365.129 329.58 362.179 326.876 358.984C327.122 358.984 327.614 358.738 327.859 358.738C339.659 355.788 350.23 355.05 362.275 353.33C368.175 352.592 373.829 352.346 379.729 351.855C385.628 351.117 390.545 351.363 396.199 351.117C403.328 350.625 409.228 348.167 416.357 349.642C415.865 346.201 416.111 345.217 417.094 341.776C412.669 342.267 408.49 341.284 404.557 340.301C400.624 339.318 396.936 338.334 392.511 338.58C387.595 338.826 383.908 339.563 378.991 339.318C373.091 339.072 368.666 339.318 362.767 340.055C352.442 341.038 341.626 342.513 331.301 344.48C328.105 345.217 323.926 345.955 319.747 346.692V346.446C315.077 339.072 308.439 334.647 302.785 328.01C299.098 323.831 295.902 320.881 292.215 317.193C291.723 316.702 291.477 316.456 290.986 315.964C299.344 312.768 306.964 310.31 316.306 308.098C327.368 305.639 337.938 301.706 349 300.231C350.967 299.986 352.688 299.74 354.654 299.494C355.146 300.723 355.884 301.952 356.621 303.427C358.342 307.852 359.325 311.785 364.979 310.064C366.7 309.081 367.929 307.606 367.437 305.639C367.191 304.902 365.225 301.215 363.504 298.265C368.666 297.527 373.583 296.79 378.745 296.298C385.628 295.561 392.511 294.332 399.395 293.594C400.132 297.773 400.87 301.952 403.574 305.885C407.015 310.802 409.473 313.26 411.932 318.914C416.111 328.747 419.552 338.826 423.485 348.905C423.977 349.888 424.223 350.871 424.715 351.855C426.927 358.246 429.631 364.638 430.369 371.521C431.106 378.404 431.106 378.895 433.81 385.533C436.022 391.432 435.531 395.857 439.218 401.266C442.906 406.92 443.643 412.573 447.33 418.227C452.739 426.831 455.443 432.485 458.884 442.073C462.326 451.906 465.522 461.247 469.209 471.08C471.421 476.734 477.321 474.276 477.075 470.342C477.075 469.113 471.176 453.872 470.192 451.414C468.226 446.251 464.784 441.581 463.309 436.664C462.08 432.485 461.343 429.535 459.376 425.602C456.918 420.194 455.443 416.507 453.722 410.607C453.476 409.624 453.23 408.64 452.984 407.411C451.509 400.774 451.51 399.791 448.314 393.645C445.364 388.237 444.381 383.566 446.101 377.42C447.085 373.979 448.56 369.8 447.33 366.112C445.61 361.688 438.727 353.33 435.039 350.134C428.648 344.48 428.894 343.251 426.681 335.138C425.452 331.205 423.731 328.255 422.502 324.814C422.256 323.831 421.765 322.847 421.519 321.864C419.061 313.998 423.485 310.556 420.044 304.656C417.586 299.986 416.602 297.281 415.865 292.119H416.111C424.715 290.89 429.631 289.907 437.989 291.627C444.135 292.857 447.085 293.102 453.23 293.348C453.476 288.923 453.722 284.253 453.968 279.828C449.297 279.582 445.61 279.336 440.693 280.074C433.564 281.303 432.335 282.04 424.96 281.549C420.781 281.303 416.848 281.794 412.669 282.04C411.194 279.336 409.719 276.632 407.998 273.682C404.557 268.274 400.378 263.849 398.165 257.704C397.182 255.245 396.199 252.787 395.215 250.083C399.149 248.854 402.344 248.608 407.507 248.116C410.702 247.871 413.652 247.871 416.602 247.871C419.061 247.871 421.519 247.871 424.223 247.625C433.073 246.887 440.693 245.904 449.543 246.641C456.18 247.133 462.817 247.379 469.455 247.625C476.092 253.77 474.125 260.162 473.88 268.028C473.634 274.174 476.829 277.124 477.567 283.761C478.059 290.89 477.075 292.857 479.534 300.723C482.729 311.539 481.746 316.21 480.025 327.272C479.288 332.189 479.042 343.742 480.763 348.167C481.992 351.363 485.679 354.067 487.154 349.888C488.383 345.709 487.154 329.976 486.663 325.06C485.925 318.668 484.204 310.064 484.45 303.919C484.696 297.281 485.433 293.594 484.204 286.465C483.221 279.828 483.958 276.632 483.958 270.241C484.204 261.145 481.254 254.754 481.5 246.396C481.5 245.167 481.5 244.183 481.5 242.954C481.5 237.792 481.5 227.221 478.796 223.288C478.304 222.551 477.813 222.059 477.567 221.567C482.483 221.813 487.646 221.813 492.808 222.059C493.054 217.88 493.3 213.701 493.3 209.522H492.562C486.908 209.276 481.5 209.03 475.846 209.03C475.109 209.03 474.371 209.03 473.634 209.276C473.634 205.097 475.846 201.655 476.092 199.689ZM245.754 182.973C248.949 182.973 252.391 182.973 255.833 182.727C255.341 189.856 255.341 194.527 255.341 199.443C252.883 199.935 250.179 200.426 247.72 201.164C250.179 201.164 252.883 201.41 255.341 201.41V201.655C255.095 205.097 254.603 208.539 254.603 212.472C254.358 219.846 256.57 228.696 255.833 235.334C252.391 236.808 249.195 238.283 246.245 240.004C245.754 220.83 245.754 201.655 245.754 182.973ZM245.754 175.106C245.754 165.027 246 155.194 246 145.607C249.441 145.607 253.129 145.607 256.57 145.607C257.062 149.786 257.553 153.965 258.045 157.899C258.045 158.636 257.799 159.128 257.799 159.865L253.374 160.111H257.799C257.553 162.569 257.307 165.027 257.307 167.977C257.307 170.19 257.062 172.648 256.816 175.106C253.128 175.352 249.441 175.352 245.754 175.106ZM397.674 145.116C377.516 151.015 295.165 157.898 268.861 159.373C268.616 155.686 268.615 152.245 268.615 148.803C268.615 147.82 268.615 146.591 268.615 145.607C290.74 145.607 313.356 145.853 335.726 145.853C356.867 145.853 377.516 145.853 397.674 145.116ZM246.245 142.166C246.245 139.707 246.245 137.495 246.491 135.283C248.704 135.283 251.899 135.283 256.078 135.283C256.324 137.495 256.324 139.953 256.57 142.166C253.129 142.166 249.687 142.166 246.245 142.166ZM269.353 127.17C290.002 127.662 315.322 128.154 327.368 130.12C307.21 132.333 288.527 133.07 269.107 134.053C269.107 131.595 269.107 129.383 269.353 127.17ZM246.737 126.187C249.195 126.433 252.145 126.433 255.341 126.679C255.587 129.383 255.587 131.841 255.833 134.545C252.637 134.791 249.441 134.791 246.245 135.037C246.491 132.087 246.491 129.137 246.737 126.187ZM247.966 98.1629C249.441 98.1629 251.162 97.9171 253.374 97.9171C254.358 107.013 254.849 116.108 255.341 125.204C252.145 125.204 249.195 125.204 246.737 125.45C246.983 115.617 247.475 106.521 247.966 98.1629ZM248.704 86.3634C249.687 86.3634 250.67 86.3634 251.899 86.3634C252.391 89.5591 252.637 92.7548 253.128 96.1964C251.408 96.4422 249.687 96.4422 248.212 96.688C248.212 93.0006 248.458 89.5591 248.704 86.3634ZM256.57 86.3634C256.816 86.3634 256.816 86.3634 257.062 86.3634C257.062 86.855 257.062 87.1008 257.062 87.5925C257.062 88.5758 257.062 89.3133 257.062 90.0507C256.816 88.8216 256.57 87.5925 256.57 86.3634ZM269.845 86.1175C299.098 85.8717 328.597 85.8717 357.604 84.6426C328.597 83.4134 299.098 83.1676 269.845 83.1676C269.845 81.4468 270.09 79.9719 269.845 78.2511C287.052 79.726 305.735 79.4802 324.172 79.4802C343.101 79.2344 361.783 79.2344 379.237 80.7093C385.137 81.201 411.44 83.9051 426.435 85.6258C398.411 89.8049 323.435 89.3132 302.539 91.7715C291.477 93.0006 280.415 93.9839 269.107 94.9672C269.107 91.7715 269.599 89.0674 269.845 86.1175ZM255.095 76.2845C255.587 76.2845 255.833 76.5303 256.324 76.5303C256.324 78.7428 256.57 80.9552 256.57 83.1676C256.324 83.1676 256.324 83.1676 256.078 83.1676C255.833 80.7093 255.587 78.4969 255.095 76.2845ZM248.949 82.9218C249.195 80.2177 249.441 77.7595 249.687 75.3012H249.933C250.424 77.7595 250.916 80.2177 251.162 82.9218C250.67 82.9218 249.933 82.9218 248.949 82.9218ZM269.845 39.4107C289.511 39.9024 309.177 39.9023 328.597 40.1482C315.814 42.3606 290.986 44.573 269.599 46.2938C269.599 43.8355 269.845 41.6231 269.845 39.4107ZM58.9265 16.7948C61.6305 16.7948 64.0888 16.7948 66.7929 16.7948C64.0888 61.2891 60.1556 109.963 60.6473 155.686C56.7141 108.242 58.189 68.1722 58.9265 16.7948ZM179.381 16.7948C183.806 16.7948 187.247 16.7948 190.935 16.549C188.722 49.7354 187.739 156.915 185.772 186.906C178.889 156.915 165.123 50.4728 161.927 16.7948C166.598 17.0406 171.023 17.0406 175.939 17.0406C176.923 16.7948 178.152 16.7948 179.381 16.7948ZM87.688 16.549C95.5545 16.549 104.404 14.3365 111.533 14.8282C113.254 14.8282 114.729 15.074 116.204 15.3199C125.299 97.9172 115.712 164.29 133.657 250.329C132.428 234.104 133.166 241.725 131.199 225.746C122.595 151.507 129.724 87.5925 123.087 16.0573C126.037 16.3031 128.987 16.3031 132.92 16.0573C142.507 15.074 143.982 14.8282 153.815 15.8115C154.307 15.8115 154.552 15.8115 154.798 15.8115C158.732 53.6686 176.923 200.18 187.001 198.214C193.885 196.985 193.639 50.4729 192.164 16.3032C195.114 16.0573 198.064 15.8115 201.751 15.3199C209.863 14.3366 213.305 15.5656 220.925 15.5656H221.171C219.205 61.535 220.68 104.554 220.925 150.278C224.859 134.545 222.646 43.3439 221.417 15.5656C227.071 15.5656 232.971 14.5824 237.887 14.8282C242.066 15.074 246.491 15.3199 250.67 15.3199C255.341 15.3199 254.603 14.0907 254.358 17.5323C254.358 18.7614 254.112 19.9905 254.112 21.2197C244.77 21.9571 237.15 22.9404 232.479 24.4154C231.496 26.382 232.233 28.8402 233.954 29.8235C235.921 30.8068 238.379 30.0694 239.362 28.3486C240.837 29.3319 246.245 29.5777 253.62 29.5777C253.62 32.5276 253.62 35.2317 253.62 38.1816C246.245 38.4274 240.837 38.6733 238.871 38.6733C243.787 38.9191 248.704 39.1649 253.62 39.1649C253.866 41.6231 254.112 44.573 254.358 47.5229C245.508 48.2604 238.133 48.9979 233.954 49.7354C240.591 49.4896 247.475 48.9979 254.603 48.752C254.603 49.2437 254.603 49.4895 254.849 49.9812C256.324 58.8309 256.324 61.535 255.833 68.6639C254.849 68.4181 253.866 68.4181 252.883 68.1723C252.391 65.9599 251.899 63.9932 251.162 62.2724C248.949 56.6185 247.229 58.8309 245.754 66.6973C243.295 66.2057 241.083 65.4682 238.871 64.7307C236.904 63.7474 234.446 64.7307 233.708 66.6973C232.725 68.6639 233.708 71.1222 235.675 71.8597C238.625 72.843 241.575 73.5804 244.77 74.0721C244.525 76.5303 244.279 79.4802 244.033 82.4301C242.804 82.4301 241.329 82.4301 240.1 82.4301C239.116 82.4301 238.379 83.1676 238.379 84.1509C238.379 85.1342 239.116 85.8717 240.1 85.8717C241.329 85.8717 242.558 85.8717 243.787 85.8717C243.541 89.0674 243.296 92.7548 243.05 96.4422C239.116 96.688 235.429 97.1797 231.742 97.4255C236.658 97.6713 239.854 97.9171 243.05 97.9171C242.558 106.029 242.312 115.125 241.821 125.204C241.083 125.204 240.591 125.204 240.1 125.45C240.591 125.695 240.346 125.45 241.083 125.695C241.329 125.695 241.575 125.695 241.821 125.695C241.575 130.858 241.575 136.266 241.329 141.92C239.362 141.92 237.396 141.92 235.429 141.92C234.446 141.92 233.708 142.657 233.708 143.641C233.708 144.624 234.446 145.361 235.429 145.361C237.396 145.361 239.362 145.361 241.329 145.361C241.083 154.949 240.837 164.782 240.837 174.86C240.1 174.86 239.362 174.86 238.625 174.86C236.412 174.86 234.692 176.581 234.692 178.794C234.692 181.006 236.412 182.727 238.625 182.727C239.362 182.727 240.1 182.727 240.837 182.727C240.591 202.393 240.591 222.796 240.591 242.462C229.529 249.346 217.73 256.474 206.913 263.849C200.522 268.274 193.639 272.453 187.493 277.37C181.839 282.04 179.627 284.499 172.989 288.432C161.927 295.069 157.502 303.181 147.915 310.064C138.574 316.702 132.428 321.127 124.808 329.976C120.629 334.893 117.433 338.334 113.008 342.759C106.371 349.642 103.667 355.296 98.0127 362.179C93.0962 368.325 91.3755 373.487 85.7215 379.387C83.7549 381.354 82.2799 382.829 81.0507 384.304C79.3299 383.566 78.3467 383.32 77.855 385.779C77.6092 387.008 77.6092 387.991 77.6092 388.728C75.8884 391.187 74.1677 393.891 71.7094 398.316C66.7929 406.92 57.4515 414.294 52.0434 422.652C45.4061 433.223 37.2939 445.76 32.6232 457.314C28.9358 466.655 28.4441 468.13 22.2985 475.996C22.5443 473.292 22.2985 470.588 22.0527 467.884C21.0694 461.247 19.8403 455.839 19.1028 449.202C17.8737 436.664 15.1696 434.944 17.6278 421.177C20.0861 407.903 18.8569 392.17 18.6111 378.404C18.3653 370.537 17.6278 362.179 17.6278 354.559C17.8737 339.318 18.1195 324.322 18.1195 308.835C18.1195 290.644 20.8235 273.191 22.2985 255C23.036 244.429 21.8068 235.088 22.0527 224.763C22.2985 217.142 24.2651 209.276 23.2818 202.147C22.2985 194.527 20.3319 187.152 18.857 179.531C21.0694 125.941 21.0694 71.1222 21.5611 17.5323C22.2985 16.7948 23.2818 16.549 24.5109 16.549C30.1649 16.549 36.0647 16.549 41.7187 16.549C41.9645 101.85 38.7688 206.326 47.6185 288.678C46.3894 197.476 47.8644 107.504 48.6018 16.549C49.5851 16.549 50.5685 16.549 51.3059 16.549C51.0601 49.2438 48.6018 204.114 63.1055 204.114C63.3513 202.639 63.3514 201.41 63.5972 199.935L65.3179 200.918C64.8263 198.214 64.5805 195.51 64.3346 193.052C68.022 144.624 66.5471 79.4802 67.7762 29.5777L67.5303 16.3032C69.9886 16.3032 72.2011 16.3032 74.6593 16.3032C79.33 16.7948 83.509 16.7948 87.688 16.549ZM282.873 15.074C290.986 14.3366 299.098 14.5823 307.21 13.3532C317.289 11.6324 318.272 10.4033 328.843 12.3699C336.709 13.8449 342.609 15.074 350.967 15.5656C353.917 15.8115 356.621 15.5656 359.325 15.5656C362.029 15.5656 364.487 15.3198 367.191 15.5656C376.041 16.0573 384.153 16.5489 393.249 16.7948C401.607 17.0406 408.736 16.7948 416.848 16.7948C420.781 16.7948 424.96 17.0406 428.894 17.2864C433.81 17.7781 438.727 18.0239 443.643 17.7781C451.509 17.2865 455.443 17.2864 463.555 18.0239C469.946 18.7614 473.388 18.0239 479.534 18.0239C486.171 18.0239 488.875 18.7614 495.021 19.4989C497.971 19.9905 500.675 19.0072 502.641 20.9738C505.099 23.1862 504.116 27.3653 504.362 30.8068V32.036C505.099 39.4107 504.362 48.2605 504.362 55.881C504.362 64.2391 505.345 71.6138 504.608 80.2177C504.116 87.1008 505.591 93.0006 505.099 99.8838C504.608 108.733 503.624 113.158 504.608 122.5C505.099 128.399 505.345 134.299 505.345 140.199C505.345 145.853 506.574 151.753 506.329 157.161C506.083 161.586 506.329 164.044 506.574 168.469C505.345 168.469 503.87 168.223 502.641 168.223C491.333 167.486 485.925 168.961 474.863 169.944C470.192 170.436 466.013 171.173 461.834 171.911C431.844 170.19 411.44 170.19 380.958 172.156C410.702 173.877 430.86 173.877 459.622 172.402C455.689 173.14 451.51 174.123 447.085 174.86C440.202 176.335 434.056 177.565 427.173 179.285C418.323 181.498 411.932 182.235 403.328 183.71C394.478 185.185 387.349 188.135 378.745 189.856C372.108 191.331 367.929 191.331 361.292 192.068C355.883 192.806 348.017 194.772 339.659 197.722C339.413 195.51 337.447 194.035 335.48 194.281C313.356 196.001 291.969 195.264 270.828 197.722C270.582 192.806 270.09 188.135 269.845 183.219C302.048 182.973 335.234 182.481 366.208 179.777C335.234 177.073 302.048 176.335 269.599 176.09C269.599 174.86 269.599 173.386 269.599 172.156C269.599 168.469 269.353 164.782 269.107 161.094H276.728C286.069 160.848 407.998 151.753 403.082 144.378C390.053 143.149 397.428 143.641 378.008 143.395C341.626 142.903 305.243 142.903 268.861 142.903C268.861 140.691 268.861 138.232 269.107 136.02C302.048 136.02 353.425 134.791 332.53 128.154C328.597 126.925 295.165 125.941 269.599 125.695C269.599 124.466 269.845 123.237 269.845 122.008C270.582 115.371 270.336 112.667 269.845 108.488C294.181 108.242 319.993 108.242 342.855 107.259C358.342 106.521 373.091 105.784 387.841 101.604L383.662 101.85C343.346 105.538 308.931 103.079 269.845 107.259C269.599 105.784 269.599 104.063 269.353 101.85C269.107 100.375 269.107 98.9005 269.107 97.4255C301.802 95.7047 331.547 93.9839 364.979 93.2464C365.716 93.2464 368.912 93.2465 373.583 93.4923C394.724 93.9839 446.347 94.4756 440.447 83.6593C438.481 80.2177 386.366 75.3012 379.974 74.5637C346.542 71.1221 304.506 74.3179 269.599 70.8763C268.861 64.239 268.616 60.06 269.353 51.702C269.353 50.7187 269.599 49.7353 269.599 48.752C291.723 47.7687 314.339 46.5396 334.251 42.6064C338.676 41.6231 339.905 39.4107 338.676 38.1816C377.762 39.1649 417.34 38.9191 456.18 36.9525C409.473 34.74 362.029 34.9859 315.322 36.9525C302.048 36.9525 284.84 37.4441 270.09 37.6899C270.09 34.74 270.09 32.0359 270.09 29.086C284.594 28.3485 299.835 27.1195 303.769 27.1195C346.051 26.6278 392.266 27.6111 434.056 24.4154C419.061 23.1862 424.715 23.432 409.719 22.9404C383.662 22.2029 314.831 19.0072 269.599 20.728C269.353 19.253 269.353 17.5322 269.107 15.8115C270.828 15.8115 272.549 16.0573 274.024 16.0573C276.974 15.5657 279.678 15.5657 282.873 15.074ZM448.314 0.32451C438.972 0.32451 429.877 0.32451 420.536 0.32451C417.094 0.32451 414.144 0.57035 410.948 0.57035C406.278 0.816175 401.607 1.06194 396.445 0.816115C385.874 0.0786393 381.695 0.32451 371.125 1.55364C366.208 2.29111 361.783 2.04529 357.358 1.55364C352.934 1.30781 348.263 1.062 343.346 1.79948C331.547 3.27443 319.747 2.29107 307.947 2.04524C304.998 2.04524 301.802 2.04524 298.606 2.04524C295.165 2.04524 291.477 2.04524 288.281 2.04524C280.415 1.55359 275.744 1.30783 267.632 1.79948C260.749 2.29113 256.816 1.55364 250.179 1.55364C247.966 1.55364 245.508 1.79948 243.05 1.79948C240.1 2.0453 236.904 2.29107 234.2 2.04524C227.563 1.55359 223.138 0.816145 216.255 1.3078C207.897 2.04527 207.405 2.29108 198.801 1.06196C187.739 -0.412996 177.414 0.0786694 166.352 0.0786694C157.011 0.0786694 148.407 2.53694 139.557 1.55364C127.266 0.32451 127.512 0.0786843 115.221 1.55364C104.896 2.78276 97.521 0.0786694 87.4422 0.0786694C66.5471 0.0786694 45.6519 0.0786694 24.7567 0.0786694C18.8569 0.0786694 13.6946 2.53692 10.0072 6.2243C6.07403 10.1575 3.8616 15.3198 3.8616 20.9738V22.2029C3.8616 30.3152 3.61577 38.6732 3.8616 46.7855C4.10742 58.5851 4.84488 64.2391 2.38663 76.2845C0.174203 87.3466 0.665869 94.2297 0.174218 105.292C-0.317432 119.058 0.174203 125.941 2.38663 139.462C3.86158 147.82 4.84494 154.703 5.82825 163.061C7.54902 178.302 4.10742 189.61 3.8616 204.36C3.61577 221.567 3.8616 239.267 3.8616 256.474C3.8616 265.324 4.35325 271.47 5.09072 280.074C5.33655 283.269 5.58236 286.711 6.07401 290.153C5.09071 340.055 5.33656 391.678 5.33656 439.86C4.35326 445.76 3.12411 451.66 2.38663 457.559C0.420029 471.572 -0.809098 471.572 2.38663 485.584C3.61576 492.467 3.36999 497.875 7.05737 504.266C8.53232 506.479 8.77813 505.495 8.04066 507.216C9.76144 508.445 12.7114 510.412 14.4321 511.395C19.1028 513.608 23.5276 513.608 25.0026 513.608C25.2484 513.608 25.4943 513.608 25.4943 513.608C34.0982 512.87 42.4562 513.116 50.5684 513.362C56.714 513.608 62.6138 513.608 69.0053 513.608C77.6092 513.362 84.0007 514.099 92.6045 514.591C96.7836 514.837 100.717 514.591 104.65 514.591C110.058 514.345 115.22 514.345 120.629 514.837C128.741 515.82 133.903 516.066 142.015 515.328C148.653 514.837 153.323 515.82 159.715 515.82C162.419 515.82 165.369 515.574 168.073 515.328C171.515 515.083 174.956 514.837 178.152 515.083C190.689 516.066 197.326 517.787 210.355 515.574C214.78 514.837 220.68 512.624 224.859 513.608C234.692 515.574 238.871 516.558 248.704 514.591C259.274 512.624 265.42 512.624 276.236 513.116C287.298 513.608 299.098 514.591 310.16 514.837C318.764 514.837 326.876 515.328 335.48 515.083C340.642 514.837 343.592 515.083 348.755 515.328C353.671 515.574 358.096 515.328 362.767 515.083C366.454 514.837 369.896 514.837 373.829 514.837C382.187 515.083 390.299 514.591 398.657 514.591C402.836 514.591 406.769 514.837 410.457 515.083C416.111 515.574 421.765 516.066 427.664 515.328C440.447 514.099 450.035 513.608 462.817 515.328C471.667 516.558 478.059 516.312 486.663 516.312C496.987 516.312 507.066 518.278 511.982 506.725C511.982 506.479 512.966 503.529 512.72 504.512C513.703 501.071 513.949 498.612 512.72 495.417C511.245 490.746 514.195 475.751 515.178 470.342C517.882 455.101 516.653 441.335 517.637 426.094C518.128 418.719 517.882 411.099 518.374 403.97C518.866 395.857 519.357 390.449 518.62 382.091C517.882 372.996 520.586 366.604 519.357 357.509C518.374 349.151 517.391 343.251 518.128 334.647C518.866 326.043 519.849 320.881 518.866 312.031C518.128 304.41 519.112 296.79 518.866 289.169C518.866 281.057 519.112 272.945 518.866 265.078C518.128 243.446 519.111 221.813 518.128 200.426C517.882 192.314 518.374 185.185 518.866 177.319C519.112 171.419 518.866 165.519 519.357 159.865C519.603 153.965 520.341 148.803 520.341 142.903C520.832 122.254 520.095 101.604 520.832 80.7093C521.078 71.6138 520.341 63.9932 520.341 55.1435C520.341 43.8356 523.291 34.74 521.324 23.4321C520.095 17.5323 518.374 10.895 514.195 6.47014C510.262 2.53694 505.1 0.32451 499.2 0.32451C487.892 0.32451 476.584 0.32451 465.276 0.32451C459.622 0.32451 453.968 0.32451 448.314 0.32451Z" fill="white"/>
</mask>
<g mask="url(#mask0_313_781)">
<path d="M523.537 -0.166748H-0.808563V518.771H523.537V-0.166748Z" fill="#D9D9D9" fill-opacity="0.26"/>
</g>
</svg>
