<svg width="122" height="97" viewBox="0 0 122 97" fill="none" xmlns="http://www.w3.org/2000/svg">
<path d="M90.7214 88.1L87.7098 81.8L95.1131 79.5L80.4321 45.9L90.9723 37.5L88.4628 35.5L79.0518 43L69.7663 21.4C70.7702 20.1 71.2721 18.6 71.2721 17.1C71.2721 14 69.1389 11.3 66.1274 9.80002V0H55.4617V9.70001C52.1992 11.2 50.0661 13.9 50.0661 17.1C50.0661 18.7 50.6935 20.2 51.6973 21.5L42.4119 43L33.1264 35.6L30.6168 37.6L41.1571 46L35.385 59.3L38.773 60.2L44.0431 48.2L48.5603 51.8L35.2596 79.2L30.9933 77.9L37.5182 62.9L34.1302 62L26.4761 79.6L33.8794 81.9L30.8678 88.2H0V96.7H100.007V93.9H3.5134V91.1H117.95V93.9H110.547V96.7H121.338V88.2L90.7214 88.1ZM90.4704 77.9L86.3296 79.2L73.0288 51.8L77.5461 48.2L90.4704 77.9ZM71.6485 48.8L62.614 30L65.2491 24.6C65.8765 24.3 66.5039 24 67.1313 23.7L76.4167 45.1L71.6485 48.8ZM64.8726 54.2C63.8688 53.2 62.3631 52.5 60.7318 52.5C59.1006 52.5 57.4694 53.2 56.591 54.2L52.5757 51L60.8574 34L69.1389 51L64.8726 54.2ZM62.4886 56.8C62.4886 57.6 61.7357 58.2 60.7318 58.2C59.728 58.2 58.9752 57.6 58.9752 56.8C58.9752 56 59.728 55.4 60.7318 55.4C61.7357 55.4 62.4886 56 62.4886 56.8ZM58.9752 8.5V2.8H62.4886V8.5H58.9752ZM60.6064 11.3C64.4962 11.3 67.7587 13.8 67.7587 17C67.7587 20.1 63.9943 22.7 60.6064 22.7C56.7165 22.7 53.4541 20.2 53.4541 17C53.4541 13.8 56.7165 11.3 60.6064 11.3ZM45.0469 45.1L54.3324 23.8C56.2146 24.9 58.5987 25.5 61.1082 25.5L49.8151 48.9L45.0469 45.1ZM51.0699 53.9L55.4617 57.4C55.8381 59.4 58.0968 61 60.7318 61C63.3669 61 65.6255 59.4 66.002 57.4L70.3937 53.9L86.957 88.1H34.6322L51.0699 53.9Z" fill="#C39B69"/>
<path d="M103.52 93.8H107.034V96.6H103.52V93.8Z" fill="#C39B69"/>
<path d="M58.8497 15.6001H62.3631V18.4001H58.8497V15.6001Z" fill="#C39B69"/>
</svg>
