<svg width="703" height="398" viewBox="0 0 703 398" fill="none" xmlns="http://www.w3.org/2000/svg">
<path d="M45.9729 46.0457C22.4625 69.6332 10.6663 100.428 10.6663 131.305C10.6663 162.181 22.4625 193.058 45.9729 216.564C93.0758 263.657 169.505 263.657 216.608 216.564L301.885 131.305L216.608 46.0457C193.016 22.5401 162.215 10.7463 131.332 10.7463C100.367 10.7463 69.5653 22.4582 45.9729 46.0457ZM188.101 86.4229L232.992 131.305L188.101 176.186C163.28 201.002 123.058 201.002 98.2366 176.186C85.7851 163.737 79.6412 147.521 79.6412 131.305C79.6412 115.006 85.867 98.79 98.2366 86.4229C110.606 73.9739 126.908 67.8314 143.128 67.8314C159.429 67.7495 175.649 73.9739 188.101 86.4229Z" fill="#2E1A09"/>
<path d="M347.022 176.268L302.131 131.305L347.022 86.4229C371.843 61.6069 412.064 61.6069 436.886 86.4229C449.255 98.79 455.481 115.088 455.481 131.305C455.481 147.603 449.255 163.819 436.886 176.186C424.516 188.554 408.214 194.778 391.995 194.778C375.693 194.86 359.473 188.635 347.022 176.268Z" fill="#2E1A09"/>
<path d="M657.163 352.929C680.674 329.341 692.47 298.547 692.47 267.67C692.47 236.793 680.674 205.916 657.163 182.411C610.061 135.318 533.631 135.318 486.528 182.411L401.251 267.67L486.528 352.929C510.121 376.434 540.922 388.228 571.805 388.228C602.77 388.228 633.571 376.434 657.163 352.929ZM515.036 312.552L470.145 267.67L515.036 222.788C539.857 197.972 580.079 197.972 604.9 222.788C617.351 235.237 623.495 251.453 623.495 267.67C623.495 283.968 617.269 300.185 604.9 312.552C592.53 325.001 576.228 331.143 560.009 331.143C543.789 331.143 527.487 325.001 515.036 312.552Z" fill="#613A0F"/>
<path d="M356.115 222.706L401.006 267.588L356.115 312.47C331.293 337.286 291.072 337.286 266.251 312.47C253.881 300.103 247.655 283.804 247.655 267.588C247.655 251.29 253.881 235.073 266.251 222.706C278.62 210.339 294.922 204.115 311.142 204.115C327.443 204.115 343.663 210.339 356.115 222.706Z" fill="#613A0F"/>
<path d="M664.044 175.204C613.255 124.425 530.6 124.425 479.729 175.204L401.169 253.747L362.996 215.581C349.152 201.74 330.802 194.123 311.223 194.123C291.645 194.123 273.295 201.74 259.451 215.581C245.607 229.422 237.989 247.768 237.989 267.342C237.989 286.917 245.607 305.262 259.451 319.104C273.705 333.355 292.464 340.48 311.223 340.48C329.983 340.48 348.742 333.355 362.996 319.104L401.169 280.938L479.729 359.481C504.386 384.051 537.071 397.647 571.887 397.647C606.62 397.647 639.387 384.133 664.044 359.481C688.62 334.829 702.218 302.15 702.218 267.342C702.218 232.616 688.702 199.856 664.044 175.204Z" stroke="#2E1A09" stroke-width="0.5" stroke-miterlimit="10"/>
<path d="M39.1738 223.443C89.963 274.222 172.618 274.222 223.489 223.443L302.049 144.9L340.222 183.066C354.067 196.907 372.416 204.524 391.995 204.524C411.573 204.524 429.923 196.907 443.767 183.066C457.611 169.225 465.229 150.879 465.229 131.305C465.229 111.73 457.611 93.3844 443.767 79.5431C429.513 65.2923 410.754 58.1669 391.995 58.1669C373.235 58.1669 354.476 65.2923 340.222 79.5431L302.049 117.709L223.489 39.1659C198.832 14.5956 166.147 1 131.332 1C96.5983 1 63.8311 14.5137 39.1738 39.1659C14.5984 63.8181 1 96.4966 1 131.305C1 166.113 14.5984 198.791 39.1738 223.443Z" stroke="#753800" stroke-width="0.5" stroke-miterlimit="10"/>
<path d="M296.642 232.125C296.642 232.207 296.642 232.207 296.642 232.207V232.862V232.944C296.642 233.026 296.56 233.026 296.478 233.026H293.693V236.384H289.188C288.368 236.384 287.713 236.22 287.058 235.974C286.402 235.728 285.911 235.319 285.501 234.746C285.092 234.172 284.928 233.517 284.928 232.78V228.357H285.993V232.78C285.993 233.517 286.239 234.09 286.812 234.582C287.385 235.073 288.123 235.319 289.188 235.319H292.546V224.017H293.611V231.961H296.396C296.56 232.043 296.642 232.043 296.642 232.125ZM288.45 223.771V222.133H289.679V223.771H288.45Z" fill="#F7F6ED"/>
<path d="M303.933 224.59C304.67 224.999 305.162 225.573 305.489 226.31C305.817 227.047 305.981 227.784 305.981 228.603C305.981 229.34 305.899 230.077 305.653 230.896C305.407 231.715 305.162 232.452 304.834 233.108H296.478C296.396 233.108 296.314 233.108 296.314 233.026C296.314 232.944 296.314 232.944 296.314 232.944V232.289V232.207C296.314 232.125 296.396 232.125 296.478 232.125H298.199V224.426C299.427 224.18 300.41 224.017 301.23 224.017C302.294 223.935 303.196 224.099 303.933 224.59ZM299.345 225.163V231.961H304.179C304.67 230.896 304.916 229.75 304.916 228.521C304.916 227.538 304.588 226.719 304.015 225.982C303.441 225.245 302.458 224.918 301.23 224.918C300.574 224.999 299.919 225.081 299.345 225.163Z" fill="#F7F6ED"/>
<path d="M318.35 232.125C318.35 232.207 318.35 232.207 318.35 232.207V232.862V232.944C318.35 232.944 318.269 233.026 318.187 233.026C317.204 233.026 316.466 232.698 315.893 231.961V233.271C315.893 234.418 315.647 235.319 315.074 235.974C314.5 236.629 313.681 237.121 312.616 237.366L312.125 236.384C313.026 236.302 313.681 235.974 314.091 235.483C314.5 234.991 314.746 234.254 314.746 233.353V224.098H315.811V230.241C316.302 231.388 317.04 232.043 318.105 232.043C318.268 232.043 318.35 232.043 318.35 232.125Z" fill="#F7F6ED"/>
<path d="M323.429 230.487C323.675 230.978 324.085 231.306 324.658 231.633C325.232 231.961 325.969 232.043 326.788 232.043C326.87 232.043 326.952 232.043 326.952 232.125C326.952 232.207 326.952 232.207 326.952 232.207V232.862V232.944C326.952 232.944 326.87 233.026 326.788 233.026C325.887 233.026 325.068 232.862 324.494 232.616C323.839 232.37 323.347 231.961 322.938 231.388C322.61 231.879 322.201 232.289 321.627 232.616C321.136 232.944 320.48 233.026 319.825 233.026H318.105C318.023 233.026 317.941 233.026 317.941 232.944C317.941 232.862 317.941 232.862 317.941 232.862V232.207V232.125C317.941 232.043 318.023 232.043 318.105 232.043H319.825C320.644 232.043 321.218 231.797 321.709 231.306C322.201 230.814 322.446 230.159 322.446 229.422V224.18H323.511V229.422C323.593 229.668 323.593 230.077 323.429 230.487ZM320.644 222.133V220.495H321.873V222.133H320.644ZM322.364 219.021V217.383H323.593V219.021H322.364ZM324.085 222.133V220.495H325.313V222.133H324.085Z" fill="#F7F6ED"/>
<path d="M333.341 224.836C334.98 224.836 336.127 225.245 336.946 225.982C337.765 226.719 338.093 227.784 338.093 229.013C338.093 230.077 337.683 231.47 336.946 233.108H326.87C326.788 233.108 326.706 233.108 326.706 233.026C326.706 232.944 326.706 232.944 326.706 232.944V232.289V232.207C326.706 232.125 326.788 232.125 326.87 232.125H336.29C336.454 231.715 336.7 231.224 336.782 230.732C336.946 230.159 337.028 229.668 337.028 229.176C337.028 228.275 336.782 227.538 336.209 226.965C335.635 226.392 334.652 226.064 333.341 226.064H328.344L327.853 224.999L333.505 218.775H334.898L329.082 224.999H333.341V224.836Z" fill="#F7F6ED"/>
<path d="M341.369 233.107V218.693H342.434V233.107H341.369Z" fill="#F7F6ED"/>
<path d="M284.24 273.033C284.24 276.295 283.295 278.664 281.407 280.141C279.552 281.618 276.564 282.356 272.444 282.356C268.185 282.356 265.163 281.652 263.377 280.244C261.592 278.802 260.699 276.398 260.699 273.033C260.699 271.006 261.162 269.307 262.09 267.933C263.051 266.559 264.408 265.632 266.159 265.151C264.476 264.602 263.223 263.709 262.399 262.473C261.609 261.202 261.231 259.588 261.265 257.63C261.265 254.643 262.158 252.462 263.944 251.088C265.73 249.715 268.563 249.028 272.444 249.028C276.496 249.028 279.38 249.68 281.098 250.985C282.815 252.29 283.673 254.505 283.673 257.63C283.673 259.588 283.261 261.202 282.437 262.473C281.647 263.709 280.428 264.602 278.779 265.151C280.531 265.632 281.87 266.559 282.797 267.933C283.759 269.307 284.24 271.006 284.24 273.033ZM276.564 258.815C276.564 257.648 276.255 256.823 275.637 256.343C275.019 255.828 273.955 255.57 272.444 255.57C270.967 255.57 269.919 255.81 269.301 256.291C268.683 256.772 268.374 257.613 268.374 258.815C268.374 260.086 268.683 260.996 269.301 261.545C269.919 262.06 270.967 262.318 272.444 262.318C273.92 262.318 274.968 262.06 275.586 261.545C276.238 260.996 276.564 260.086 276.564 258.815ZM276.771 271.951C276.771 270.749 276.444 269.89 275.792 269.375C275.139 268.86 274.023 268.603 272.444 268.603C270.898 268.603 269.799 268.86 269.147 269.375C268.494 269.856 268.168 270.714 268.168 271.951C268.168 273.256 268.477 274.183 269.095 274.732C269.748 275.282 270.864 275.557 272.444 275.557C274.023 275.557 275.139 275.282 275.792 274.732C276.444 274.183 276.771 273.256 276.771 271.951ZM313.326 265.666C313.326 271.779 312.381 276.089 310.493 278.596C308.604 281.103 305.221 282.356 300.345 282.356C297.323 282.356 294.953 282.013 293.236 281.326C291.553 280.639 290.266 279.506 289.373 277.926C288.652 276.69 288.119 275.093 287.776 273.136C287.467 271.178 287.312 268.688 287.312 265.666C287.312 259.588 288.257 255.295 290.145 252.788C292.069 250.281 295.468 249.028 300.345 249.028C303.367 249.028 305.719 249.371 307.402 250.058C309.119 250.745 310.424 251.878 311.317 253.458C312.004 254.66 312.502 256.24 312.811 258.197C313.154 260.155 313.326 262.644 313.326 265.666ZM305.238 265.666C305.238 261.751 304.929 259.21 304.311 258.043C303.727 256.841 302.405 256.24 300.345 256.24C298.284 256.24 296.945 256.841 296.327 258.043C295.709 259.245 295.4 261.786 295.4 265.666C295.4 269.444 295.709 271.934 296.327 273.136C296.945 274.303 298.284 274.887 300.345 274.887C302.405 274.887 303.727 274.303 304.311 273.136C304.929 271.968 305.238 269.478 305.238 265.666ZM342.553 265.666C342.553 271.779 341.608 276.089 339.72 278.596C337.831 281.103 334.448 282.356 329.572 282.356C326.55 282.356 324.18 282.013 322.463 281.326C320.78 280.639 319.493 279.506 318.6 277.926C317.879 276.69 317.346 275.093 317.003 273.136C316.694 271.178 316.539 268.688 316.539 265.666C316.539 259.588 317.484 255.295 319.372 252.788C321.296 250.281 324.695 249.028 329.572 249.028C332.594 249.028 334.946 249.371 336.629 250.058C338.346 250.745 339.651 251.878 340.544 253.458C341.231 254.66 341.729 256.24 342.038 258.197C342.381 260.155 342.553 262.644 342.553 265.666ZM334.465 265.666C334.465 261.751 334.156 259.21 333.538 258.043C332.954 256.841 331.632 256.24 329.572 256.24C327.511 256.24 326.172 256.841 325.554 258.043C324.936 259.245 324.627 261.786 324.627 265.666C324.627 269.444 324.936 271.934 325.554 273.136C326.172 274.303 327.511 274.887 329.572 274.887C331.632 274.887 332.954 274.303 333.538 273.136C334.156 271.968 334.465 269.478 334.465 265.666ZM371.78 265.666C371.78 271.779 370.835 276.089 368.947 278.596C367.058 281.103 363.675 282.356 358.799 282.356C355.777 282.356 353.407 282.013 351.69 281.326C350.007 280.639 348.72 279.506 347.827 277.926C347.106 276.69 346.573 275.093 346.23 273.136C345.921 271.178 345.766 268.688 345.766 265.666C345.766 259.588 346.711 255.295 348.599 252.788C350.523 250.281 353.922 249.028 358.799 249.028C361.821 249.028 364.173 249.371 365.856 250.058C367.573 250.745 368.878 251.878 369.771 253.458C370.458 254.66 370.956 256.24 371.265 258.197C371.608 260.155 371.78 262.644 371.78 265.666ZM363.692 265.666C363.692 261.751 363.383 259.21 362.765 258.043C362.181 256.841 360.859 256.24 358.799 256.24C356.738 256.24 355.399 256.841 354.781 258.043C354.163 259.245 353.854 261.786 353.854 265.666C353.854 269.444 354.163 271.934 354.781 273.136C355.399 274.303 356.738 274.887 358.799 274.887C360.859 274.887 362.181 274.303 362.765 273.136C363.383 271.968 363.692 269.478 363.692 265.666Z" fill="white"/>
<path d="M355.328 148.841H347.344V123.652L339.669 124.527V117.831L355.328 116.028V148.841ZM370.842 116.028C375.409 116.028 378.568 117.178 380.32 119.479C382.071 121.78 382.947 125.901 382.947 131.842C382.947 137.886 381.711 142.316 379.238 145.132C376.766 147.948 372.902 149.356 367.648 149.356C366.618 149.356 365.553 149.305 364.454 149.202C363.355 149.133 362.565 149.03 362.085 148.893V142.145C362.703 142.213 363.493 142.282 364.454 142.351C365.416 142.385 366.48 142.402 367.648 142.402C370.018 142.402 371.7 141.956 372.696 141.063C373.726 140.17 374.396 138.573 374.705 136.272C373.469 136.89 372.318 137.337 371.254 137.611C370.189 137.852 369.09 137.972 367.957 137.972C365.004 137.972 362.806 137.114 361.364 135.396C359.921 133.679 359.2 131.069 359.2 127.567C359.2 123.926 360.213 121.093 362.239 119.067C364.3 117.041 367.167 116.028 370.842 116.028ZM370.842 123.034C369.537 123.034 368.558 123.377 367.906 124.064C367.287 124.716 366.978 125.747 366.978 127.155C366.978 128.769 367.219 129.868 367.699 130.451C368.215 131.035 369.211 131.327 370.687 131.327C371.546 131.327 372.318 131.258 373.005 131.121C373.726 130.949 374.379 130.709 374.963 130.4C374.928 127.343 374.636 125.352 374.087 124.424C373.572 123.497 372.49 123.034 370.842 123.034ZM412.089 132.666C412.089 138.779 411.145 143.089 409.256 145.596C407.368 148.103 403.985 149.356 399.108 149.356C396.086 149.356 393.717 149.013 392 148.326C390.317 147.639 389.029 146.506 388.136 144.926C387.415 143.69 386.883 142.093 386.54 140.136C386.23 138.178 386.076 135.688 386.076 132.666C386.076 126.588 387.02 122.295 388.909 119.788C390.832 117.281 394.232 116.028 399.108 116.028C402.13 116.028 404.483 116.371 406.166 117.058C407.883 117.745 409.188 118.878 410.081 120.458C410.767 121.66 411.265 123.24 411.574 125.197C411.918 127.155 412.089 129.644 412.089 132.666ZM404.002 132.666C404.002 128.751 403.693 126.21 403.075 125.043C402.491 123.841 401.169 123.24 399.108 123.24C397.048 123.24 395.709 123.841 395.091 125.043C394.472 126.245 394.163 128.786 394.163 132.666C394.163 136.444 394.472 138.934 395.091 140.136C395.709 141.303 397.048 141.887 399.108 141.887C401.169 141.887 402.491 141.303 403.075 140.136C403.693 138.968 404.002 136.478 404.002 132.666ZM441.316 132.666C441.316 138.779 440.372 143.089 438.483 145.596C436.595 148.103 433.212 149.356 428.335 149.356C425.313 149.356 422.944 149.013 421.227 148.326C419.544 147.639 418.256 146.506 417.363 144.926C416.642 143.69 416.11 142.093 415.767 140.136C415.457 138.178 415.303 135.688 415.303 132.666C415.303 126.588 416.247 122.295 418.136 119.788C420.059 117.281 423.459 116.028 428.335 116.028C431.357 116.028 433.71 116.371 435.393 117.058C437.11 117.745 438.415 118.878 439.307 120.458C439.994 121.66 440.492 123.24 440.801 125.197C441.145 127.155 441.316 129.644 441.316 132.666ZM433.229 132.666C433.229 128.751 432.92 126.21 432.302 125.043C431.718 123.841 430.396 123.24 428.335 123.24C426.275 123.24 424.936 123.841 424.318 125.043C423.699 126.245 423.39 128.786 423.39 132.666C423.39 136.444 423.699 138.934 424.318 140.136C424.936 141.303 426.275 141.887 428.335 141.887C430.396 141.887 431.718 141.303 432.302 140.136C432.92 138.968 433.229 136.478 433.229 132.666Z" fill="white"/>
<path d="M301.311 301.741C301.311 301.823 301.311 301.823 301.311 301.823V302.478V302.56C301.311 302.642 301.229 302.642 301.148 302.642H298.362V306H293.857C293.038 306 292.382 305.836 291.727 305.59C291.072 305.344 290.58 304.935 290.17 304.362C289.761 303.788 289.597 303.133 289.597 302.396V297.973H290.662V302.396C290.662 303.133 290.908 303.706 291.481 304.198C292.055 304.689 292.792 304.935 293.857 304.935H297.215V288.227H298.28V301.577H301.066C301.229 301.741 301.229 301.741 301.311 301.741Z" fill="#F7F6ED"/>
<path d="M306.39 300.103C306.636 300.594 307.046 300.922 307.619 301.249C308.192 301.577 308.93 301.659 309.749 301.659C309.831 301.659 309.913 301.659 309.913 301.741C309.913 301.823 309.913 301.823 309.913 301.823V302.478V302.56C309.913 302.56 309.831 302.642 309.749 302.642C308.848 302.642 308.029 302.478 307.455 302.232C306.8 301.986 306.308 301.577 305.899 301.004C305.571 301.495 305.161 301.905 304.588 302.232C304.097 302.56 303.441 302.642 302.786 302.642H301.066C300.984 302.642 300.902 302.642 300.902 302.56C300.902 302.478 300.902 302.478 300.902 302.478V301.823V301.741C300.902 301.659 300.984 301.659 301.066 301.659H302.786C303.605 301.659 304.178 301.413 304.67 300.922C305.161 300.43 305.407 299.775 305.407 299.038V293.796H306.472V299.038C306.554 299.366 306.554 299.775 306.39 300.103ZM303.032 306.819V305.181H304.26V306.819H303.032ZM306.39 306.819V305.181H307.619V306.819H306.39Z" fill="#F7F6ED"/>
<path d="M317.121 294.288C317.859 294.697 318.432 295.271 318.76 296.008C319.169 296.745 319.333 297.482 319.333 298.219C319.333 298.956 319.169 299.693 318.842 300.348C319.088 300.758 319.415 301.086 319.825 301.413C320.234 301.659 320.808 301.823 321.381 301.823C321.463 301.823 321.545 301.823 321.545 301.905C321.545 301.986 321.545 301.986 321.545 301.986V302.642V302.724C321.545 302.724 321.463 302.805 321.381 302.805C320.07 302.805 319.087 302.232 318.268 301.167C317.859 301.659 317.367 302.068 316.794 302.314C316.22 302.56 315.565 302.724 314.828 302.724H309.749C309.667 302.724 309.585 302.724 309.585 302.642C309.585 302.56 309.585 302.56 309.585 302.56V301.905V301.823C309.585 301.741 309.667 301.741 309.749 301.741H311.469V294.042C312.698 293.796 313.681 293.633 314.5 293.633C315.565 293.633 316.384 293.796 317.121 294.288ZM312.616 294.861V301.659H314.828C315.893 301.659 316.794 301.331 317.367 300.758C317.941 300.185 318.268 299.284 318.268 298.219C318.268 297.564 318.104 296.991 317.859 296.499C317.613 295.926 317.121 295.516 316.548 295.189C315.975 294.861 315.319 294.697 314.5 294.697C313.845 294.615 313.189 294.697 312.616 294.861Z" fill="#F7F6ED"/>
<path d="M329.245 293.796C329.737 293.96 330.31 294.206 331.048 294.452L330.638 295.434C329.491 294.861 328.508 294.615 327.689 294.615C327.034 294.615 326.542 294.779 325.969 295.025C325.477 295.271 324.986 295.68 324.658 296.171C324.33 296.663 324.166 297.318 324.166 298.137C324.166 299.529 324.74 300.676 325.805 301.659H331.621L331.375 302.724H321.463C321.381 302.724 321.299 302.724 321.299 302.642C321.299 302.56 321.299 302.56 321.299 302.56V301.905V301.823C321.299 301.741 321.381 301.741 321.463 301.741H324.412C323.511 300.676 323.101 299.448 323.101 298.219C323.101 297.4 323.265 296.663 323.675 295.926C324.085 295.189 324.576 294.697 325.313 294.288C325.969 293.878 326.788 293.633 327.689 293.633C328.18 293.633 328.672 293.633 329.245 293.796Z" fill="#F7F6ED"/>
<path d="M375.611 100.755C375.611 100.837 375.611 100.837 375.611 100.837V101.493V101.575C375.611 101.656 375.529 101.656 375.447 101.656H372.58V105.014H368.075C367.255 105.014 366.6 104.851 365.945 104.605C365.289 104.359 364.798 103.95 364.388 103.376C363.979 102.803 363.815 102.148 363.815 101.411V96.988H364.88V101.411C364.88 102.148 365.125 102.721 365.699 103.213C366.272 103.704 367.01 103.95 368.075 103.95H371.433V92.8111H372.498V100.755H375.365C375.529 100.755 375.611 100.755 375.611 100.755ZM367.419 92.4835V90.8455H368.648V92.4835H367.419Z" fill="white"/>
<path d="M382.902 93.3024C383.639 93.7119 384.13 94.2852 384.458 95.0223C384.786 95.7594 384.95 96.4965 384.95 97.3156C384.95 98.0527 384.868 98.7898 384.622 99.6088C384.376 100.428 384.13 101.165 383.803 101.82H375.447C375.365 101.82 375.283 101.82 375.283 101.738C375.283 101.656 375.283 101.656 375.283 101.656V101.001V100.919C375.283 100.837 375.365 100.837 375.447 100.837H377.167V93.1386C378.396 92.8929 379.379 92.7291 380.198 92.7291C381.263 92.6472 382.164 92.811 382.902 93.3024ZM378.314 93.8757V100.674H383.147C383.639 99.6088 383.885 98.4622 383.885 97.2337C383.885 96.2508 383.557 95.4318 382.984 94.6947C382.41 93.9576 381.427 93.63 380.116 93.63C379.543 93.7119 378.888 93.7119 378.314 93.8757Z" fill="white"/>
<path d="M397.319 100.755C397.319 100.837 397.319 100.837 397.319 100.837V101.493V101.574C397.319 101.656 397.237 101.656 397.155 101.656C396.172 101.656 395.435 101.329 394.862 100.592V101.902C394.862 103.049 394.616 103.95 394.043 104.605C393.469 105.26 392.65 105.751 391.585 105.997L391.094 105.014C391.995 104.932 392.65 104.605 393.06 104.113C393.469 103.622 393.715 102.885 393.715 101.984V92.811H394.78V98.9536C395.271 100.1 396.009 100.755 397.074 100.755C397.237 100.755 397.319 100.755 397.319 100.755Z" fill="white"/>
<path d="M402.398 99.1175C402.644 99.6089 403.054 99.9365 403.627 100.264C404.2 100.592 404.938 100.674 405.757 100.674C405.839 100.674 405.921 100.674 405.921 100.755C405.921 100.837 405.921 100.837 405.921 100.837V101.493V101.575C405.921 101.656 405.839 101.656 405.757 101.656C404.856 101.656 404.037 101.493 403.463 101.247C402.89 101.001 402.316 100.592 401.907 100.018C401.579 100.51 401.169 100.919 400.596 101.247C400.104 101.574 399.449 101.656 398.794 101.656H397.074C396.992 101.656 396.91 101.656 396.91 101.575C396.91 101.493 396.91 101.493 396.91 101.493V100.837V100.755C396.91 100.674 396.992 100.674 397.074 100.674H398.794C399.613 100.674 400.186 100.428 400.678 99.9365C401.169 99.4451 401.415 98.7899 401.415 98.0527V92.8111H402.48V98.0527C402.644 98.3803 402.562 98.7899 402.398 99.1175ZM399.613 90.8455V89.2074H400.842V90.8455H399.613ZM401.333 87.6513V86.0133H402.562V87.6513H401.333ZM403.054 90.8455V89.2074H404.282V90.8455H403.054Z" fill="white"/>
<path d="M412.31 93.5482C413.949 93.5482 415.095 93.9577 415.915 94.6948C416.734 95.4319 417.062 96.4967 417.062 97.7252C417.062 98.7899 416.652 100.182 415.915 101.82H405.839C405.757 101.82 405.675 101.82 405.675 101.738C405.675 101.656 405.675 101.656 405.675 101.656V101.001V100.919C405.675 100.837 405.757 100.837 405.839 100.837H415.259C415.423 100.428 415.669 99.9365 415.751 99.4451C415.915 98.8718 415.997 98.3804 415.997 97.889C415.997 96.9881 415.751 96.251 415.177 95.6777C414.604 95.1043 413.621 94.7767 412.31 94.7767H407.313L406.822 93.712L412.474 87.4875H413.867L408.051 93.712H412.31V93.5482Z" fill="white"/>
<path d="M420.338 101.738V87.3237H421.403V101.738H420.338Z" fill="white"/>
<path d="M372.826 160.298C373.317 160.461 373.891 160.707 374.628 160.953L374.219 161.936C373.072 161.362 372.089 161.117 371.27 161.117C370.614 161.117 370.123 161.281 369.549 161.526C369.058 161.772 368.566 162.181 368.239 162.673C367.911 163.164 367.747 163.819 367.747 164.638C367.747 165.785 368.157 166.85 368.894 167.669C369.549 167.423 370.205 167.259 371.024 167.177C371.843 167.095 373.154 167.014 374.956 167.014L374.71 168.078C373.481 168.078 372.58 168.078 371.925 168.078C371.269 168.078 370.696 168.16 370.123 168.324C369.549 168.406 369.058 168.652 368.566 168.897C367.583 169.471 367.092 170.29 367.092 171.436C367.092 172.091 367.337 172.829 367.829 173.484H366.6C366.436 173.238 366.272 172.829 366.191 172.501C366.027 172.091 366.027 171.682 366.027 171.354C366.027 170.617 366.191 169.962 366.6 169.389C367.01 168.815 367.419 168.324 368.075 167.996C367.174 166.85 366.764 165.703 366.764 164.475C366.764 163.656 366.928 162.919 367.337 162.181C367.747 161.444 368.239 160.953 368.976 160.543C369.713 160.134 370.45 159.888 371.351 159.888C371.761 160.134 372.334 160.134 372.826 160.298Z" fill="white"/>
<path d="M384.049 160.379L384.704 160.543V169.552C384.704 171.846 383.393 173.238 380.69 173.729L380.199 172.747C381.345 172.583 382.165 172.255 382.738 171.764C383.311 171.272 383.557 170.617 383.557 169.716V161.526C382.738 161.362 382.165 161.28 381.591 161.28C380.854 161.28 380.199 161.444 379.707 161.772C379.216 162.099 378.806 162.591 378.56 163.164C378.315 163.737 378.151 164.311 378.151 164.966C378.151 165.539 378.315 166.031 378.56 166.604C378.806 167.095 379.216 167.505 379.707 167.832C380.199 168.16 380.772 168.324 381.509 168.324H382.902L382.41 169.389H381.591C380.608 169.389 379.789 169.143 379.134 168.733C378.478 168.324 377.987 167.751 377.577 167.095C377.25 166.44 377.086 165.703 377.086 164.884C377.086 164.065 377.25 163.328 377.659 162.673C377.987 161.936 378.56 161.362 379.216 160.953C379.953 160.543 380.772 160.298 381.755 160.298C382.328 160.134 383.066 160.216 384.049 160.379Z" fill="white"/>
<path d="M392.404 168.242C392.404 168.324 392.404 168.324 392.404 168.324V168.979C392.404 168.979 392.404 169.061 392.404 169.143C392.404 169.225 392.322 169.225 392.24 169.225C391.257 169.225 390.52 168.897 389.947 168.16V169.471C389.947 170.617 389.701 171.518 389.128 172.173C388.554 172.828 387.735 173.32 386.67 173.566L386.179 172.583C387.08 172.501 387.735 172.173 388.145 171.682C388.554 171.19 388.8 170.453 388.8 169.552V160.298H389.865V166.44C390.356 167.587 391.094 168.242 392.159 168.242C392.322 168.16 392.322 168.242 392.404 168.242Z" fill="white"/>
<path d="M407.887 166.686C408.051 167.177 408.378 167.505 408.87 167.751C409.28 167.996 409.853 168.16 410.508 168.16C410.59 168.16 410.672 168.16 410.672 168.242C410.672 168.324 410.672 168.324 410.672 168.324V168.979C410.672 168.979 410.672 169.061 410.672 169.143C410.672 169.225 410.59 169.225 410.508 169.225C409.198 169.225 408.215 168.651 407.477 167.587C406.74 168.651 405.757 169.225 404.528 169.225C403.136 169.225 401.989 168.57 401.17 167.177C400.842 167.751 400.432 168.242 399.859 168.651C399.286 169.061 398.63 169.225 397.893 169.225H392.241C392.159 169.225 392.077 169.225 392.077 169.143C392.077 169.061 392.077 169.061 392.077 168.979V168.324V168.242C392.077 168.16 392.159 168.16 392.241 168.16H394.862V160.216H395.927V168.16H397.729C398.548 168.16 399.122 167.914 399.613 167.423C400.105 166.932 400.35 166.276 400.35 165.539V160.298H401.415V165.539C401.415 165.949 401.579 166.358 401.825 166.768C402.071 167.177 402.48 167.505 402.89 167.751C403.299 167.996 403.791 168.16 404.282 168.16C405.102 168.16 405.675 167.914 406.167 167.423C406.658 166.932 406.822 166.276 406.822 165.539V159.479H407.887V165.539C408.133 165.949 408.051 166.276 407.887 166.686ZM398.794 158.332V156.694H400.023V158.332H398.794ZM400.514 155.138V153.5H401.743V155.138H400.514ZM402.235 158.332V156.694H403.463V158.332H402.235Z" fill="white"/>
<path d="M417.963 160.707C418.7 161.116 419.192 161.69 419.519 162.427C419.847 163.164 420.011 163.901 420.011 164.72C420.011 165.457 419.929 166.194 419.683 167.013C419.437 167.832 419.192 168.569 418.864 169.225H410.508C410.426 169.225 410.344 169.225 410.344 169.143C410.344 169.061 410.344 169.061 410.344 168.979V168.324V168.242C410.344 168.16 410.426 168.16 410.508 168.16H412.229V160.461C413.457 160.216 414.44 160.052 415.26 160.052C416.324 160.134 417.226 160.297 417.963 160.707ZM413.375 161.362V168.16H418.209C418.7 167.095 418.946 165.949 418.946 164.72C418.946 163.737 418.618 162.918 418.045 162.181C417.471 161.444 416.488 161.116 415.178 161.116C414.604 161.116 413.949 161.198 413.375 161.362Z" fill="white"/>
<path d="M608.668 273.239L624.887 257.023L606.62 238.759L611.781 233.599L596.134 217.956L590.973 223.116L572.624 204.77L556.404 220.986V230.405L569.265 243.345L568.282 250.962L554.438 264.803L557.059 267.424L570.002 254.484L575.245 259.725L549.113 285.852L543.871 280.61L549.195 275.287L546.574 272.666L541.249 277.989L538.628 275.368L499.061 314.927L514.708 330.57L554.274 291.012L551.653 288.391L578.604 261.445L586.058 260.299L599.083 273.239H608.668ZM609.159 251.781L604.162 246.785L604.654 242.117L611.781 249.242L609.159 251.781ZM596.134 223.116L606.538 233.517L603.998 236.056L593.595 225.655L596.134 223.116ZM587.451 224.836L582.782 225.327L577.948 220.495L580.57 217.874L587.451 224.836ZM560.09 228.849V222.542L572.624 210.011L577.948 215.335L562.22 231.06L560.09 228.849ZM514.79 325.328L504.386 314.927L538.792 280.528L549.195 290.93L514.79 325.328ZM578.522 257.678L571.968 251.126L572.542 246.621L582.945 257.023L578.522 257.678ZM601.377 259.562L596.052 264.885L564.76 233.599L575.245 223.116L581.307 229.176L590.728 228.112L601.295 238.677L600.23 248.095L606.538 254.402L603.916 257.023L606.538 259.643L614.402 251.781L619.645 257.023L607.111 269.553H600.804L598.756 267.506L604.08 262.182L601.377 259.562Z" fill="#2E1A09"/>
<path d="M549.277 269.963L551.899 267.342L554.52 269.963L551.899 272.584L549.277 269.963Z" fill="#2E1A09"/>
<path d="M536.252 288.227L538.874 285.606L541.495 288.227L538.874 290.848L536.252 288.227Z" fill="#2E1A09"/>
<path d="M531.009 293.469L533.631 290.848L536.252 293.469L533.631 296.09L531.009 293.469Z" fill="#2E1A09"/>
<path d="M572.542 230.896L575.163 228.275L577.785 230.896L575.163 233.517L572.542 230.896Z" fill="#2E1A09"/>
<path d="M577.867 236.22L580.488 233.599L583.109 236.22L580.488 238.841L577.867 236.22Z" fill="#2E1A09"/>
<path d="M609.569 282.166H605.883V285.852H602.196V289.537H605.883V293.223H609.569V289.537H613.255V285.852H609.569V282.166Z" fill="#2E1A09"/>
<path d="M543.215 219.512H546.902V215.826H550.588V212.141H546.902V208.455H543.215V212.141H539.529V215.826H543.215V219.512Z" fill="#2E1A09"/>
<path d="M167.457 176.35H171.144V180.036H167.457V176.35Z" fill="#A1A1A1"/>
<path d="M199.815 171.354C188.756 161.117 182.366 146.538 182.366 131.387V87.5695H134.281C138.868 84.1296 141.489 78.8061 141.653 73.073C141.735 70.5341 141.653 67.9132 141.653 65.3743C136.984 65.3743 132.069 64.8829 127.563 66.6028C120.764 69.2236 116.013 75.9395 115.767 83.2287L110.115 77.5776C110.115 74.7929 110.279 71.9264 109.787 69.1418C108.886 64.801 106.428 60.8697 102.906 58.167C97.3355 53.9082 90.864 54.3177 84.2287 54.3177C84.2287 60.9516 83.7371 67.4218 88.0788 72.9911C90.7002 76.4309 94.5503 78.888 98.81 79.7889C101.677 80.4441 104.626 80.1984 107.493 80.1984L114.866 87.5695H93.5673V109.601H97.2536V91.255H145.339V124.425H149.026V91.255H178.598V131.387C178.598 147.439 185.315 162.918 197.112 173.893V176.268H184.988C178.107 166.44 174.748 154.81 174.748 142.853H171.062C171.062 154.728 174.093 166.194 180.482 176.268H174.748V179.954H200.798V172.255L199.815 171.354ZM106.428 76.5128C101.104 76.5128 96.2706 76.1852 92.2566 72.1721C88.2426 68.1589 87.915 63.3268 87.915 58.0032C93.2396 58.0032 98.0728 58.3308 102.087 62.344C106.019 66.3571 106.428 71.1893 106.428 76.5128ZM120.109 87.5695L119.453 86.9143C119.453 81.6726 120.109 76.8404 124.205 72.9911C128.137 69.3055 132.888 69.0598 137.967 69.0598C137.967 74.1377 137.721 78.888 134.035 82.8192C130.185 86.9143 125.351 87.5695 120.109 87.5695Z" fill="#A1A1A1"/>
<path d="M108.394 94.8586H112.081V98.5442H108.394V94.8586Z" fill="#A1A1A1"/>
<path d="M108.394 102.23H112.081V131.796H108.394V102.23Z" fill="#A1A1A1"/>
<path d="M123.14 113.368H126.826V160.543H123.14V113.368Z" fill="#A1A1A1"/>
<path d="M145.339 128.11H149.026V131.796H145.339V128.11Z" fill="#A1A1A1"/>
<path d="M149.026 146.62H145.339V176.35H95.2057C101.595 166.276 104.626 154.81 104.626 142.935H100.94C100.94 154.892 97.6632 166.44 90.7002 176.35H78.8221V173.566C90.6182 162.591 97.3355 147.112 97.3355 131.059V113.368H93.5673V131.059C93.5673 146.374 87.0139 161.117 75.7092 171.436L75.1357 172.009V180.118H163.771V176.35H149.108V146.62H149.026Z" fill="#A1A1A1"/>
<path d="M160.167 98.5442H163.853V142.935H160.167V98.5442Z" fill="#A1A1A1"/>
<path d="M92.7481 65.4562L95.3695 62.8353L97.9909 65.4562L95.3695 68.077L92.7481 65.4562Z" fill="#A1A1A1"/>
<path d="M127.809 76.3491L130.43 73.7283L133.052 76.3491L130.43 78.9699L127.809 76.3491Z" fill="#A1A1A1"/>
</svg>
