<svg width="97" height="97" viewBox="0 0 97 97" fill="none" xmlns="http://www.w3.org/2000/svg">
<path d="M71.4287 94H74.2365V96.8H71.4287V94Z" fill="#C39B69"/>
<path d="M48.5649 0L0.230103 27.2V37.2H3.43907L11.7623 32.6V96.9H68.6209V94.1H14.4698V91.4H82.8606V94.1H77.0444V96.9H85.6684V32.6L93.4902 37L93.7911 37.2H97V27.2L48.5649 0ZM14.4698 40.1H28.7096V45.7H14.4698V40.1ZM14.4698 48.6H28.7096V54.2H14.4698V48.6ZM14.4698 57H28.7096V62.8H14.4698V57ZM14.4698 65.6H28.7096V71.2H14.4698V65.6ZM14.4698 74.1H28.7096V79.9H14.4698V74.1ZM14.4698 82.7H28.7096V88.4H14.4698V82.7ZM60.0971 88.4H37.3336V45.7H60.0971V88.4ZM68.7211 88.4V82.7H82.9609V88.4H68.7211ZM68.7211 79.8V74H82.9609V79.8H68.7211ZM68.7211 71.2V65.6H82.9609V71.2H68.7211ZM68.7211 62.8V57H82.9609V62.8H68.7211ZM68.7211 54.2V48.6H82.9609V54.2H68.7211ZM68.7211 45.7V40.1H82.9609V45.7H68.7211ZM68.7211 37.3L60.0971 37.2V40H65.9133V88.3H63.1055V42.9H34.626V88.4H31.8182V40.1H57.3895V37.3H29.0104V37.4H14.4698V34.5H82.8606V37.4H68.7211V37.3ZM94.2925 34L48.6652 8.59999L28.0076 20.1L29.4115 22.6L48.7655 11.9L83.9637 31.5H13.467L26.6037 24.2L25.1998 21.7L2.93767 34V28.7L48.4647 3.09999L94.2925 28.7V34Z" fill="#C39B69"/>
<path d="M41.4452 23H44.253V25.8H41.4452V23Z" fill="#C39B69"/>
<path d="M52.877 23H55.6848V25.8H52.877V23Z" fill="#C39B69"/>
<path d="M47.161 23H49.9689V25.8H47.161V23Z" fill="#C39B69"/>
<path d="M54.3811 65.6001H57.1889V68.4001H54.3811V65.6001Z" fill="#C39B69"/>
</svg>
