<svg width="33" height="31" viewBox="0 0 33 31" fill="none" xmlns="http://www.w3.org/2000/svg">
<path d="M16.2994 9.52198C14.6898 9.53108 13.1496 10.1488 12.0176 11.2391C10.8856 12.3295 10.2545 13.8033 10.2631 15.3362C10.2718 16.8691 10.9195 18.3356 12.0638 19.4131C13.208 20.4907 14.7551 21.0909 16.3647 21.0818C17.9743 21.0727 19.5145 20.455 20.6465 19.3647C21.7785 18.2743 22.4096 16.8005 22.4009 15.2676C22.3923 13.7347 21.7446 12.2681 20.6003 11.1906C19.456 10.1131 17.9089 9.51289 16.2994 9.52198ZM16.3532 19.0556C15.3076 19.0615 14.3025 18.6715 13.5591 17.9715C12.8157 17.2715 12.395 16.3188 12.3893 15.3229C12.3837 14.327 12.7937 13.3696 13.5291 12.6612C14.2645 11.9529 15.2651 11.5516 16.3108 11.5457C17.3565 11.5398 18.3615 11.9297 19.1049 12.6297C19.8483 13.3298 20.2691 14.2825 20.2747 15.2784C20.2803 16.2742 19.8703 17.2317 19.1349 17.94C18.3995 18.6484 17.3989 19.0497 16.3532 19.0556Z" fill="white"/>
<path d="M22.6148 10.6213C23.3962 10.6169 24.0262 10.01 24.022 9.26582C24.0178 8.52162 23.3809 7.92192 22.5995 7.92633C21.8181 7.93075 21.1881 8.53761 21.1923 9.2818C21.1965 10.026 21.8334 10.6257 22.6148 10.6213Z" fill="white"/>
<path d="M27.4911 7.87621C27.183 7.13066 26.7149 6.45467 26.1166 5.89152C25.5183 5.32836 24.8031 4.89044 24.0167 4.60579C23.0966 4.28268 22.1255 4.11064 21.1447 4.09701C19.8805 4.05165 19.4801 4.03891 16.275 4.05702C13.0699 4.07513 12.6591 4.07745 11.4061 4.15203C10.4263 4.17577 9.45786 4.3588 8.54262 4.69322C7.7593 4.9864 7.0489 5.43226 6.45698 6.00219C5.86506 6.57211 5.40471 7.25352 5.10545 8.00269C4.76561 8.87914 4.58486 9.80421 4.57096 10.7383C4.52132 11.9411 4.50641 12.3224 4.52366 15.3761C4.54091 18.4285 4.54311 18.8173 4.62336 20.0131C4.64833 20.948 4.83861 21.8694 5.18874 22.7437C5.4973 23.4892 5.96577 24.1651 6.56423 24.7282C7.1627 25.2913 7.87799 25.7293 8.6644 26.0141C9.5817 26.3504 10.5526 26.5352 11.5353 26.5604C12.7996 26.6058 13.2 26.6197 16.405 26.6016C19.6101 26.5835 20.0209 26.5812 21.2739 26.5054C22.2544 26.4808 23.2235 26.2983 24.1401 25.9654C24.923 25.6712 25.633 25.2249 26.2248 24.6548C26.8166 24.0848 27.2772 23.4036 27.5772 22.6547C27.9175 21.7778 28.0973 20.8542 28.1117 19.9191C28.1614 18.7163 28.1763 18.335 28.159 15.2813C28.1417 12.2276 28.1396 11.8401 28.0593 10.6443C28.0387 9.69723 27.8464 8.76077 27.4911 7.87621ZM25.9598 19.8C25.9554 20.5205 25.8214 21.2349 25.5636 21.9123C25.3692 22.3995 25.0699 22.8426 24.685 23.2131C24.3001 23.5837 23.8381 23.8734 23.3287 24.0637C22.6282 24.3157 21.8876 24.4514 21.139 24.4649C19.8925 24.5269 19.5408 24.5426 16.3436 24.5607C13.1438 24.5788 12.817 24.5806 11.5461 24.5191C10.7979 24.5146 10.0561 24.3872 9.3534 24.1427C8.84007 23.9593 8.37293 23.6753 7.98221 23.3091C7.59149 22.9429 7.28588 22.5026 7.08516 22.0167C6.82341 21.3495 6.68144 20.645 6.66519 19.9328C6.60205 18.7457 6.58703 18.4107 6.56982 15.3658C6.55261 12.3196 6.55085 12.0083 6.61357 10.7967C6.61799 10.0767 6.75202 9.36269 7.00984 8.68569C7.40457 7.6972 8.22048 6.91633 9.2539 6.53298C9.95414 6.2817 10.6942 6.14604 11.4422 6.13186C12.6901 6.07106 13.0404 6.05408 16.239 6.03601C19.4375 6.01793 19.7656 6.01608 21.0351 6.07766C21.7838 6.082 22.5261 6.20932 23.2292 6.45402C23.7407 6.63897 24.2059 6.92376 24.5949 7.2901C24.984 7.65644 25.2883 8.09625 25.4882 8.58128C25.75 9.2485 25.892 9.95298 25.9082 10.6652C25.9714 11.8536 25.9877 12.1873 26.0049 15.2335C26.0221 18.2784 26.0239 18.6059 25.9743 19.8012L25.9598 19.8013L25.9598 19.8Z" fill="white"/>
</svg>
