<svg width="32" height="31" viewBox="0 0 32 31" fill="none" xmlns="http://www.w3.org/2000/svg">
<path fill-rule="evenodd" clip-rule="evenodd" d="M12.4363 12.127L17.3109 12.0994L17.324 14.4119C18.0186 13.0779 19.8126 11.8728 22.5176 11.8575C27.7032 11.8282 28.9493 14.4687 28.9767 19.3261L29.0276 28.3222L23.7776 28.3519L23.7331 20.462C23.7174 17.6958 23.0064 16.1398 21.2188 16.1499C18.7396 16.1639 17.7188 17.851 17.7337 20.4947L17.7783 28.3858L12.5284 28.4154L12.4363 12.127ZM3.52489 28.2538L8.7748 28.2242L8.68277 11.9357L3.43285 11.9653L3.52489 28.2538ZM9.40481 6.62026C9.40737 7.03934 9.32245 7.45478 9.15497 7.84242C8.98749 8.23006 8.7408 8.58218 8.42924 8.8783C7.79792 9.48266 6.94068 9.8238 6.04581 9.82679C5.15252 9.83126 4.29347 9.50068 3.65445 8.90653C3.34069 8.61294 3.09087 8.26324 2.91932 7.87746C2.74777 7.49168 2.65786 7.07742 2.65473 6.6584C2.64995 5.81216 2.99974 5.00017 3.63029 4.3991C4.262 3.79697 5.11762 3.45656 6.0111 3.45188C6.90621 3.44682 7.76647 3.77822 8.40378 4.37213C9.03977 4.96604 9.40003 5.77402 9.40481 6.62026Z" fill="white"/>
</svg>
