<svg width="194" height="40" viewBox="0 0 194 40" fill="none" xmlns="http://www.w3.org/2000/svg">
<mask id="mask0_368_600" style="mask-type:luminance" maskUnits="userSpaceOnUse" x="0" y="0" width="194" height="40">
<path d="M21.6205 33.4152H22.1948C22.634 33.4152 22.938 33.5165 23.1745 33.7192C23.4447 33.9219 23.5799 34.1922 23.5799 34.5976C23.5799 35.0705 23.411 35.4084 23.0394 35.611C22.8029 35.7462 22.5326 35.8137 22.1948 35.8137H21.6205V33.4152ZM20.9111 32.8071V38.9893H21.6205V36.3542H22.3299C22.4988 36.388 22.7353 36.6583 23.0394 37.1988L24.1204 38.9893H24.9312L23.8163 37.1312C23.4785 36.5569 23.2421 36.2191 23.0731 36.1516V36.1178C23.9177 35.8475 24.3231 35.307 24.3231 34.4962C24.3231 33.8881 24.0866 33.449 23.6136 33.1449C23.2758 32.9422 22.8029 32.8071 22.2286 32.8071H20.9111ZM30.4376 33.4152H30.9106C31.316 33.4152 31.62 33.4828 31.8227 33.6179C32.2281 33.8544 32.397 34.226 32.397 34.7665C32.397 35.3408 32.1943 35.7124 31.7551 35.9489C31.5187 36.084 31.2146 36.1516 30.843 36.1516H30.4376V33.4152ZM29.7282 32.8071V38.9893H30.4376V36.7258H30.843C31.3498 36.7258 31.7551 36.6583 32.093 36.4894C32.4308 36.3205 32.701 36.084 32.8699 35.78C33.0389 35.4759 33.1402 35.1381 33.1402 34.7665C33.1402 33.9895 32.8362 33.449 32.2619 33.1112C31.924 32.9085 31.4849 32.8409 30.9106 32.8409H29.7282V32.8071ZM38.2075 32.8071V38.9893H41.2479V38.415H38.8831V36.1516H40.9101V35.5773H38.8831V33.449H40.9439L41.1803 32.8747H38.2075V32.8071ZM50.7407 32.8071V36.7258C50.7407 37.2326 50.7407 37.6042 50.7744 37.8069H50.7407C50.4366 37.3677 50.1326 36.9623 49.8285 36.5569L46.9908 32.7733H46.3152V38.9555H47.0246V34.9016C47.0246 34.4962 47.0246 34.1584 46.9908 33.8544H47.0246C47.2949 34.2598 47.5989 34.6651 47.903 35.0367L50.8758 38.9555H51.4501V32.7733H50.7407V32.8071ZM56.1796 32.8071V33.3814H57.9362V38.9555H58.6457V33.3814H60.4023L60.6388 32.8071H56.1796ZM65.9088 33.4152H66.4831C66.9223 33.4152 67.2263 33.5165 67.4628 33.7192C67.733 33.9219 67.8682 34.1922 67.8682 34.5976C67.8682 35.0705 67.6993 35.4084 67.3277 35.611C67.0912 35.7462 66.7871 35.8137 66.4831 35.8137H65.9088V33.4152ZM65.1994 32.8071V38.9893H65.9088V36.3542H66.6182C66.7871 36.388 67.0236 36.6583 67.3277 37.1988L68.4087 38.9893H69.2195L68.1046 37.1312C67.7668 36.5569 67.5303 36.2191 67.3614 36.1516V36.1178C68.206 35.8475 68.6114 35.307 68.6114 34.4962C68.6114 33.8881 68.3749 33.449 67.902 33.1449C67.5641 32.9422 67.0912 32.8071 66.5169 32.8071H65.1994ZM77.3271 32.8071L75.7394 35.8475H75.7056L74.0841 32.8071H73.3071L75.334 36.5231V38.9893H76.0097V36.5231L78.0028 32.8071H77.3271ZM105.67 33.4152H106.414C107.292 33.4152 107.934 33.6517 108.373 34.0909C108.812 34.53 109.015 35.1381 109.015 35.8813C109.015 36.6583 108.812 37.2664 108.407 37.7393C108.001 38.2123 107.326 38.4487 106.447 38.4487H105.704V33.4152H105.67ZM104.995 32.8071V38.9893H106.447C107.528 38.9893 108.339 38.719 108.913 38.1109C109.488 37.5366 109.758 36.7934 109.758 35.8475C109.758 34.9354 109.488 34.1922 108.913 33.6179C108.373 33.0436 107.562 32.7733 106.481 32.7733H104.995V32.8071ZM115.264 32.8071V38.9893H118.305V38.415H115.974V36.1516H118.001V35.5773H115.974V33.449H118.035L118.271 32.8747H115.264V32.8071ZM144.182 33.4152H144.756C145.195 33.4152 145.499 33.5165 145.736 33.7192C146.006 33.9219 146.141 34.1922 146.141 34.5976C146.141 35.0705 145.972 35.4084 145.601 35.611C145.364 35.7462 145.06 35.8137 144.756 35.8137H144.182V33.4152ZM143.472 32.8071V38.9893H144.182V36.3542H144.891C145.06 36.388 145.297 36.6583 145.601 37.1988L146.682 38.9893H147.493L146.378 37.1312C146.04 36.5569 145.803 36.2191 145.635 36.1516V36.1178C146.479 35.8475 146.884 35.307 146.884 34.4962C146.884 33.8881 146.648 33.449 146.175 33.1449C145.837 32.9422 145.364 32.8071 144.79 32.8071H143.472ZM160.938 32.8071V33.3814H162.694V38.9555H163.404V33.3814H165.161L165.397 32.8071H160.938ZM169.958 38.9893H170.667V32.8071H169.958V38.9893ZM191.207 32.8071V36.7258C191.207 37.2326 191.207 37.6042 191.24 37.8069H191.207C190.902 37.3677 190.598 36.9623 190.294 36.5569L187.457 32.7733H186.781V38.9555H187.491V34.9016C187.491 34.4962 187.491 34.1584 187.457 33.8544H187.491C187.761 34.2598 188.065 34.6651 188.369 35.0367L191.342 38.9555H191.916V32.7733H191.207V32.8071ZM13.2088 34.9692C13.4115 34.4287 13.5128 34.0908 13.5804 33.8881H13.6142C13.7155 34.226 13.8506 34.5976 13.9858 34.9692L14.6276 36.7596H12.5669L13.2088 34.9692ZM13.3777 32.8071L11.0467 38.9893H11.7899L12.398 37.3339H14.8979L15.5059 38.9893H16.2492L13.8844 32.8071H13.3777ZM153.844 34.9692C154.046 34.4287 154.148 34.0908 154.215 33.8881H154.249C154.35 34.226 154.485 34.5976 154.621 34.9692L155.262 36.7596H153.202L153.844 34.9692ZM153.979 32.8071L151.648 38.9893H152.391L152.999 37.3339H155.499L156.107 38.9893H156.85L154.485 32.8071H153.979ZM2.93902 33.6855C2.36473 34.2935 2.09447 35.0705 2.09447 35.9826C2.09447 36.8948 2.36472 37.638 2.87145 38.2122C3.41197 38.7865 4.12139 39.0906 5.0335 39.0906C5.64158 39.0906 6.21588 38.9555 6.75639 38.6514L6.5537 38.1109C6.08075 38.3812 5.57402 38.4825 5.06729 38.4825C4.35787 38.4825 3.81735 38.246 3.41197 37.7731C3.00658 37.3001 2.8039 36.6921 2.8039 35.9151C2.8039 35.2057 3.00659 34.5976 3.44575 34.0909C3.88492 33.5841 4.45922 33.3476 5.13486 33.3476C5.67537 33.3476 6.1821 33.4828 6.65505 33.7192V33.0774C6.28345 32.8409 5.77672 32.7396 5.13486 32.7396C4.25652 32.7734 3.51332 33.0774 2.93902 33.6855ZM89.4549 38.1785C89.2184 37.942 89.1171 37.6717 89.1171 37.3339C89.1171 37.0637 89.1847 36.7934 89.3536 36.5907C89.5225 36.388 89.759 36.1853 90.1306 36.0164C90.6711 36.6583 91.2454 37.3001 91.8872 37.9082C91.3467 38.3136 90.84 38.5501 90.3333 38.5501C89.9616 38.5163 89.6576 38.3812 89.4549 38.1785ZM89.8941 34.5976C89.7927 34.4287 89.7252 34.226 89.7252 34.0571C89.7252 33.8544 89.7927 33.6855 89.9617 33.5503C90.0968 33.4152 90.3332 33.3138 90.6035 33.3138C90.9075 33.3138 91.1102 33.3814 91.2454 33.5503C91.3805 33.7192 91.4481 33.8882 91.4481 34.0909C91.4481 34.5638 91.1102 34.9692 90.4346 35.2732C90.1643 35.003 89.9954 34.8003 89.8941 34.5976ZM89.4211 33.1449C89.1171 33.3814 88.982 33.6855 88.982 34.0571C88.982 34.2598 89.0157 34.4287 89.0833 34.5976C89.1509 34.7665 89.2184 34.9016 89.3198 35.0367C89.4211 35.1381 89.5563 35.3408 89.7589 35.5773C88.8468 35.9826 88.3739 36.5907 88.3739 37.4015C88.3739 37.8744 88.5428 38.2798 88.8806 38.6176C89.2184 38.9555 89.6576 39.1244 90.2319 39.1244C90.9751 39.1244 91.6845 38.8541 92.3602 38.3136C92.9345 38.8203 93.4412 39.0906 93.8804 39.0906C94.0831 39.0906 94.2182 39.0568 94.3533 39.023L94.1844 38.4825C94.1169 38.5163 94.0493 38.5163 93.9817 38.5163C93.779 38.5163 93.6101 38.4825 93.4412 38.3812C93.2723 38.2798 93.0696 38.1109 92.8331 37.9082C93.2723 37.4353 93.6439 36.861 93.9142 36.1853L93.3061 36.0502C93.1034 36.5907 92.7994 37.0974 92.394 37.5366C91.8197 36.9961 91.2792 36.4218 90.8062 35.8475C91.2454 35.611 91.5832 35.3746 91.8197 35.1043C92.0561 34.8341 92.1575 34.53 92.1575 34.1922C92.1575 33.7868 92.0224 33.4828 91.7183 33.2463C91.4481 33.0098 91.0427 32.8747 90.5697 32.8747C90.0968 32.7733 89.7252 32.9085 89.4211 33.1449ZM123.98 33.6855C123.406 34.2935 123.136 35.0705 123.136 35.9826C123.136 36.8948 123.406 37.638 123.913 38.2122C124.453 38.7865 125.163 39.0906 126.075 39.0906C126.683 39.0906 127.257 38.9555 127.798 38.6514L127.595 38.1109C127.122 38.3812 126.615 38.4825 126.108 38.4825C125.399 38.4825 124.859 38.246 124.453 37.7731C124.048 37.3001 123.845 36.6921 123.845 35.9151C123.845 35.2057 124.048 34.5976 124.487 34.0909C124.926 33.5841 125.5 33.3476 126.176 33.3476C126.717 33.3476 127.223 33.4828 127.696 33.7192V33.0774C127.325 32.8409 126.818 32.7396 126.176 32.7396C125.264 32.7734 124.555 33.0774 123.98 33.6855ZM133.743 37.8069C133.338 37.3339 133.135 36.7259 133.135 35.9489C133.135 35.1719 133.338 34.5638 133.743 34.0909C134.149 33.6179 134.723 33.3814 135.399 33.3814C136.108 33.3814 136.682 33.6179 137.088 34.0909C137.493 34.5638 137.696 35.1719 137.696 35.9489C137.696 36.7259 137.493 37.3339 137.088 37.8069C136.682 38.2798 136.108 38.5163 135.432 38.5163C134.723 38.4825 134.149 38.246 133.743 37.8069ZM133.236 33.6517C132.662 34.226 132.392 35.003 132.392 35.9489C132.392 36.8948 132.662 37.638 133.236 38.246C133.811 38.8203 134.52 39.1244 135.399 39.1244C136.277 39.1244 136.986 38.8203 137.561 38.246C138.135 37.6717 138.405 36.8948 138.405 35.9489C138.405 35.0368 138.135 34.2598 137.561 33.6855C136.986 33.0774 136.277 32.8071 135.399 32.8071C134.52 32.8071 133.811 33.0774 133.236 33.6517ZM177.052 37.8069C176.646 37.3339 176.444 36.7259 176.444 35.9489C176.444 35.1719 176.646 34.5638 177.052 34.0909C177.457 33.6179 178.032 33.3814 178.707 33.3814C179.417 33.3814 179.991 33.6179 180.396 34.0909C180.802 34.5638 181.004 35.1719 181.004 35.9489C181.004 36.7259 180.802 37.3339 180.396 37.8069C179.991 38.2798 179.417 38.5163 178.741 38.5163C178.032 38.4825 177.491 38.246 177.052 37.8069ZM176.545 33.6517C175.971 34.226 175.701 35.003 175.701 35.9489C175.701 36.8948 175.971 37.638 176.545 38.246C177.119 38.8203 177.829 39.1244 178.707 39.1244C179.586 39.1244 180.295 38.8203 180.869 38.246C181.444 37.6717 181.714 36.8948 181.714 35.9489C181.714 35.0368 181.444 34.2598 180.869 33.6855C180.295 33.0774 179.586 32.8071 178.707 32.8071C177.829 32.8071 177.119 33.0774 176.545 33.6517ZM21.5529 1.45735L17.5667 15.2742L12.1277 1.45735H11.7224L6.21588 15.2742L2.29716 1.45735H0.371582L5.8105 20.6456H6.1821L11.9926 6.15307L17.668 20.6456H18.0396L23.5461 1.45735H21.5529ZM83.3404 3.31537H84.6917C87.4618 3.31537 89.4211 3.48429 90.6373 3.85589C92.2251 4.32884 93.475 5.24096 94.3871 6.55846C95.2654 7.87596 95.7384 9.46372 95.7384 11.288C95.7384 13.0446 95.333 14.531 94.4884 15.7472C93.6777 16.9633 92.5291 17.8079 91.0765 18.2808C90.063 18.6186 88.205 18.7876 85.57 18.7876H83.3404V3.31537ZM81.4824 1.45735V20.6456H87.5969C89.9954 20.6456 91.8534 20.3078 93.171 19.5983C94.4884 18.8889 95.5695 17.8417 96.414 16.3553C97.2586 14.9026 97.664 13.2135 97.664 11.288C97.664 9.05833 97.1572 7.13275 96.11 5.545C95.0628 3.92346 93.6101 2.80865 91.7521 2.16679C90.4684 1.69384 88.3739 1.49115 85.5024 1.49115H81.4824V1.45735ZM115.974 9.8353V3.34916H119.352C120.636 3.34916 121.582 3.45051 122.156 3.68698C122.73 3.92346 123.169 4.29505 123.541 4.83556C123.879 5.37607 124.048 5.95037 124.048 6.59223C124.048 7.26788 123.879 7.84217 123.541 8.38268C123.203 8.92319 122.73 9.2948 122.122 9.53128C121.514 9.76775 120.568 9.90287 119.251 9.90287L115.974 9.8353ZM114.082 1.45735V20.6456H116.008V11.7271H117.359C119.724 11.7271 121.379 11.6258 122.224 11.4231C123.406 11.1528 124.352 10.5785 125.027 9.73396C125.703 8.88941 126.041 7.84218 126.041 6.55846C126.041 5.27474 125.703 4.22749 124.994 3.38294C124.284 2.53838 123.406 1.99786 122.291 1.72761C121.514 1.52491 120.061 1.45735 117.866 1.45735H114.082ZM132.257 20.6118H134.182V1.42358H132.257V20.6118ZM141.277 1.45735V20.6456H152.188V18.7538H143.202V11.2204H152.188V9.32857H143.202V3.31537H152.29V1.42358H141.277V1.45735ZM182.626 1.45735V20.6456H193.537V18.7538H184.551V11.2204H193.537V9.32857H184.551V3.31537H193.605V1.42358H182.626V1.45735ZM33.2415 16.8958C31.6538 15.3418 30.8768 13.4162 30.8768 11.119C30.8768 9.56506 31.2484 8.17999 31.9578 6.93005C32.6672 5.68012 33.6469 4.66666 34.9306 3.95724C36.2144 3.21403 37.5319 2.84243 38.9507 2.84243C40.4033 2.84243 41.7546 3.21403 43.0383 3.95724C44.3221 4.70044 45.3355 5.68013 46.045 6.89628C46.7544 8.11244 47.126 9.49748 47.126 11.0177C47.126 12.5379 46.7544 13.9229 46.045 15.2067C45.3355 16.4566 44.3558 17.4363 43.0721 18.1795C41.8222 18.8889 40.4371 19.2605 38.9507 19.2605C36.7211 19.2267 34.8293 18.4497 33.2415 16.8958ZM33.8834 2.30191C32.3294 3.18024 31.1133 4.43018 30.2349 5.98416C29.3566 7.57192 28.8837 9.26103 28.8837 11.119C28.8837 13.8892 29.8633 16.2539 31.8227 18.1795C33.7821 20.1388 36.1806 21.0848 39.0183 21.0848C41.8222 21.0848 44.2207 20.1051 46.1463 18.1457C48.1057 16.1863 49.0853 13.8216 49.0853 11.0177C49.0853 8.17998 48.1057 5.81525 46.1463 3.85589C44.1869 1.93032 41.7546 0.950623 38.8494 0.950623C37.0927 0.950623 35.4374 1.42357 33.8834 2.30191ZM59.1186 16.8958C57.5309 15.3418 56.7539 13.4162 56.7539 11.119C56.7539 9.56506 57.1255 8.17999 57.8349 6.93005C58.5443 5.68012 59.524 4.66666 60.8077 3.95724C62.0914 3.21403 63.4089 2.84243 64.8278 2.84243C66.2804 2.84243 67.6317 3.21403 68.9154 3.95724C70.1991 4.70044 71.2126 5.68013 71.922 6.89628C72.6314 8.11244 72.9693 9.49748 72.9693 11.0177C72.9693 12.5379 72.6314 13.9229 71.922 15.2067C71.2126 16.4566 70.2329 17.4363 68.9492 18.1795C67.6655 18.8889 66.3142 19.2605 64.8278 19.2605C62.5982 19.2267 60.7064 18.4497 59.1186 16.8958ZM59.7605 2.30191C58.2065 3.18024 56.9903 4.43018 56.112 5.98416C55.2337 7.57192 54.7607 9.26103 54.7607 11.119C54.7607 13.8892 55.7404 16.2539 57.6998 18.1795C59.6591 20.1388 62.0577 21.0848 64.8953 21.0848C67.6993 21.0848 70.0978 20.1051 72.0234 18.1457C73.9827 16.1863 74.9624 13.8216 74.9624 11.0177C74.9624 8.17998 73.9827 5.81525 72.0234 3.85589C70.064 1.93032 67.6317 0.950623 64.7264 0.950623C62.9698 0.950623 61.2807 1.42357 59.7605 2.30191ZM160.296 3.8221C158.337 5.74768 157.357 8.11242 157.357 10.9163C157.357 13.5851 158.168 15.8485 159.789 17.7403C161.715 19.9699 164.384 21.0848 167.728 21.0848C169.485 21.0848 171.106 20.7469 172.525 20.1051C173.944 19.4294 175.16 18.4835 176.106 17.2674L174.586 16.1188C172.795 18.2133 170.532 19.2605 167.863 19.2605C165.431 19.2605 163.404 18.4835 161.782 16.9295C160.195 15.3756 159.384 13.4162 159.384 11.0852C159.384 9.53127 159.755 8.14622 160.465 6.89628C161.174 5.64634 162.188 4.66665 163.505 3.92344C164.823 3.18024 166.242 2.80864 167.762 2.80864C169.147 2.80864 170.431 3.07889 171.613 3.65319C172.795 4.22748 173.775 5.03825 174.62 6.11928L176.14 4.9707C175.228 3.68698 174.045 2.7073 172.593 1.99788C171.14 1.28846 169.518 0.950623 167.728 0.950623C164.721 0.950623 162.255 1.9303 160.296 3.8221Z" fill="white"/>
</mask>
<g mask="url(#mask0_368_600)">
<path d="M193.605 0.950623H0.371582V39.0906H193.605V0.950623Z" fill="#2E1A09"/>
</g>
</svg>
