<svg width="366" height="227" viewBox="0 0 366 227" fill="none" xmlns="http://www.w3.org/2000/svg">
<mask id="mask0_207_2401" style="mask-type:luminance" maskUnits="userSpaceOnUse" x="115" y="0" width="137" height="135">
<path d="M201.454 124.657C201.774 124.912 204.648 125.806 205.223 125.998C207.14 126.573 209.248 126.956 211.101 127.595C212.762 128.17 214.231 128.681 215.956 129.128C217.361 129.512 217.808 128.106 217.106 127.467C216.658 127.02 213.528 126.381 212.825 126.318C211.548 126.19 210.717 126.19 209.44 125.934C207.843 125.615 207.012 125.487 205.543 124.848C204.265 124.273 203.626 124.209 202.285 123.89C202.157 123.89 202.029 123.826 201.965 123.826C201.39 123.762 200.943 124.082 201.454 124.657ZM121.728 112.199C121.728 112.71 122.111 113.094 122.622 113.094C123.133 113.094 123.517 112.71 123.517 112.199C123.389 98.5922 122.878 84.0907 123.261 70.5475C125.114 76.8081 125.817 101.978 126.2 106.45C126.647 102.553 126.455 69.7809 123.197 68.1199C123.133 68.1199 123.07 68.0561 123.07 68.0561C120.45 68.0561 121.728 108.302 121.728 112.199ZM130.927 94.1843C131.502 81.6632 131.502 68.7588 130.927 56.2377C130.352 68.7588 130.352 81.5993 130.927 94.1843ZM157.247 73.1667C157.247 73.6778 157.694 74.0611 158.205 74.0611C158.716 74.0611 159.1 73.6139 159.1 73.1028C159.036 70.2281 158.525 58.1542 158.844 52.8519C159.93 57.3237 161.463 68.5671 161.655 70.6114C161.974 66.97 160.952 53.6823 159.419 50.616C159.1 49.9771 158.844 49.7216 158.589 49.7216C156.353 49.6577 157.247 73.1667 157.247 73.1667ZM146.259 81.7271C146.642 71.4419 144.982 61.9233 145.365 51.0631C145.429 50.041 145.493 47.9967 145.62 46.3358C147.217 54.1295 148.112 63.0732 148.303 70.9947C148.431 76.2331 148.431 76.2331 149.134 80.7049C148.878 76.6164 148.751 75.5943 148.751 70.9947C148.751 66.2673 147.345 45.5053 145.876 43.9082C145.748 43.7166 145.62 43.6527 145.493 43.6527C143.001 43.5888 146.131 78.3412 146.259 81.7271ZM204.265 41.4806C200.368 41.6084 201.838 41.5445 197.877 41.8639C212.187 43.0777 227.455 42.2472 241.828 42.95C242.403 43.0139 242.914 42.5667 242.914 41.9917C242.978 41.4168 242.531 40.9057 241.956 40.9057C239.465 40.8418 236.909 40.8418 234.354 40.8418C224.452 40.8418 213.848 41.1612 204.265 41.4806ZM223.111 37.3282C230.521 38.0948 233.268 37.6476 240.295 37.0088C238.826 36.881 236.973 36.8172 235.057 36.8172C230.968 36.8172 226.369 37.1366 223.111 37.3282ZM122.75 59.2402C123.389 49.9771 123.389 39.7558 122.878 30.4927C121.984 36.9449 122.367 52.3408 122.75 59.2402ZM214.231 30.6844C222.983 31.3232 232.821 31.2593 241.701 31.451C242.276 31.451 242.723 31.0038 242.723 30.4289C242.723 29.8539 242.276 29.4067 241.701 29.4067C233.268 29.5984 222.408 29.3428 214.231 30.6844ZM166.319 35.4117C166.063 44.547 166.51 53.6185 167.085 62.7538C167.66 54.1295 167.021 44.1637 166.957 35.4117C166.893 31.5149 167.021 30.5566 166.382 26.6597C166.255 27.2986 166.382 34.198 166.319 35.4117ZM226.752 26.1487C216.786 26.6597 208.354 29.0873 198.452 29.5345C198.388 29.5345 191.233 29.8539 193.788 31.5149C196.855 33.4952 230.585 34.6451 236.846 34.4535L242.02 34.2618L236.846 34.0063C230.649 33.7508 207.523 32.6009 198.132 31.1316H198.452C208.354 30.876 216.85 28.5124 226.688 28.1291C231.543 27.9374 236.015 27.4263 240.806 27.2347C241.381 27.2347 241.828 26.7875 241.828 26.2126C241.828 25.6376 241.381 25.1904 240.806 25.1904C236.079 25.3182 231.607 25.8931 226.752 26.1487ZM153.222 76.297C153.222 76.8081 153.606 77.1913 154.117 77.1913C154.628 77.1913 155.011 76.8081 155.011 76.297C154.883 57.3876 154.947 38.0309 154.117 19.1854C153.286 38.0309 153.414 57.4514 153.222 76.297ZM202.732 16.5662C207.395 16.8856 211.292 16.8856 215.956 17.2689C224.516 18.0355 232.054 17.7161 240.615 17.3328C232.31 17.0134 224.388 17.0773 216.084 16.5662C214.167 16.4384 212.442 16.3745 210.781 16.3745C208.162 16.3745 205.671 16.5023 202.732 16.5662ZM191.233 13.4998C187.783 13.6915 189.636 13.4359 186.314 14.2025L188.742 14.1386C205.99 13.947 223.813 14.458 241.19 14.6497C241.765 14.6497 242.212 14.2025 242.212 13.6276C242.212 13.0526 241.765 12.6054 241.19 12.6054C224.899 12.6693 207.332 12.4777 191.233 13.4998ZM170.088 35.3478C170.918 45.5692 170.088 54.0656 170.854 64.3508C170.918 64.8619 171.429 65.1813 171.94 65.1174C172.451 65.0535 172.771 64.5425 172.707 64.0314C171.812 53.8101 172.451 45.3775 171.429 35.1562C170.407 25.446 170.215 18.0355 169.768 8.38915C169.129 19.0576 169.257 24.7432 170.088 35.3478ZM143.001 8.32526C142.937 23.21 141.979 29.4067 144.726 44.2276C144.023 36.1145 143.64 32.1537 143.64 23.9766C143.64 18.4827 143.512 13.8192 143.129 8.32526C143.129 8.19749 143.129 8.26138 143.065 8.13362C143.001 8.1975 143.001 8.26138 143.001 8.32526ZM152.136 31.3871C152.2 32.0259 152.136 31.7065 152.328 32.2815C152.328 31.962 152.392 31.6426 152.392 31.3232C151.434 23.785 151.689 15.608 151.114 7.75032C150.667 15.9912 150.475 23.2739 152.136 31.3871ZM127.35 130.853C127.541 130.981 127.733 131.045 127.989 131.173C127.733 131.173 127.478 131.173 127.158 131.173C127.222 131.109 127.286 130.981 127.35 130.853ZM153.031 130.598C151.945 130.534 151.05 130.47 150.156 130.406C150.22 130.342 150.284 130.278 150.348 130.214C151.114 129.256 151.689 128.17 152.52 127.34C153.861 125.998 154.436 125.551 155.586 124.018C155.842 123.634 156.097 123.315 156.353 123.059C156.736 123.123 157.055 123.187 157.375 123.251C159.1 123.571 160.633 123.826 162.294 124.018C161.974 124.273 161.719 124.529 161.463 124.784C160.697 125.679 160.314 126.637 159.419 127.276C158.141 128.17 157.567 128.362 156.353 129.576C155.586 130.342 155.522 130.214 155.842 130.534C155.075 130.598 154.308 130.662 153.606 130.662C153.35 130.598 153.159 130.598 153.031 130.598ZM147.217 127.915C148.176 126.381 150.028 124.146 151.561 122.612C151.625 122.612 151.625 122.676 151.689 122.676C151.945 122.804 152.073 122.932 152.264 122.996C151.689 123.634 151.242 124.273 150.539 125.359C149.901 126.381 149.453 126.829 148.751 127.659C147.984 128.617 147.473 129.639 146.706 130.534C146.77 130.598 146.834 130.598 146.898 130.598C146.387 130.662 145.94 130.725 145.493 130.725C146.004 129.831 146.579 128.873 147.217 127.915ZM145.94 123.187C146.77 122.485 147.729 122.037 148.687 121.91C148.176 122.74 147.728 123.507 147.345 124.146C146.579 125.551 146.259 126.062 145.237 127.34C144.407 128.426 143.704 129.639 142.937 130.725C140.829 130.662 139.36 130.662 137.124 130.917C136.996 130.917 136.804 130.917 136.677 130.917C136.868 130.598 136.996 130.278 137.124 129.895C137.507 128.937 137.827 128.298 138.338 127.404C138.913 126.381 139.36 125.104 140.063 124.209C140.637 123.507 141.212 122.868 141.851 122.101C141.851 122.101 141.851 122.101 141.851 122.037C142.362 122.357 142.937 122.676 143.576 122.996C144.215 123.315 144.598 123.571 144.982 123.571C145.237 123.698 145.556 123.571 145.94 123.187ZM132.269 127.34C132.844 125.998 133.546 124.912 134.058 123.571C134.377 122.74 134.76 122.037 135.207 121.271C135.399 121.271 135.591 121.207 135.782 121.143C137.252 120.696 138.018 120.376 139.04 120.696C138.849 121.015 138.657 121.399 138.465 121.846C137.89 123.123 137.571 123.762 136.804 124.976C136.23 125.87 135.782 126.701 135.271 127.659C134.505 128.937 134.058 129.703 133.483 131.109C132.524 131.109 131.566 131.045 130.544 131.109C131.119 129.831 131.694 128.553 132.269 127.34ZM131.949 120.76C132.013 120.632 132.013 120.504 132.077 120.313C132.205 120.376 132.333 120.44 132.397 120.504C132.269 120.696 132.141 120.951 132.013 121.143C131.822 121.399 131.694 121.654 131.502 121.91C131.694 121.59 131.822 121.207 131.949 120.76ZM122.431 131.109C122.942 129.767 123.261 128.49 123.645 127.084C124.794 122.868 125.369 122.165 127.222 119.226C127.733 119.29 128.244 119.354 128.691 119.418C127.797 120.76 127.03 122.485 126.392 123.762C125.433 125.679 124.283 128.106 123.581 130.151C123.197 131.109 123.133 130.853 123.9 131.237C123.453 131.173 122.942 131.173 122.431 131.109ZM153.159 121.015C153.989 120.185 154.692 119.354 155.522 118.524C156.481 117.566 157.311 116.48 158.333 115.585C159.227 114.755 159.611 114.371 160.377 113.413C161.016 112.647 161.591 112.199 162.23 111.624C162.358 111.688 162.422 111.688 162.486 111.752C162.933 111.944 163.252 112.199 163.508 112.327C163.444 112.391 163.316 112.455 163.252 112.519C161.847 113.669 160.25 114.882 158.972 116.224C158.205 117.054 157.63 117.693 156.8 118.524C155.906 119.418 154.947 120.313 154.053 121.207C153.797 121.079 153.478 121.015 153.159 121.015ZM160.122 121.718C159.419 121.526 158.653 121.079 158.141 120.951C158.333 120.76 158.525 120.504 158.78 120.249C159.93 118.971 161.463 118.396 162.613 117.246C163.699 116.16 164.083 115.777 165.36 114.882C166.191 114.307 166.766 113.86 167.532 113.221C168.874 112.135 170.279 111.561 171.621 110.411C172.515 109.644 173.473 109.069 174.432 108.43C175.007 108.366 175.773 108.175 176.348 108.239C177.243 108.366 178.712 109.197 179.606 109.58C181.523 110.538 183.439 111.433 185.292 112.391C185.292 112.391 185.356 112.391 185.356 112.455C183.695 112.966 181.97 113.285 180.309 113.605C177.562 114.18 177.434 114.244 175.071 115.777C174.048 116.416 173.218 116.799 172.196 117.374C170.982 118.077 169.704 118.843 168.554 119.61C167.277 120.44 165.935 121.207 164.721 122.037C164.721 122.037 164.658 122.037 164.658 121.973C163.699 121.59 162.933 121.654 162.166 121.718C161.847 121.718 161.527 121.782 161.208 121.782C160.825 121.846 160.505 121.782 160.122 121.718ZM145.876 119.546C144.982 119.099 144.47 118.907 143.832 118.715C143.959 118.46 144.151 118.268 144.279 118.077C144.982 117.246 145.429 116.799 146.068 115.841C146.515 115.138 146.962 114.499 147.473 113.86C148.815 112.008 150.412 109.644 151.945 107.983C152.009 107.919 152.073 107.855 152.136 107.791C152.136 107.791 152.136 107.791 152.2 107.791C153.286 108.175 154.436 108.814 155.522 109.069C157.375 109.516 157.822 109.516 159.547 110.411C157.439 112.135 155.139 113.988 153.222 115.905C152.073 117.054 150.731 118.843 149.517 120.632C148.303 120.313 147.09 120.121 145.876 119.546ZM136.741 118.524C137.443 117.246 138.338 115.968 139.232 114.946C140.126 113.988 140.829 113.158 141.66 112.135C143.448 109.836 144.726 107.728 146.77 105.619C147.409 105.811 148.048 106.067 148.623 106.322C149.198 106.578 149.709 106.769 150.156 106.961C149.581 107.664 149.006 108.302 148.431 109.005C147.473 110.155 146.451 110.858 145.493 112.008C144.79 112.838 144.023 113.86 143.384 114.691C142.746 115.585 142.235 116.607 141.596 117.374C141.276 117.757 141.021 118.013 140.829 118.332C139.935 118.396 139.296 118.588 138.146 118.588H137.89C137.379 118.588 137.06 118.524 136.741 118.524ZM164.913 109.708C164.849 109.644 164.658 109.58 164.466 109.452C165.296 108.686 166.127 107.983 167.085 107.344C168.299 106.514 169.449 105.619 170.663 104.725C171.174 105.172 171.621 105.555 172.004 106.067C172.068 106.194 172.196 106.322 172.324 106.514C169.704 107.791 167.468 109.261 165.169 111.049C165.233 110.602 165.296 110.155 164.913 109.708ZM132.78 118.46C133.291 117.246 133.866 116.288 134.824 114.755C135.655 113.413 136.293 112.072 137.06 110.73C138.082 108.941 139.04 107.153 140.254 105.492C140.637 104.917 141.021 104.406 141.404 103.895C141.851 104.022 142.362 104.214 142.81 104.342C142.81 104.342 142.809 104.342 142.873 104.342C141.212 106.386 139.615 108.558 138.21 110.538C137.124 112.199 136.549 113.796 135.527 115.393C134.824 116.48 134.185 117.502 133.483 118.588C133.355 118.715 133.099 118.588 132.78 118.46ZM128.436 117.31C130.161 114.563 131.758 111.88 133.546 109.197C135.08 106.897 136.549 104.853 138.146 102.809C138.721 103.064 139.36 103.256 139.935 103.511C139.807 103.703 139.615 103.895 139.488 104.086C138.657 105.236 138.338 105.811 137.252 106.833C136.549 107.536 136.038 108.111 135.399 108.75C134.441 109.772 134.121 110.219 133.355 111.433C132.908 112.135 132.588 112.838 132.141 113.605C131.183 115.138 131.119 116.288 130.161 117.629C129.65 117.438 129.075 117.374 128.436 117.31ZM159.355 106.833C157.758 105.364 157.63 105.939 155.842 105.683C155.331 105.619 154.82 105.428 154.372 105.3C154.692 104.981 154.947 104.597 155.267 104.406C156.289 103.575 157.439 102.936 158.461 102.042C159.291 101.275 160.25 100.573 161.144 99.806C161.336 99.8699 161.463 99.9977 161.719 100.125C162.869 100.828 163.444 101.595 164.849 101.595C167.277 101.659 167.596 101.914 169.193 103.383C168.043 104.086 166.893 104.853 165.744 105.747C164.53 106.769 163.252 107.664 161.974 108.622C160.697 108.175 160.25 107.728 159.355 106.833ZM180.117 108.239C179.159 107.728 178.329 107.408 177.37 106.961C177.243 106.897 177.115 106.833 176.987 106.769C177.115 106.705 177.179 106.705 177.306 106.642C178.584 106.003 179.862 105.683 181.076 105.108C182.417 104.469 183.567 103.958 184.972 103.447C186.378 102.936 187.656 102.425 188.997 101.85C189.636 101.595 190.147 101.467 190.786 101.339C192.447 101.084 193.724 101.02 195.322 100.636C197.685 100.062 199.985 99.5505 202.413 99.1033H202.476C202.924 99.5505 203.371 99.9338 204.073 100.317C206.309 101.659 206.118 101.659 207.715 103.703C208.545 104.789 209.184 105.811 210.142 106.833C211.228 108.047 211.995 109.452 213.145 110.538C214.167 111.497 215.189 112.519 216.211 113.477C218.128 115.266 220.939 117.182 222.408 119.226C223.175 120.312 223.622 120.951 224.516 121.91C225.283 122.74 226.113 123.251 226.816 124.209C227.966 125.679 229.116 126.637 230.074 128.234C230.585 129.065 231.096 129.895 231.607 130.662C230.521 130.725 229.435 130.725 228.541 130.662C226.497 130.534 225.41 130.278 223.238 130.47C221.003 130.725 219.725 130.853 217.489 130.725C215.764 130.662 214.295 130.662 212.57 130.662C211.228 130.662 210.334 130.598 208.992 130.47C207.906 130.406 206.884 130.47 205.862 130.534C204.968 130.598 204.137 130.662 203.179 130.598C200.56 130.47 198.324 130.662 195.705 130.662C191.68 130.725 187.272 131.492 183.248 131.237C180.756 131.045 179.223 130.151 176.668 130.406C174.815 130.598 173.921 131.364 172.132 130.917C171.174 130.662 170.407 130.534 169.704 130.406C169.704 130.406 169.768 130.406 169.768 130.342C173.154 128.553 175.645 126.701 179.542 125.87C181.012 125.551 182.417 125.232 183.886 124.912C185.931 124.465 188.039 124.273 190.019 123.698C191.808 123.251 192.191 123.059 194.108 122.996C194.81 122.996 195.449 123.059 196.088 123.059C196.727 123.123 197.302 123.187 198.005 123.123C199.538 123.06 200.432 122.676 201.901 123.059C201.901 122.229 201.901 121.59 202.029 120.824C201.71 120.824 201.39 120.76 201.007 120.76C198.963 120.504 198.26 120.313 195.96 120.44C193.788 120.632 191.744 120.632 189.572 120.696C187.4 120.696 185.995 121.015 183.95 121.526C182.609 121.846 181.139 122.485 179.862 122.932C179.223 123.187 178.584 123.379 177.945 123.571C175.965 124.401 175.645 125.423 173.154 125.87C171.94 126.126 171.557 126.254 170.471 126.701C168.618 127.404 166.893 128.745 165.296 130.023C164.53 130.087 163.635 130.214 162.613 130.342C161.016 130.534 160.186 130.406 159.1 130.278C159.739 129.256 160.441 128.234 161.336 127.787C162.549 127.212 163.188 126.956 164.21 126.062C164.977 125.423 165.744 124.848 166.51 124.209C168.299 124.337 170.088 124.401 171.94 124.465C172.387 124.465 173.793 124.72 174.048 124.337C174.176 123.954 173.41 123.826 173.154 123.826C171.493 123.507 169.896 123.187 168.235 122.932C168.171 122.932 168.171 122.932 168.107 122.932C168.938 122.293 169.768 121.718 170.663 121.143C171.812 120.376 172.835 119.865 173.985 119.163C175.262 118.332 175.837 118.077 177.306 117.566C178.584 117.118 179.351 116.671 180.501 116.032C181.906 115.202 182.992 114.755 184.525 114.116C185.931 113.541 186.442 113.541 187.144 113.541C187.272 113.541 187.4 113.541 187.528 113.541C188.422 114.18 189.253 114.882 190.275 115.713C190.466 115.841 191.872 117.054 191.872 116.543C191.872 116.48 192 114.371 191.936 114.18C191.744 113.605 191.233 113.221 190.594 112.966C191.105 112.774 191.552 112.647 192 112.583C192.638 112.519 193.149 112.583 193.597 112.583C194.427 112.647 195.13 112.647 196.471 112.199C198.324 111.561 198.388 111.561 200.368 111.752C201.007 111.816 201.71 111.816 202.413 111.752C202.924 111.752 203.435 111.752 203.946 111.752C205.16 111.816 206.309 112.008 207.459 111.944C208.929 111.816 209.184 111.88 210.653 112.072C210.717 111.177 210.781 110.475 210.909 109.58C210.973 109.133 211.037 109.133 210.845 109.133C210.781 109.133 210.781 109.133 210.717 109.133C209.887 109.069 209.056 109.005 208.226 108.941C206.246 108.75 204.648 108.877 202.668 109.005C201.199 109.069 200.368 109.197 198.963 109.452C198.005 109.644 197.43 109.58 196.727 109.58C196.344 109.58 195.96 109.58 195.513 109.58C193.405 109.644 192.575 110.475 190.85 110.794C189.38 111.049 188.614 111.049 187.272 111.561C184.781 110.666 182.545 109.452 180.117 108.239ZM174.24 105.3C172.835 104.661 172.196 104.469 171.493 104.086C172.324 103.511 173.09 102.936 173.921 102.361C175.645 101.275 177.243 101.02 178.904 100.125C180.692 99.1672 182.353 98.5922 184.206 97.7617C187.911 96.1008 191.872 95.0786 195.769 94.1204C196.855 93.8649 198.005 93.6732 199.155 93.4816C199.602 94.3759 199.985 95.1425 200.432 95.973C200.177 96.0369 199.857 96.1008 199.602 96.1008C198.068 96.2924 196.535 96.6119 195.066 97.059C193.022 97.5701 190.594 98.2089 188.678 98.9116C187.081 99.4866 185.228 100.253 183.695 100.956C182.225 101.595 180.501 102.234 179.159 103C177.498 103.895 176.22 104.725 174.496 105.492C174.432 105.428 174.368 105.364 174.24 105.3ZM177.69 88.6264C177.881 88.5626 178.009 88.4348 178.201 88.3709C178.201 88.6903 178.201 89.0097 178.201 89.3292C178.009 89.0736 177.881 88.882 177.69 88.6264ZM148.815 103.383C148.751 103.383 148.751 103.32 148.687 103.32C149.07 102.809 149.453 102.361 149.901 101.786C151.178 100.062 152.009 99.2311 153.542 97.6979C155.331 95.973 156.672 94.0565 158.333 92.2039C159.739 90.6707 161.272 89.5847 162.741 88.1154C164.402 86.4544 164.785 85.9434 166.83 84.6657C167.532 84.2824 168.171 83.8352 168.81 83.4519C169.449 83.963 170.152 84.4101 171.238 85.1767C171.94 85.6239 172.643 86.0711 173.41 86.4544C173.473 86.4544 173.473 86.5183 173.537 86.5183C171.94 87.4127 170.471 88.3709 169.385 89.393C167.596 91.1179 166.382 92.2678 164.274 93.6093C162.677 94.6315 161.208 95.6536 159.739 96.7396C159.547 96.8035 159.419 96.8674 159.291 97.059V97.1229C158.589 97.634 157.95 98.2089 157.247 98.72C155.522 100.189 154.308 102.042 152.839 103.767C152.52 104.086 152.264 104.469 151.945 104.789C150.795 104.533 149.964 104.022 148.815 103.383ZM188.358 83.1964C188.55 83.1325 188.742 83.0047 188.997 82.9408C189.061 82.8769 189.125 82.877 189.253 82.877C190.083 83.7713 190.914 84.6018 191.68 85.56C192.383 86.4544 193.277 87.8598 194.108 88.4987C194.874 89.1375 195.896 89.8402 196.791 90.6068C196.535 90.6707 196.28 90.7346 196.024 90.8624C195.002 91.1818 193.98 91.5012 192.894 91.8206C191.872 92.14 191.041 92.5233 190.019 92.9066C188.294 93.5454 186.761 94.4398 185.036 95.1425C183.759 95.6536 182.481 95.973 181.267 96.6757C179.99 97.3784 179.095 97.7618 177.754 98.3367C176.22 99.0394 175.39 99.7421 174.048 100.573C172.579 101.403 171.174 102.17 169.832 102.936C169.768 102.872 169.64 102.809 169.577 102.745C167.341 100.892 165.233 99.5505 162.805 98.145C163.188 97.7617 163.635 97.3784 164.083 96.9951C164.721 96.4841 165.424 95.8452 165.999 95.3981C167.788 94.0565 169.896 93.0344 171.876 92.0761C173.729 91.1179 175.262 90.0319 177.051 89.0736C177.434 89.6486 177.881 90.1596 178.265 90.7346C178.265 92.2678 178.329 93.4816 178.329 94.312C178.392 94.8231 178.84 95.2064 179.351 95.1425C179.862 95.0786 180.245 94.6315 180.181 94.1204C180.181 93.7371 180.181 93.3538 180.117 92.9705C180.373 93.226 180.628 93.4816 180.884 93.7371C181.267 94.0565 182.098 95.0148 182.545 94.6954C182.673 94.5676 182.673 94.3759 182.609 94.1843C182.353 93.4816 180.692 91.9484 180.053 91.3095C180.053 90.1596 179.99 88.882 179.926 87.6043C180.884 87.0933 181.842 86.5183 182.737 85.8795C182.8 85.8156 182.864 85.8156 182.928 85.7517C182.928 86.5822 182.928 87.4127 182.864 88.307C182.864 88.8181 183.248 89.2014 183.759 89.2014C184.27 89.2014 184.653 88.8181 184.653 88.307C184.653 87.0933 184.653 85.9434 184.589 84.7935C185.931 84.0907 187.081 83.7074 188.358 83.1964C188.358 83.2603 188.358 83.3241 188.358 83.3241C188.358 83.3241 188.358 83.2603 188.358 83.1964ZM143.065 101.978C142.937 101.978 142.873 101.914 142.81 101.914C142.937 101.723 143.065 101.467 143.193 101.275C145.301 97.9534 146.579 97.8895 149.453 95.8452C150.923 94.8231 151.178 94.312 152.328 93.0344C153.222 92.0123 154.053 90.9901 155.011 90.0319C156.8 88.307 158.397 85.3045 160.377 84.0269C162.23 82.8131 163.955 81.8548 165.68 80.5772C166.191 81.0244 166.702 81.4076 167.149 81.9187C167.277 82.0465 167.405 82.1742 167.532 82.302C166.83 82.8131 166.127 83.3241 165.424 83.8991C163.444 85.4962 161.336 86.7099 159.483 88.3709C157.886 89.7763 156.48 90.8624 154.756 92.0761C152.775 93.4816 150.859 95.462 149.198 97.2507C148.048 98.4645 146.898 99.7421 145.812 101.02C145.493 101.339 145.173 101.722 144.918 102.106C144.279 102.106 143.704 102.042 143.065 101.978ZM174.048 85.7517C172.835 85.3684 171.301 83.8352 170.088 82.7492C170.152 82.7492 170.215 82.6853 170.215 82.6853C172.643 81.216 175.134 80.0661 177.562 78.5329C177.754 78.4051 177.945 78.2774 178.073 78.2135C178.073 80.4494 178.137 82.5575 178.137 84.4102C177.051 84.8573 175.901 85.3684 174.751 86.0072C174.559 85.8795 174.304 85.8156 174.048 85.7517ZM139.551 100.956C139.615 100.892 139.679 100.828 139.679 100.764C141.404 98.4645 143.065 96.9951 145.045 94.9509C147.537 92.3317 149.837 89.8402 152.392 87.2849C154.82 84.8573 157.311 82.3659 159.994 80.2578C160.825 79.6189 161.591 78.7884 162.422 78.0218C162.486 78.0857 162.613 78.1496 162.741 78.2774C163.06 78.5329 163.38 78.7884 163.699 79.044C163.38 79.2356 163.06 79.4911 162.677 79.8106C161.655 80.8327 160.888 81.5993 159.675 82.4937C158.141 83.7074 156.608 84.6018 155.075 85.7517C151.817 88.0515 147.984 91.9484 145.876 95.3342C144.854 96.9951 144.087 99.1672 142.81 100.509C142.426 100.956 142.043 101.275 141.723 101.659C140.957 101.467 140.254 101.211 139.551 100.956ZM184.525 77.7024C185.356 78.5968 186.186 79.4911 186.953 80.3855C187.017 80.5133 187.144 80.5772 187.208 80.6411C186.378 81.0244 185.547 81.4076 184.653 81.7909C184.653 80.3855 184.589 79.044 184.525 77.7024ZM179.67 77.2552C180.245 76.9358 180.884 76.6803 181.906 76.3609C182.225 76.2331 182.545 76.1692 182.928 76.0415C182.992 76.0415 182.992 76.0415 183.056 75.9776C183.056 78.0857 183.056 80.1939 183.056 82.4298C182.289 82.7492 181.523 83.0686 180.692 83.388C180.437 83.4519 180.181 83.5797 179.926 83.7074C179.798 81.6632 179.734 79.4911 179.67 77.2552ZM187.017 78.2135C186.122 77.2552 185.292 76.297 184.461 75.4026C185.483 74.9554 186.378 74.4444 187.464 73.8694C187.528 73.8055 187.656 73.8055 187.719 73.7417C187.911 75.5943 188.039 77.4469 188.167 79.4273C187.783 79.044 187.4 78.5968 187.017 78.2135ZM179.542 72.2724C180.053 72.7195 180.564 73.1667 181.012 73.6778C180.437 74.125 180.053 74.636 179.606 75.0832C179.606 74.1888 179.606 73.2306 179.542 72.2724ZM166.574 79.9383L166.638 79.8745C168.363 78.469 170.215 77.5108 171.94 76.1053C173.601 74.7638 174.559 74.3805 176.348 73.2945C176.923 72.9751 177.498 72.5918 178.073 72.2724C178.073 73.6778 178.073 75.0193 178.073 76.3609C176.795 77.0636 174.559 78.0857 173.857 78.3413C172.068 79.044 171.493 79.4912 169.96 80.5772C169.513 80.8966 169.065 81.216 168.618 81.5354C167.916 81.0244 167.277 80.5133 166.574 79.9383ZM180.501 70.6753C181.331 70.1003 181.97 69.717 182.864 69.2059C182.928 70.292 182.928 71.378 182.992 72.464C182.736 72.5918 182.481 72.7195 182.225 72.9112C181.587 72.1446 181.076 71.378 180.501 70.6753ZM188.422 79.7467C188.422 77.5746 188.358 75.5304 188.294 73.4861C189.508 72.9112 190.722 72.2723 192 71.8252C192.319 71.6974 192.575 71.6335 192.894 71.5696C195.258 70.9947 195.577 71.2502 197.813 69.7809C198.899 69.0782 199.921 68.9504 201.135 68.4394C201.135 68.4394 201.199 68.4394 201.263 68.3755C201.454 68.8227 201.774 69.2698 202.604 70.1642C204.137 71.889 204.137 73.2306 205.032 74.6999C204.393 74.8277 203.754 75.0193 203.115 75.1471C201.838 75.4026 201.199 75.6582 199.985 76.1053C199.027 76.4886 198.132 76.6164 197.174 76.9358C195.769 77.383 194.363 77.8302 193.022 78.2774C191.552 78.7884 190.019 79.2356 188.614 79.9383C188.614 79.8745 188.55 79.8106 188.422 79.7467ZM163.508 77.0636C163.955 76.6803 164.338 76.3609 164.785 76.1053C167.021 74.636 168.682 73.1028 170.79 71.6335C172.068 70.7392 173.665 69.4615 175.007 68.7588C175.262 68.631 175.454 68.5032 175.709 68.3755C176.22 69.0143 177.115 69.9726 177.434 70.292C177.434 70.292 177.434 70.292 177.498 70.3559C176.731 70.8669 176.093 71.4419 175.198 71.8891C174.112 72.464 173.41 72.7834 172.324 73.4861C171.557 73.9972 170.79 74.3805 169.96 74.8916C168.682 75.6582 168.427 76.4248 167.468 77.2552C166.702 77.9579 165.807 78.1496 164.849 78.5329C164.466 77.9579 164.019 77.5108 163.508 77.0636ZM184.014 68.631C185.036 68.1199 185.931 67.7366 187.017 67.4172C187.144 68.5671 187.336 69.717 187.464 70.9308C186.314 71.2502 185.292 71.5058 184.27 71.8891C184.142 70.803 184.078 69.717 184.014 68.631ZM177.562 67.2895C177.69 67.2256 177.881 67.0978 178.009 67.0339C178.009 67.2895 178.009 67.545 178.009 67.8005C177.881 67.6089 177.754 67.4172 177.562 67.2895ZM203.818 67.6728C204.84 67.4811 205.862 67.3533 206.629 67.2256C208.29 67.0339 208.929 66.7784 210.462 66.3951C212.314 65.884 213.592 66.0757 215.317 65.6285C215.317 65.6924 215.317 65.7563 215.381 65.8201C215.572 66.7784 215.892 68.3116 216.211 69.2059C216.658 70.5475 217.297 71.7613 217.808 72.9751C216.722 72.9751 215.636 73.0389 214.423 73.1667C213.4 73.2945 212.378 73.3584 211.356 73.55C210.206 73.7417 209.12 73.8055 208.034 74.0611C207.906 74.0611 207.779 74.125 207.651 74.125C206.373 71.9529 205.16 69.7809 203.818 67.6728ZM179.415 66.2673C180.564 65.6924 181.587 65.1174 182.609 64.5425C182.673 65.5646 182.736 66.5867 182.8 67.6089C182.353 67.8644 181.906 68.0561 181.395 68.3116C180.756 68.631 180.117 68.8865 179.478 69.2059C179.478 68.1838 179.478 67.2256 179.415 66.2673ZM187.783 67.2256C188.039 67.1617 188.23 67.0978 188.486 67.0339C191.425 66.3312 193.788 64.7341 196.855 64.0953C197.557 63.9675 198.26 63.712 198.963 63.5203C199.474 64.4147 200.049 65.2452 200.432 66.2034C200.432 66.2673 200.496 66.2673 200.496 66.3312C199.218 66.6506 197.941 67.0339 196.599 67.3533C194.555 67.8644 193.533 68.8227 191.744 69.4615C190.594 69.9087 189.316 70.4836 188.167 70.803C188.039 69.5892 187.911 68.3755 187.783 67.2256ZM183.631 63.9036C183.823 63.7759 184.014 63.6481 184.206 63.5203C185.036 63.0093 185.611 62.626 186.25 62.3066C186.442 63.3926 186.569 64.4147 186.761 65.5007C185.803 66.0118 184.845 66.5229 183.886 66.97C183.823 66.0118 183.695 64.9258 183.631 63.9036ZM201.135 63.5203C200.943 63.3287 200.752 63.1371 200.624 62.9454C200.943 62.8176 201.327 62.7538 201.646 62.6899C203.499 62.3066 204.84 61.8594 206.565 61.2844C208.545 60.6456 210.398 60.4539 212.378 59.9429C212.698 59.8151 213.081 59.7512 213.4 59.6874C213.592 60.5817 214.039 61.54 214.295 62.051C214.359 62.3066 214.423 62.4343 214.55 62.6899C213.912 62.7538 213.209 62.9454 211.931 63.3926C210.462 63.9037 209.248 63.9037 207.843 64.2869C206.437 64.7341 205.223 65.1813 203.754 65.5007C203.371 65.5646 203.051 65.6924 202.668 65.7563C202.285 64.9897 201.901 64.3508 201.135 63.5203ZM187.081 61.9233C187.464 61.7316 187.911 61.54 188.358 61.2844C190.977 60.0068 192.638 59.5596 195.322 58.793C195.577 58.7291 195.896 58.6013 196.152 58.5375C196.535 59.2402 196.919 59.9429 197.366 60.5817C196.663 60.9011 195.769 61.2206 195.13 61.6039C193.597 62.3704 193.341 62.6899 191.552 63.0732C189.955 63.4565 188.869 64.2869 187.528 65.0535C187.336 64.0314 187.208 63.0093 187.081 61.9233ZM217.489 62.7538C217.297 62.7538 217.106 62.6899 216.914 62.6899C216.914 62.5621 216.85 62.4982 216.85 62.3705C216.531 61.0289 216.275 60.1984 215.828 59.1124C216.531 58.9846 217.297 58.8569 218.064 58.7291C220.044 58.4097 221.833 57.9625 223.877 57.7709C225.602 57.5792 227.199 57.2598 228.924 57.0681C231.032 56.8765 233.715 56.621 235.76 56.9404C235.951 56.9404 236.143 57.0043 236.334 57.0043C236.271 57.3237 236.335 57.3237 236.718 57.8347C237.612 59.1124 237.804 59.5596 237.548 60.7095C236.335 60.6456 234.61 60.5817 233.46 60.6456C232.565 60.7095 231.799 60.9011 230.968 61.0289L230.713 61.0928C229.691 61.2206 228.988 61.2205 228.349 61.2205C227.327 61.2205 226.369 61.1567 224.644 61.7955C223.047 62.3705 222.855 62.2427 221.258 62.3705C220.044 62.4343 219.022 62.8815 217.936 62.8815C217.744 62.8176 217.617 62.8176 217.489 62.7538ZM186.122 56.1738C186.122 56.046 186.122 55.8544 186.058 55.6627C185.931 54.5767 185.867 53.4907 185.803 52.3408C190.594 52.4047 195.641 52.4686 200.24 52.4047C197.366 53.4907 194.619 54.6406 192.958 55.4072C190.658 56.4932 188.614 57.0681 186.57 58.4736C186.378 57.7709 186.25 57.0043 186.122 56.1738ZM237.484 48.6995C237.548 48.6995 237.548 48.6995 237.612 48.6995C237.612 50.041 237.995 50.4243 237.548 51.8936C237.293 52.7241 237.101 53.4907 236.909 54.1934C235.696 54.3212 234.482 54.5767 233.204 54.5767C231.863 54.6406 230.521 54.96 229.243 54.96C227.774 54.96 227.263 54.7684 225.666 55.0239C223.941 55.2794 222.472 55.0878 220.747 55.3433C219.661 55.535 218.639 55.6627 217.553 55.7905C216.403 55.9182 215.445 56.2377 214.295 56.3016C212.251 56.4932 210.398 56.8126 208.354 57.1959C205.287 57.7709 202.029 58.7291 199.091 59.9429C199.027 59.8151 199.027 59.6874 198.899 59.5596C198.771 59.3041 198.388 58.5375 198.005 57.7709C198.963 57.3237 199.921 56.8126 201.199 56.4932C202.349 56.1738 203.243 55.9821 204.393 55.4711C206.246 54.7045 208.162 54.2573 210.015 53.3629C213.528 51.702 212.762 52.0853 216.531 51.702C220.747 51.2548 222.727 48.8911 226.944 49.0827C229.052 49.1466 230.968 49.0189 233.076 48.8272C233.907 48.7633 234.737 48.7633 235.504 48.7633C236.207 48.6994 236.846 48.6995 237.484 48.6995ZM239.145 51.8936C239.209 51.6381 239.145 50.041 239.145 48.5717C241.445 48.4439 243.617 48.38 245.981 48.5078C246.3 48.5078 246.556 48.5078 246.747 48.5078C247.259 48.5078 247.195 48.5078 247.195 49.0827C247.259 52.6602 246.875 56.3016 247.003 59.879C247.067 61.54 247.003 63.0093 247.003 64.6064C247.003 67.1617 246.811 69.6531 246.875 72.2724C246.875 74.4444 246.811 76.5525 246.875 78.7246C246.939 80.13 246.811 80.8966 246.747 82.2381C246.62 84.5379 246.875 86.5183 246.875 88.8181C246.875 90.6707 246.62 92.2678 246.62 93.9926C246.62 95.5258 246.811 96.9313 246.811 98.4006C246.811 100.125 246.684 101.659 246.747 103.447C246.811 105.939 246.875 108.43 246.939 110.922C247.067 114.307 247.003 117.821 247.259 121.143C247.322 122.357 248.217 128.298 247.897 128.937C247.77 129.128 247.706 129.128 247.45 129.256C245.342 130.278 239.209 130.023 236.718 130.151C235.76 130.214 234.737 130.278 233.651 130.406C232.821 129.639 232.054 128.873 231.352 127.851C231.16 127.595 230.968 127.34 230.841 127.02C230.138 125.934 228.924 123.571 228.03 122.868C227.391 122.357 227.135 122.101 226.624 121.462C225.347 120.057 225.219 119.865 223.558 118.971C222.216 118.268 219.98 115.649 219.15 114.308C218 112.519 217.681 110.666 215.956 109.325C214.678 108.302 214.231 107.919 213.209 106.642C212.187 105.364 211.101 104.342 210.015 103.128C208.737 101.723 207.459 100.7 206.246 99.295C206.054 99.0394 205.862 98.8478 205.671 98.6561C207.906 98.4645 210.398 98.4645 212.251 98.4006C214.423 98.4006 216.914 98.3367 219.086 98.4644C219.597 98.4644 219.533 98.6561 219.597 98.2089C219.661 96.9951 219.917 95.7814 219.98 94.6315C219.725 94.6315 219.405 94.5676 219.15 94.5676C217.297 94.4398 215.509 94.6315 213.72 94.6954C212.442 94.7592 211.101 95.0148 209.887 94.9509C208.737 94.9509 207.715 95.0148 206.565 95.0786C204.904 95.1425 204.329 95.2703 202.796 95.5897C202.796 95.5897 202.796 95.5897 202.732 95.5897C202.029 94.887 201.071 94.1204 200.368 93.2899C200.432 93.2899 200.56 93.226 200.624 93.226C203.69 92.4594 206.437 92.2678 209.567 91.8206C211.101 91.629 212.57 91.5651 214.103 91.4373C215.636 91.2457 216.914 91.3095 218.383 91.2457C220.236 91.1179 221.769 90.4791 223.622 90.8624C223.494 89.968 223.558 89.7125 223.813 88.8181C222.664 88.9459 221.578 88.6903 220.555 88.4348C219.533 88.1793 218.575 87.9237 217.425 87.9876C216.147 88.0515 215.189 88.2431 213.912 88.1793C212.378 88.1154 211.228 88.1793 209.695 88.3709C207.012 88.6264 204.201 89.0098 201.518 89.5208C200.688 89.7125 199.602 89.9041 198.516 90.0958V90.0319C197.302 88.1154 195.577 86.9655 194.108 85.2406C193.149 84.1546 192.319 83.388 191.361 82.4298C191.233 82.302 191.169 82.2381 191.041 82.1104C193.213 81.2799 195.194 80.641 197.621 80.0661C200.496 79.4273 203.243 78.4051 206.118 78.0218C206.629 77.958 207.076 77.8941 207.587 77.8302C207.715 78.1496 207.907 78.469 208.098 78.8523C208.545 80.0022 208.801 81.0244 210.27 80.5772C210.717 80.3216 211.037 79.9383 210.909 79.4273C210.845 79.2356 210.334 78.2774 209.887 77.5108C211.228 77.3191 212.506 77.1275 213.848 76.9997C215.636 76.8081 217.425 76.4886 219.214 76.297C219.405 77.383 219.597 78.469 220.3 79.4911C221.194 80.7688 221.833 81.4076 222.472 82.877C223.558 85.4323 224.452 88.0515 225.474 90.6707C225.602 90.9262 225.666 91.1818 225.794 91.4373C226.369 93.0983 227.071 94.7592 227.263 96.5479C227.455 98.3367 227.455 98.4644 228.157 100.189C228.732 101.722 228.605 102.872 229.563 104.278C230.521 105.747 230.713 107.216 231.671 108.686C233.076 110.922 233.779 112.391 234.674 114.882C235.568 117.438 236.398 119.865 237.357 122.421C237.932 123.89 239.465 123.251 239.401 122.229C239.401 121.91 237.868 117.949 237.612 117.31C237.101 115.968 236.207 114.755 235.823 113.477C235.504 112.391 235.312 111.624 234.801 110.602C234.162 109.197 233.779 108.239 233.332 106.705C233.268 106.45 233.204 106.194 233.14 105.875C232.757 104.15 232.757 103.895 231.927 102.297C231.16 100.892 230.904 99.6782 231.352 98.0812C231.607 97.1868 231.99 96.1008 231.671 95.1425C231.224 93.9926 229.435 91.8206 228.477 90.9901C226.816 89.5208 226.88 89.2014 226.305 87.0932C225.985 86.0711 225.538 85.3045 225.219 84.4102C225.155 84.1546 225.027 83.8991 224.963 83.6435C224.324 81.5993 225.474 80.7049 224.58 79.1717C223.941 77.9579 223.686 77.2552 223.494 75.9137H223.558C225.794 75.5943 227.071 75.3387 229.243 75.7859C230.841 76.1053 231.607 76.1692 233.204 76.2331C233.268 75.0832 233.332 73.8694 233.396 72.7195C232.182 72.6556 231.224 72.5918 229.946 72.7834C228.094 73.1028 227.774 73.2945 225.858 73.1667C224.772 73.1028 223.75 73.2306 222.664 73.2945C222.28 72.5918 221.897 71.889 221.45 71.1224C220.555 69.717 219.469 68.5671 218.894 66.97C218.639 66.3312 218.383 65.6924 218.128 64.9897C219.15 64.6703 219.98 64.6064 221.322 64.4786C222.152 64.4147 222.919 64.4147 223.686 64.4147C224.324 64.4147 224.963 64.4147 225.666 64.3508C227.966 64.1592 229.946 63.9036 232.246 64.0953C233.971 64.2231 235.696 64.287 237.421 64.3508C239.145 65.9479 238.634 67.6089 238.57 69.6531C238.507 71.2502 239.337 72.0168 239.529 73.7417C239.656 75.5943 239.401 76.1053 240.04 78.1496C240.87 80.9605 240.615 82.1742 240.167 85.049C239.976 86.3267 239.912 89.3292 240.359 90.4791C240.679 91.3095 241.637 92.0122 242.02 90.9262C242.34 89.8402 242.02 85.7517 241.892 84.474C241.701 82.8131 241.254 80.5772 241.317 78.9801C241.381 77.2552 241.573 76.297 241.254 74.4444C240.998 72.7195 241.19 71.889 241.19 70.2281C241.254 67.8644 240.487 66.2035 240.551 64.0314C240.551 63.712 240.551 63.4565 240.551 63.137C240.551 61.7955 240.551 59.0485 239.848 58.0264C239.72 57.8347 239.593 57.707 239.529 57.5792C240.806 57.6431 242.148 57.6431 243.489 57.707C243.553 56.621 243.617 55.535 243.617 54.4489H243.426C241.956 54.3851 240.551 54.3212 239.082 54.3212C238.89 54.3212 238.698 54.3212 238.507 54.3851C238.507 53.299 239.081 52.4047 239.145 51.8936ZM179.287 47.5495C180.117 47.5495 181.012 47.5495 181.906 47.4857C181.778 49.3383 181.778 50.5521 181.778 51.8297C181.139 51.9575 180.437 52.0852 179.798 52.2769C180.437 52.2769 181.139 52.3408 181.778 52.3408V52.4047C181.714 53.299 181.587 54.1934 181.587 55.2155C181.523 57.132 182.098 59.4318 181.906 61.1567C181.012 61.54 180.181 61.9233 179.415 62.3705C179.287 57.3876 179.287 52.4047 179.287 47.5495ZM179.287 45.5053C179.287 42.8861 179.351 40.3308 179.351 37.8393C180.245 37.8393 181.203 37.8393 182.098 37.8393C182.225 38.9253 182.353 40.0113 182.481 41.0335C182.481 41.2251 182.417 41.3529 182.417 41.5445L181.267 41.6084H182.417C182.353 42.2472 182.289 42.8861 182.289 43.6527C182.289 44.2276 182.225 44.8665 182.162 45.5053C181.203 45.5692 180.245 45.5692 179.287 45.5053ZM218.767 37.7115C213.528 39.2447 192.127 41.0335 185.292 41.4168C185.228 40.4585 185.228 39.5641 185.228 38.6698C185.228 38.4142 185.228 38.0948 185.228 37.8393C190.977 37.8393 196.855 37.9032 202.668 37.9032C208.162 37.9032 213.528 37.9032 218.767 37.7115ZM179.415 36.9449C179.415 36.3061 179.415 35.7312 179.478 35.1562C180.053 35.1562 180.884 35.1562 181.97 35.1562C182.034 35.7312 182.034 36.37 182.098 36.9449C181.203 36.9449 180.309 36.9449 179.415 36.9449ZM185.42 33.0481C190.786 33.1758 197.366 33.3036 200.496 33.8147C195.258 34.3896 190.402 34.5813 185.356 34.8368C185.356 34.198 185.356 33.623 185.42 33.0481ZM179.542 32.7925C180.181 32.8564 180.948 32.8564 181.778 32.9203C181.842 33.623 181.842 34.2618 181.906 34.9646C181.076 35.0284 180.245 35.0284 179.415 35.0923C179.478 34.3257 179.478 33.5591 179.542 32.7925ZM179.862 25.5098C180.245 25.5098 180.692 25.446 181.267 25.446C181.523 27.8096 181.65 30.1733 181.778 32.537C180.948 32.537 180.181 32.537 179.542 32.6009C179.606 30.0455 179.734 27.6819 179.862 25.5098ZM180.053 22.4435C180.309 22.4435 180.564 22.4435 180.884 22.4435C181.012 23.2739 181.076 24.1044 181.203 24.9988C180.756 25.0627 180.309 25.0627 179.926 25.1265C179.926 24.1683 179.99 23.2739 180.053 22.4435ZM182.098 22.4435C182.162 22.4435 182.162 22.4435 182.225 22.4435C182.225 22.5712 182.225 22.6351 182.225 22.7629C182.225 23.0184 182.225 23.2101 182.225 23.4017C182.162 23.0823 182.098 22.7629 182.098 22.4435ZM185.547 22.3796C193.149 22.3157 200.815 22.3157 208.354 21.9963C200.815 21.6768 193.149 21.613 185.547 21.613C185.547 21.1658 185.611 20.7825 185.547 20.3353C190.019 20.7186 194.874 20.6547 199.666 20.6547C204.585 20.5908 209.44 20.5908 213.975 20.9741C215.509 21.1019 222.344 21.8046 226.241 22.2518C218.958 23.3378 199.474 23.21 194.044 23.8489C191.169 24.1683 188.294 24.4238 185.356 24.6794C185.356 23.8489 185.483 23.1462 185.547 22.3796ZM181.714 19.8242C181.842 19.8242 181.906 19.8881 182.034 19.8881C182.034 20.4631 182.098 21.038 182.098 21.613C182.034 21.613 182.034 21.613 181.97 21.613C181.906 20.9741 181.842 20.3992 181.714 19.8242ZM180.117 21.5491C180.181 20.8464 180.245 20.2075 180.309 19.5687H180.373C180.501 20.2075 180.628 20.8464 180.692 21.5491C180.564 21.5491 180.373 21.5491 180.117 21.5491ZM185.547 10.2418C190.658 10.3695 195.769 10.3695 200.815 10.4334C197.494 11.0083 191.041 11.5833 185.483 12.0305C185.483 11.3916 185.547 10.8167 185.547 10.2418ZM130.736 4.36449C131.438 4.36449 132.077 4.36449 132.78 4.36449C132.077 15.9274 131.055 28.5762 131.183 40.4585C130.161 28.129 130.544 17.7161 130.736 4.36449ZM162.038 4.36449C163.188 4.36449 164.083 4.36451 165.041 4.30063C164.466 12.9249 164.21 40.7779 163.699 48.5717C161.911 40.7779 158.333 13.1165 157.503 4.36449C158.716 4.42838 159.866 4.42838 161.144 4.42838C161.4 4.3645 161.719 4.36449 162.038 4.36449ZM138.21 4.30063C140.254 4.30063 142.554 3.72567 144.407 3.85344C144.854 3.85344 145.237 3.91733 145.62 3.98121C147.984 25.446 145.493 42.6944 150.156 65.0535C149.837 60.8372 150.028 62.8176 149.517 58.6652C147.281 39.3725 149.134 22.7629 147.409 4.17285C148.176 4.23674 148.942 4.23674 149.964 4.17285C152.456 3.91732 152.839 3.85343 155.394 4.10896C155.522 4.10896 155.586 4.10896 155.65 4.10896C156.672 13.947 161.4 52.0214 164.019 51.5103C165.807 51.1909 165.744 13.1165 165.36 4.23674C166.127 4.17286 166.893 4.10898 167.852 3.98121C169.96 3.72568 170.854 4.04508 172.835 4.04508H172.898C172.387 15.9912 172.771 27.1708 172.835 39.0531C173.857 34.9646 173.282 11.2639 172.962 4.04508C174.432 4.04508 175.965 3.78955 177.243 3.85344C178.329 3.91732 179.478 3.98121 180.564 3.98121C181.778 3.98121 181.587 3.66179 181.523 4.55616C181.523 4.87557 181.459 5.19499 181.459 5.5144C179.031 5.70605 177.051 5.96158 175.837 6.34488C175.582 6.85594 175.773 7.49478 176.22 7.75032C176.731 8.00585 177.37 7.8142 177.626 7.36701C178.009 7.62255 179.415 7.68643 181.331 7.68643C181.331 8.45303 181.331 9.15574 181.331 9.92234C179.415 9.98622 178.009 10.0501 177.498 10.0501C178.776 10.114 180.053 10.1779 181.331 10.1779C181.395 10.8167 181.459 11.5833 181.523 12.3499C179.223 12.5415 177.306 12.7332 176.22 12.9249C177.945 12.861 179.734 12.7332 181.587 12.6693C181.587 12.7971 181.587 12.861 181.65 12.9887C182.034 15.2885 182.034 15.9912 181.906 17.8439C181.651 17.78 181.395 17.78 181.139 17.7161C181.012 17.1411 180.884 16.6301 180.692 16.1829C180.117 14.7136 179.67 15.2885 179.287 17.3328C178.648 17.205 178.073 17.0134 177.498 16.8217C176.987 16.5662 176.348 16.8217 176.157 17.3328C175.901 17.8439 176.157 18.4827 176.668 18.6743C177.434 18.9299 178.201 19.1215 179.031 19.2493C178.967 19.8881 178.903 20.6547 178.84 21.4213C178.52 21.4213 178.137 21.4213 177.817 21.4213C177.562 21.4213 177.37 21.613 177.37 21.8685C177.37 22.124 177.562 22.3157 177.817 22.3157C178.137 22.3157 178.456 22.3157 178.776 22.3157C178.712 23.1462 178.648 24.1044 178.584 25.0627C177.562 25.1266 176.604 25.2543 175.645 25.3182C176.923 25.3821 177.754 25.446 178.584 25.446C178.456 27.5541 178.392 29.9178 178.265 32.537C178.073 32.537 177.945 32.537 177.817 32.6009C177.945 32.6648 177.881 32.6009 178.073 32.6648C178.137 32.6648 178.201 32.6648 178.265 32.6648C178.201 34.0063 178.201 35.4117 178.137 36.8811C177.626 36.8811 177.115 36.8811 176.604 36.8811C176.348 36.8811 176.157 37.0727 176.157 37.3282C176.157 37.5838 176.348 37.7754 176.604 37.7754C177.115 37.7754 177.626 37.7754 178.137 37.7754C178.073 40.2669 178.009 42.8222 178.009 45.4414C177.817 45.4414 177.626 45.4414 177.434 45.4414C176.859 45.4414 176.412 45.8886 176.412 46.4635C176.412 47.0385 176.859 47.4857 177.434 47.4857C177.626 47.4857 177.817 47.4857 178.009 47.4857C177.945 52.5963 177.945 57.8986 177.945 63.0093C175.071 64.798 172.004 66.6506 169.193 68.5671C167.532 69.717 165.744 70.803 164.146 72.0807C162.677 73.2945 162.102 73.9333 160.377 74.9554C157.503 76.6803 156.353 78.7884 153.861 80.5772C151.434 82.302 149.837 83.4519 147.856 85.7517C146.77 87.0294 145.94 87.9237 144.79 89.0736C143.065 90.8624 142.362 92.3317 140.893 94.1204C139.615 95.7175 139.168 97.059 137.699 98.5922C137.188 99.1033 136.804 99.4866 136.485 99.8699C136.038 99.6782 135.782 99.6144 135.655 100.253C135.591 100.573 135.591 100.828 135.591 101.02C135.144 101.659 134.696 102.361 134.058 103.511C132.78 105.747 130.352 107.664 128.947 109.836C127.222 112.583 125.114 115.841 123.9 118.843C122.942 121.271 122.814 121.654 121.217 123.698C121.281 122.996 121.217 122.293 121.153 121.59C120.898 119.865 120.578 118.46 120.386 116.735C120.067 113.477 119.364 113.03 120.003 109.452C120.642 106.003 120.323 101.914 120.259 98.3367C120.195 96.2924 120.003 94.1204 120.003 92.14C120.067 88.1793 120.131 84.2824 120.131 80.2578C120.131 75.5304 120.834 70.9947 121.217 66.2673C121.409 63.5204 121.089 61.0928 121.153 58.4097C121.217 56.4293 121.728 54.3851 121.473 52.5324C121.217 50.5521 120.706 48.6356 120.323 46.6552C120.898 32.7286 120.898 18.4827 121.025 4.55616C121.217 4.36451 121.473 4.30063 121.792 4.30063C123.261 4.30063 124.794 4.30063 126.264 4.30063C126.328 26.4681 125.497 53.6185 127.797 75.0193C127.478 51.3187 127.861 27.9374 128.052 4.30063C128.308 4.30063 128.564 4.30063 128.755 4.30063C128.691 12.7971 128.052 53.0435 131.822 53.0435C131.885 52.6602 131.885 52.3408 131.949 51.9575L132.397 52.213C132.269 51.5103 132.205 50.8076 132.141 50.1688C133.099 37.5838 132.716 20.6547 133.035 7.68643L132.971 4.23674C133.61 4.23674 134.185 4.23674 134.824 4.23674C136.038 4.36451 137.124 4.36451 138.21 4.30063ZM188.933 3.91732C191.041 3.72567 193.149 3.78955 195.258 3.47013C197.877 3.02295 198.132 2.70354 200.879 3.2146C202.924 3.5979 204.457 3.91731 206.629 4.04508C207.395 4.10896 208.098 4.04508 208.801 4.04508C209.504 4.04508 210.142 3.98119 210.845 4.04508C213.145 4.17284 215.253 4.30061 217.617 4.36449C219.789 4.42838 221.641 4.36449 223.75 4.36449C224.772 4.36449 225.858 4.42838 226.88 4.49227C228.157 4.62003 229.435 4.68393 230.713 4.62004C232.757 4.49228 233.779 4.49226 235.887 4.68391C237.548 4.87556 238.443 4.68391 240.04 4.68391C241.765 4.68391 242.467 4.87556 244.064 5.06721C244.831 5.19498 245.534 4.93945 246.045 5.45052C246.684 6.02547 246.428 7.11148 246.492 8.00585V8.32526C246.684 10.2418 246.492 12.5416 246.492 14.5219C246.492 16.694 246.747 18.6105 246.556 20.8464C246.428 22.6351 246.811 24.1683 246.684 25.957C246.556 28.2568 246.3 29.4067 246.556 31.8343C246.684 33.3675 246.747 34.9007 246.747 36.4339C246.747 37.9032 247.067 39.4364 247.003 40.8418C246.939 41.9917 247.003 42.6305 247.067 43.7804C246.747 43.7804 246.364 43.7166 246.045 43.7166C243.106 43.5249 241.701 43.9082 238.826 44.1637C237.612 44.2915 236.526 44.4832 235.44 44.6748C227.646 44.2276 222.344 44.2276 214.423 44.7387C222.152 45.1859 227.391 45.1859 234.865 44.8026C233.843 44.9942 232.757 45.2498 231.607 45.4414C229.818 45.8247 228.221 46.1441 226.433 46.5913C224.133 47.1662 222.472 47.3579 220.236 47.7412C217.936 48.1245 216.084 48.8911 213.848 49.3383C212.123 49.7216 211.037 49.7216 209.312 49.9132C207.906 50.1049 205.862 50.6159 203.69 51.3825C203.626 50.8076 203.115 50.4243 202.604 50.4882C196.855 50.9354 191.297 50.7437 185.803 51.3825C185.739 50.1049 185.611 48.8911 185.547 47.6134C193.916 47.5495 202.54 47.4218 210.59 46.7191C202.54 46.0164 193.916 45.8247 185.483 45.7608C185.483 45.4414 185.483 45.0581 185.483 44.7387C185.483 43.7804 185.42 42.8222 185.356 41.8639H187.336C189.764 41.8001 221.45 39.4364 220.172 37.5199C216.786 37.2005 218.703 37.3282 213.656 37.2643C204.201 37.1366 194.747 37.1366 185.292 37.1366C185.292 36.5616 185.292 35.9228 185.356 35.3478C193.916 35.3478 207.268 35.0284 201.838 33.3036C200.815 32.9842 192.127 32.7286 185.483 32.6648C185.483 32.3453 185.547 32.0259 185.547 31.7065C185.739 29.9817 185.675 29.279 185.547 28.1929C191.872 28.1291 198.58 28.1291 204.521 27.8735C208.545 27.6819 212.378 27.4902 216.211 26.4042L215.125 26.4681C204.648 27.4263 195.705 26.7875 185.547 27.8735C185.483 27.4902 185.483 27.043 185.42 26.4681C185.356 26.0848 185.356 25.7015 185.356 25.3182C193.852 24.871 201.582 24.4238 210.27 24.2322C210.462 24.2322 211.292 24.2322 212.506 24.2961C218 24.4238 231.416 24.5516 229.882 21.7407C229.371 20.8464 215.828 19.5687 214.167 19.377C205.479 18.4827 194.555 19.3132 185.483 18.4188C185.292 16.694 185.228 15.6079 185.42 13.4359C185.42 13.1804 185.483 12.9248 185.483 12.6693C191.233 12.4138 197.11 12.0944 202.285 11.0722C203.435 10.8167 203.754 10.2418 203.435 9.92234C213.592 10.1779 223.877 10.114 233.971 9.60292C221.833 9.02798 209.504 9.09186 197.366 9.60292C193.916 9.60292 189.444 9.73068 185.611 9.79457C185.611 9.02797 185.611 8.32525 185.611 7.55865C189.38 7.367 193.341 7.0476 194.363 7.0476C205.351 6.91983 217.361 7.17536 228.221 6.34488C224.324 6.02546 225.794 6.08934 221.897 5.96157C215.125 5.76992 197.238 4.93945 185.483 5.38663C185.42 5.00333 185.42 4.55615 185.356 4.10896C185.803 4.10896 186.25 4.17285 186.633 4.17285C187.4 4.04509 188.103 4.04509 188.933 3.91732ZM231.927 0.0843311C229.499 0.0843311 227.135 0.0843311 224.708 0.0843311C223.813 0.0843311 223.047 0.148218 222.216 0.148218C221.003 0.212101 219.789 0.275969 218.447 0.212086C215.7 0.0204362 214.614 0.0843311 211.867 0.403747C210.59 0.595397 209.44 0.531514 208.29 0.403747C207.14 0.339864 205.926 0.275985 204.648 0.467634C201.582 0.850933 198.516 0.595385 195.449 0.531502C194.683 0.531502 193.852 0.531502 193.022 0.531502C192.127 0.531502 191.169 0.531502 190.339 0.531502C188.294 0.403735 187.081 0.339868 184.972 0.467634C183.184 0.595401 182.162 0.403747 180.437 0.403747C179.862 0.403747 179.223 0.467634 178.584 0.467634C177.818 0.531517 176.987 0.595385 176.284 0.531502C174.559 0.403735 173.41 0.212094 171.621 0.33986C169.449 0.53151 169.321 0.595389 167.085 0.275973C164.21 -0.107326 161.527 0.020444 158.653 0.020444C156.225 0.020444 153.989 0.65928 151.689 0.403747C148.495 0.0843311 148.559 0.0204479 145.365 0.403747C142.682 0.723163 140.765 0.020444 138.146 0.020444C132.716 0.020444 127.286 0.020444 121.856 0.020444C120.323 0.020444 118.981 0.659276 118.023 1.61752C117.001 2.63966 116.426 3.9812 116.426 5.45052V5.76993C116.426 7.87808 116.362 10.0501 116.426 12.1583C116.49 15.2246 116.681 16.694 116.042 19.8242C115.467 22.699 115.595 24.4877 115.467 27.3624C115.34 30.9399 115.467 32.7287 116.042 36.2422C116.426 38.4143 116.681 40.203 116.937 42.375C117.384 46.3358 116.49 49.2744 116.426 53.1074C116.362 57.5792 116.426 62.1788 116.426 66.6506C116.426 68.9504 116.553 70.5475 116.745 72.7834C116.809 73.6139 116.873 74.5083 117.001 75.4026C116.745 88.3709 116.809 101.786 116.809 114.308C116.554 115.841 116.234 117.374 116.042 118.907C115.531 122.548 115.212 122.548 116.042 126.19C116.362 127.979 116.298 129.384 117.256 131.045C117.64 131.62 117.703 131.364 117.512 131.811C117.959 132.131 118.726 132.642 119.173 132.898C120.387 133.472 121.536 133.472 121.92 133.472C121.984 133.472 122.047 133.472 122.047 133.472C124.283 133.281 126.455 133.345 128.564 133.409C130.161 133.472 131.694 133.472 133.355 133.472C135.591 133.409 137.252 133.6 139.488 133.728C140.574 133.792 141.596 133.728 142.618 133.728C144.023 133.664 145.365 133.664 146.77 133.792C148.878 134.047 150.22 134.111 152.328 133.92C154.053 133.792 155.267 134.047 156.928 134.047C157.63 134.047 158.397 133.984 159.1 133.92C159.994 133.856 160.888 133.792 161.719 133.856C164.977 134.111 166.702 134.558 170.088 133.984C171.238 133.792 172.771 133.217 173.857 133.472C176.412 133.984 177.498 134.239 180.053 133.728C182.8 133.217 184.397 133.217 187.208 133.345C190.083 133.472 193.149 133.728 196.024 133.792C198.26 133.792 200.368 133.92 202.604 133.856C203.946 133.792 204.712 133.856 206.054 133.92C207.332 133.984 208.481 133.92 209.695 133.856C210.653 133.792 211.548 133.792 212.57 133.792C214.742 133.856 216.85 133.728 219.022 133.728C220.108 133.728 221.13 133.792 222.089 133.856C223.558 133.984 225.027 134.111 226.56 133.92C229.882 133.6 232.374 133.472 235.696 133.92C237.995 134.239 239.656 134.175 241.892 134.175C244.575 134.175 247.195 134.686 248.472 131.684C248.472 131.62 248.728 130.853 248.664 131.109C248.92 130.214 248.983 129.576 248.664 128.745C248.281 127.531 249.047 123.634 249.303 122.229C250.006 118.268 249.686 114.691 249.942 110.73C250.069 108.814 250.006 106.833 250.133 104.981C250.261 102.872 250.389 101.467 250.197 99.295C250.006 96.9313 250.708 95.2703 250.389 92.9066C250.133 90.7346 249.878 89.2014 250.069 86.9655C250.261 84.7296 250.517 83.388 250.261 81.0882C250.069 79.1078 250.325 77.1275 250.261 75.1471C250.261 73.0389 250.325 70.9308 250.261 68.8865C250.069 63.2648 250.325 57.6431 250.069 52.0853C250.006 49.9771 250.133 48.1245 250.261 46.0802C250.325 44.547 250.261 43.0138 250.389 41.5445C250.453 40.0113 250.644 38.6698 250.644 37.1366C250.772 31.7704 250.58 26.4042 250.772 20.9741C250.836 18.6104 250.644 16.6301 250.644 14.3303C250.644 11.3917 251.411 9.02798 250.9 6.08935C250.58 4.55615 250.133 2.83131 249.047 1.68141C248.025 0.65928 246.684 0.0843311 245.15 0.0843311C242.212 0.0843311 239.273 0.0843311 236.334 0.0843311C234.865 0.0843311 233.396 0.0843311 231.927 0.0843311Z" fill="white"/>
</mask>
<g mask="url(#mask0_207_2401)">
<path d="M251.475 -0.0437012H115.212V134.814H251.475V-0.0437012Z" fill="#C39B69"/>
</g>
<mask id="mask1_207_2401" style="mask-type:luminance" maskUnits="userSpaceOnUse" x="0" y="154" width="366" height="73">
<path d="M40.7252 216.097H41.8113C42.6418 216.097 43.2167 216.289 43.6639 216.672C44.1749 217.055 44.4305 217.566 44.4305 218.333C44.4305 219.227 44.1111 219.866 43.4083 220.25C42.9612 220.505 42.4501 220.633 41.8113 220.633H40.7252V216.097ZM39.3837 214.947V226.638H40.7252V221.655H42.0668C42.3862 221.719 42.8334 222.23 43.4083 223.252L45.4526 226.638H46.9858L44.8777 223.124C44.2388 222.038 43.7917 221.399 43.4722 221.272V221.208C45.0693 220.697 45.8359 219.675 45.8359 218.141C45.8359 216.991 45.3887 216.161 44.4944 215.586C43.8555 215.203 42.9612 214.947 41.8752 214.947H39.3837ZM57.3988 216.097H58.2931C59.0597 216.097 59.6347 216.225 60.018 216.48C60.7846 216.928 61.104 217.63 61.104 218.652C61.104 219.738 60.7207 220.441 59.8902 220.888C59.443 221.144 58.8681 221.272 58.1654 221.272H57.3988V216.097ZM56.0572 214.947V226.638H57.3988V222.358H58.1654C59.1236 222.358 59.8902 222.23 60.529 221.91C61.1679 221.591 61.6789 221.144 61.9984 220.569C62.3178 219.994 62.5094 219.355 62.5094 218.652C62.5094 217.183 61.9345 216.161 60.8485 215.522C60.2096 215.139 59.3791 215.011 58.2931 215.011H56.0572V214.947ZM72.0919 214.947V226.638H77.8414V225.552H73.3696V221.272H77.2026V220.186H73.3696V216.161H77.2664L77.7136 215.075H72.0919V214.947ZM95.7926 214.947V222.358C95.7926 223.316 95.7926 224.019 95.8565 224.402H95.7926C95.2176 223.571 94.6427 222.805 94.0677 222.038L88.7015 214.883H87.4239V226.574H88.7654V218.908C88.7654 218.141 88.7654 217.503 88.7015 216.928H88.7654C89.2765 217.694 89.8514 218.461 90.4264 219.163L96.0481 226.574H97.1341V214.883H95.7926V214.947ZM106.078 214.947V216.033H109.4V226.574H110.741V216.033H114.063L114.51 214.947H106.078ZM124.476 216.097H125.562C126.393 216.097 126.968 216.289 127.415 216.672C127.926 217.055 128.181 217.566 128.181 218.333C128.181 219.227 127.862 219.866 127.159 220.25C126.712 220.505 126.137 220.633 125.562 220.633H124.476V216.097ZM123.135 214.947V226.638H124.476V221.655H125.818C126.137 221.719 126.584 222.23 127.159 223.252L129.203 226.638H130.737L128.629 223.124C127.99 222.038 127.543 221.399 127.223 221.272V221.208C128.82 220.697 129.587 219.675 129.587 218.141C129.587 216.991 129.14 216.161 128.245 215.586C127.606 215.203 126.712 214.947 125.626 214.947H123.135ZM146.069 214.947L143.066 220.697H143.002L139.936 214.947H138.467L142.3 221.974V226.638H143.577V221.974L147.346 214.947H146.069ZM199.667 216.097H201.072C202.733 216.097 203.947 216.544 204.777 217.375C205.608 218.205 205.991 219.355 205.991 220.761C205.991 222.23 205.608 223.38 204.841 224.274C204.075 225.169 202.797 225.616 201.136 225.616H199.731V216.097H199.667ZM198.389 214.947V226.638H201.136C203.18 226.638 204.713 226.127 205.799 224.977C206.885 223.891 207.396 222.485 207.396 220.697C207.396 218.972 206.885 217.566 205.799 216.48C204.777 215.394 203.244 214.883 201.2 214.883H198.389V214.947ZM217.809 214.947V226.638H223.559V225.552H219.151V221.272H222.984V220.186H219.151V216.161H223.048L223.495 215.075H217.809V214.947ZM272.493 216.097H273.579C274.41 216.097 274.985 216.289 275.432 216.672C275.943 217.055 276.199 217.566 276.199 218.333C276.199 219.227 275.879 219.866 275.177 220.25C274.729 220.505 274.154 220.633 273.579 220.633H272.493V216.097ZM271.152 214.947V226.638H272.493V221.655H273.835C274.154 221.719 274.602 222.23 275.177 223.252L277.221 226.638H278.754L276.646 223.124C276.007 222.038 275.56 221.399 275.24 221.272V221.208C276.838 220.697 277.604 219.675 277.604 218.141C277.604 216.991 277.157 216.161 276.263 215.586C275.624 215.203 274.729 214.947 273.643 214.947H271.152ZM304.18 214.947V216.033H307.501V226.574H308.843V216.033H312.165L312.612 214.947H304.18ZM321.236 226.638H322.578V214.947H321.236V226.638ZM361.419 214.947V222.358C361.419 223.316 361.419 224.019 361.483 224.402H361.419C360.844 223.571 360.269 222.805 359.694 222.038L354.328 214.883H353.05V226.574H354.392V218.908C354.392 218.141 354.392 217.503 354.328 216.928H354.392C354.903 217.694 355.478 218.461 356.053 219.163L361.674 226.574H362.76V214.883H361.419V214.947ZM24.8183 219.036C25.2016 218.014 25.3933 217.375 25.5211 216.991H25.5849C25.7766 217.63 26.0321 218.333 26.2876 219.036L27.5014 222.422H23.6046L24.8183 219.036ZM25.1378 214.947L20.7298 226.638H22.1352L23.2851 223.508H28.0125L29.1624 226.638H30.5678L26.096 214.947H25.1378ZM290.764 219.036C291.147 218.014 291.339 217.375 291.467 216.991H291.531C291.722 217.63 291.978 218.333 292.233 219.036L293.447 222.422H289.55L290.764 219.036ZM291.02 214.947L286.612 226.638H288.017L289.167 223.508H293.894L295.044 226.638H296.45L291.978 214.947H291.02ZM5.39785 216.608C4.31184 217.758 3.80077 219.227 3.80077 220.952C3.80077 222.677 4.31183 224.082 5.27008 225.168C6.29221 226.255 7.63375 226.829 9.3586 226.829C10.5085 226.829 11.5945 226.574 12.6166 225.999L12.2333 224.977C11.339 225.488 10.3807 225.68 9.42248 225.68C8.08094 225.68 7.05881 225.232 6.29221 224.338C5.52561 223.444 5.14232 222.294 5.14232 220.824C5.14232 219.483 5.52562 218.333 6.3561 217.375C7.18658 216.417 8.27259 215.969 9.55026 215.969C10.5724 215.969 11.5306 216.225 12.425 216.672V215.458C11.7223 215.011 10.764 214.819 9.55026 214.819C7.8893 214.883 6.48387 215.458 5.39785 216.608ZM169.003 225.105C168.556 224.657 168.364 224.146 168.364 223.508C168.364 222.996 168.492 222.485 168.811 222.102C169.13 221.719 169.578 221.335 170.28 221.016C171.303 222.23 172.389 223.444 173.602 224.594C172.58 225.36 171.622 225.807 170.664 225.807C169.961 225.743 169.386 225.488 169.003 225.105ZM169.833 218.333C169.642 218.014 169.514 217.63 169.514 217.311C169.514 216.928 169.642 216.608 169.961 216.353C170.216 216.097 170.664 215.905 171.175 215.905C171.75 215.905 172.133 216.033 172.389 216.353C172.644 216.672 172.772 216.991 172.772 217.375C172.772 218.269 172.133 219.036 170.855 219.611C170.344 219.1 170.025 218.716 169.833 218.333ZM168.939 215.586C168.364 216.033 168.108 216.608 168.108 217.311C168.108 217.694 168.172 218.014 168.3 218.333C168.428 218.652 168.556 218.908 168.747 219.163C168.939 219.355 169.194 219.738 169.578 220.186C167.853 220.952 166.958 222.102 166.958 223.635C166.958 224.53 167.278 225.296 167.917 225.935C168.556 226.574 169.386 226.893 170.472 226.893C171.877 226.893 173.219 226.382 174.497 225.36C175.583 226.318 176.541 226.829 177.371 226.829C177.755 226.829 178.01 226.766 178.266 226.702L177.946 225.68C177.819 225.743 177.691 225.743 177.563 225.743C177.18 225.743 176.86 225.68 176.541 225.488C176.221 225.296 175.838 224.977 175.391 224.594C176.222 223.699 176.924 222.613 177.435 221.335L176.285 221.08C175.902 222.102 175.327 223.06 174.561 223.891C173.475 222.869 172.452 221.783 171.558 220.697C172.389 220.249 173.027 219.802 173.475 219.291C173.922 218.78 174.113 218.205 174.113 217.566C174.113 216.8 173.858 216.225 173.283 215.778C172.772 215.331 172.005 215.075 171.111 215.075C170.216 214.883 169.514 215.139 168.939 215.586ZM234.291 216.608C233.205 217.758 232.694 219.227 232.694 220.952C232.694 222.677 233.205 224.082 234.164 225.168C235.186 226.255 236.527 226.829 238.252 226.829C239.402 226.829 240.488 226.574 241.51 225.999L241.127 224.977C240.232 225.488 239.274 225.68 238.316 225.68C236.974 225.68 235.952 225.232 235.186 224.338C234.419 223.444 234.036 222.294 234.036 220.824C234.036 219.483 234.419 218.333 235.25 217.375C236.08 216.417 237.166 215.969 238.444 215.969C239.466 215.969 240.424 216.225 241.318 216.672V215.458C240.616 215.011 239.658 214.819 238.444 214.819C236.719 214.883 235.377 215.458 234.291 216.608ZM252.754 224.402C251.987 223.508 251.604 222.358 251.604 220.888C251.604 219.419 251.987 218.269 252.754 217.375C253.52 216.48 254.606 216.033 255.884 216.033C257.225 216.033 258.311 216.48 259.078 217.375C259.845 218.269 260.228 219.419 260.228 220.888C260.228 222.358 259.845 223.508 259.078 224.402C258.311 225.296 257.225 225.743 255.948 225.743C254.606 225.68 253.52 225.232 252.754 224.402ZM251.795 216.544C250.709 217.63 250.198 219.1 250.198 220.888C250.198 222.677 250.709 224.082 251.795 225.232C252.881 226.318 254.223 226.893 255.884 226.893C257.545 226.893 258.886 226.318 259.972 225.232C261.058 224.146 261.569 222.677 261.569 220.888C261.569 219.163 261.058 217.694 259.972 216.608C258.886 215.458 257.545 214.947 255.884 214.947C254.223 214.947 252.881 215.458 251.795 216.544ZM334.652 224.402C333.885 223.508 333.502 222.358 333.502 220.888C333.502 219.419 333.885 218.269 334.652 217.375C335.418 216.48 336.504 216.033 337.782 216.033C339.124 216.033 340.21 216.48 340.976 217.375C341.743 218.269 342.126 219.419 342.126 220.888C342.126 222.358 341.743 223.508 340.976 224.402C340.21 225.296 339.124 225.743 337.846 225.743C336.504 225.68 335.482 225.232 334.652 224.402ZM333.694 216.544C332.608 217.63 332.096 219.1 332.096 220.888C332.096 222.677 332.608 224.082 333.694 225.232C334.78 226.318 336.121 226.893 337.782 226.893C339.443 226.893 340.785 226.318 341.871 225.232C342.957 224.146 343.468 222.677 343.468 220.888C343.468 219.163 342.957 217.694 341.871 216.608C340.785 215.458 339.443 214.947 337.782 214.947C336.121 214.947 334.78 215.458 333.694 216.544ZM40.5975 155.664L33.0593 181.792L22.7741 155.664H22.0075L11.5945 181.792L4.18407 155.664H0.542725L10.8279 191.949H11.5306L22.5185 164.543L33.2509 191.949H33.9536L44.3666 155.664H40.5975ZM157.44 159.177H159.995C165.234 159.177 168.939 159.497 171.239 160.199C174.241 161.094 176.605 162.819 178.33 165.31C179.991 167.801 180.885 170.804 180.885 174.254C180.885 177.576 180.118 180.386 178.521 182.686C176.988 184.986 174.816 186.583 172.069 187.477C170.153 188.116 166.639 188.436 161.656 188.436H157.44V159.177ZM153.926 155.664V191.949H165.489C170.025 191.949 173.538 191.31 176.03 189.969C178.521 188.627 180.566 186.647 182.163 183.836C183.76 181.089 184.526 177.895 184.526 174.254C184.526 170.037 183.568 166.396 181.588 163.393C179.607 160.327 176.86 158.219 173.347 157.005C170.919 156.111 166.958 155.727 161.528 155.727H153.926V155.664ZM219.151 171.507V159.241H225.539C227.967 159.241 229.756 159.433 230.842 159.88C231.928 160.327 232.758 161.03 233.461 162.052C234.1 163.074 234.419 164.16 234.419 165.374C234.419 166.651 234.1 167.737 233.461 168.76C232.822 169.782 231.928 170.484 230.778 170.932C229.628 171.379 227.839 171.634 225.348 171.634L219.151 171.507ZM215.574 155.664V191.949H219.215V175.084H221.77C226.242 175.084 229.372 174.892 230.969 174.509C233.205 173.998 234.994 172.912 236.272 171.315C237.549 169.718 238.188 167.738 238.188 165.31C238.188 162.882 237.549 160.902 236.208 159.305C234.866 157.708 233.205 156.686 231.097 156.175C229.628 155.791 226.881 155.664 222.728 155.664H215.574ZM249.943 191.885H253.584V155.6H249.943V191.885ZM267 155.664V191.949H287.634V188.372H270.641V174.126H287.634V170.548H270.641V159.177H287.825V155.6H267V155.664ZM345.193 155.664V191.949H365.827V188.372H348.834V174.126H365.827V170.548H348.834V159.177H365.955V155.6H345.193V155.664ZM62.7011 184.858C59.6986 181.92 58.2292 178.278 58.2292 173.934C58.2292 170.996 58.932 168.376 60.2735 166.013C61.6151 163.649 63.4677 161.732 65.8952 160.391C68.3228 158.986 70.8142 158.283 73.4973 158.283C76.2443 158.283 78.7996 158.986 81.2272 160.391C83.6547 161.796 85.5713 163.649 86.9128 165.949C88.2544 168.249 88.9571 170.868 88.9571 173.743C88.9571 176.617 88.2544 179.236 86.9128 181.664C85.5713 184.028 83.7186 185.88 81.2911 187.286C78.9274 188.627 76.3082 189.33 73.4973 189.33C69.281 189.266 65.7036 187.797 62.7011 184.858ZM63.9149 157.261C60.9762 158.922 58.6764 161.285 57.0155 164.224C55.3545 167.226 54.4601 170.421 54.4601 173.934C54.4601 179.173 56.3128 183.644 60.018 187.286C63.7232 190.991 68.2589 192.78 73.6251 192.78C78.9274 192.78 83.4631 190.927 87.1044 187.222C90.8097 183.517 92.6623 179.045 92.6623 173.743C92.6623 168.376 90.8097 163.905 87.1044 160.199C83.3992 156.558 78.7996 154.705 73.3057 154.705C69.9837 154.705 66.8535 155.6 63.9149 157.261ZM111.636 184.858C108.633 181.92 107.164 178.278 107.164 173.934C107.164 170.996 107.866 168.376 109.208 166.013C110.55 163.649 112.402 161.732 114.83 160.391C117.257 158.986 119.749 158.283 122.432 158.283C125.179 158.283 127.734 158.986 130.162 160.391C132.589 161.796 134.506 163.649 135.847 165.949C137.189 168.249 137.828 170.868 137.828 173.743C137.828 176.617 137.189 179.236 135.847 181.664C134.506 184.028 132.653 185.88 130.226 187.286C127.798 188.627 125.243 189.33 122.432 189.33C118.216 189.266 114.638 187.797 111.636 184.858ZM112.849 157.261C109.911 158.922 107.611 161.285 105.95 164.224C104.289 167.226 103.395 170.421 103.395 173.934C103.395 179.173 105.247 183.644 108.953 187.286C112.658 190.991 117.193 192.78 122.56 192.78C127.862 192.78 132.398 190.927 136.039 187.222C139.744 183.517 141.597 179.045 141.597 173.743C141.597 168.376 139.744 163.905 136.039 160.199C132.334 156.558 127.734 154.705 122.24 154.705C118.918 154.705 115.724 155.6 112.849 157.261ZM302.966 160.135C299.261 163.777 297.408 168.249 297.408 173.551C297.408 178.598 298.941 182.878 302.008 186.455C305.649 190.672 310.696 192.78 317.02 192.78C320.342 192.78 323.408 192.141 326.091 190.927C328.775 189.649 331.074 187.861 332.863 185.561L329.988 183.389C326.603 187.35 322.322 189.33 317.276 189.33C312.676 189.33 308.843 187.861 305.777 184.922C302.774 181.983 301.241 178.278 301.241 173.87C301.241 170.932 301.944 168.312 303.285 165.949C304.627 163.585 306.543 161.732 309.035 160.327C311.526 158.922 314.209 158.219 317.084 158.219C319.703 158.219 322.131 158.73 324.367 159.816C326.603 160.902 328.455 162.435 330.052 164.479L332.927 162.307C331.202 159.88 328.966 158.027 326.219 156.686C323.472 155.344 320.406 154.705 317.02 154.705C311.334 154.705 306.671 156.558 302.966 160.135Z" fill="white"/>
</mask>
<g mask="url(#mask1_207_2401)">
<path d="M365.955 154.705H0.542725V226.829H365.955V154.705Z" fill="#2E1A09"/>
</g>
</svg>
