<svg width="53" height="53" viewBox="0 0 53 53" fill="none" xmlns="http://www.w3.org/2000/svg">
<mask id="mask0_368_596" style="mask-type:luminance" maskUnits="userSpaceOnUse" x="0" y="0" width="53" height="53">
<path d="M33.1468 48.6634C33.2699 48.7618 34.3775 49.1064 34.599 49.1803C35.3374 49.4018 36.1496 49.5494 36.8634 49.7956C37.5034 50.0171 38.0695 50.214 38.734 50.3863C39.2755 50.534 39.4478 49.9925 39.1771 49.7464C39.0048 49.5741 37.7987 49.3279 37.528 49.3033C37.0357 49.2541 36.7157 49.2541 36.2235 49.1556C35.6081 49.0326 35.2882 48.9833 34.7221 48.7372C34.2298 48.5157 33.9837 48.4911 33.4668 48.368C33.4176 48.368 33.3683 48.3434 33.3437 48.3434C33.1222 48.3188 32.9499 48.4418 33.1468 48.6634ZM2.42954 43.8638C2.42954 44.0607 2.57722 44.2084 2.77413 44.2084C2.97103 44.2084 3.11871 44.0607 3.11871 43.8638C3.06948 38.6212 2.87258 33.034 3.02026 27.816C3.73404 30.2281 4.00479 39.9257 4.15247 41.6486C4.32476 40.1472 4.25092 27.5206 2.99564 26.8807C2.97103 26.8807 2.94641 26.8561 2.94641 26.8561C1.93727 26.8561 2.42954 42.3624 2.42954 43.8638ZM5.97384 36.9229C6.19536 32.0987 6.19536 27.1268 5.97384 22.3026C5.75232 27.1268 5.75232 32.0741 5.97384 36.9229ZM16.1145 28.8251C16.1145 29.022 16.2868 29.1697 16.4837 29.1697C16.6806 29.1697 16.8283 28.9974 16.8283 28.8005C16.8037 27.6929 16.6067 23.041 16.7298 20.9981C17.1482 22.7211 17.739 27.053 17.8128 27.8406C17.9359 26.4376 17.5421 21.3181 16.9513 20.1367C16.8283 19.8905 16.7298 19.7921 16.6314 19.7921C15.7699 19.7675 16.1145 28.8251 16.1145 28.8251ZM11.881 32.1233C12.0287 28.1606 11.3888 24.4932 11.5364 20.309C11.561 19.9151 11.5857 19.1275 11.6349 18.4876C12.2502 21.4904 12.5948 24.9362 12.6686 27.9883C12.7179 30.0066 12.7179 30.0066 12.9886 31.7295C12.8902 30.1542 12.8409 29.7604 12.8409 27.9883C12.8409 26.1669 12.2994 18.1676 11.7333 17.5523C11.6841 17.4784 11.6349 17.4538 11.5857 17.4538C10.6257 17.4292 11.8318 30.8188 11.881 32.1233ZM34.2298 16.617C32.7284 16.6662 33.2945 16.6416 31.7685 16.7647C37.2818 17.2323 43.1644 16.9123 48.7024 17.1831C48.9239 17.2077 49.1208 17.0354 49.1208 16.8139C49.1454 16.5924 48.9731 16.3955 48.7516 16.3955C47.7917 16.3708 46.8072 16.3708 45.8226 16.3708C42.0076 16.3708 37.9218 16.4939 34.2298 16.617ZM41.4907 15.0171C44.3458 15.3125 45.4042 15.1402 48.1117 14.8941C47.5455 14.8448 46.8318 14.8202 46.0934 14.8202C44.5181 14.8202 42.746 14.9433 41.4907 15.0171ZM2.82335 23.4595C3.06948 19.8905 3.06948 15.9524 2.87258 12.3835C2.52799 14.8694 2.67567 20.8012 2.82335 23.4595ZM38.0695 12.4573C41.4415 12.7035 45.2319 12.6789 48.6531 12.7527C48.8747 12.7527 49.047 12.5804 49.047 12.3589C49.047 12.1374 48.8747 11.9651 48.6531 11.9651C45.4042 12.0389 41.22 11.9405 38.0695 12.4573ZM19.6096 14.2787C19.5111 17.7984 19.6834 21.2935 19.9049 24.8132C20.1264 21.4904 19.8803 17.6507 19.8557 14.2787C19.8311 12.7773 19.8803 12.4081 19.6342 10.9067C19.5849 11.1529 19.6342 13.8111 19.6096 14.2787ZM42.8937 10.7098C39.054 10.9067 35.805 11.842 31.99 12.0143C31.9654 12.0143 29.2087 12.1374 30.1932 12.7773C31.3747 13.5403 44.3705 13.9834 46.7825 13.9095L48.7762 13.8357L46.7825 13.7372C44.3951 13.6388 35.4851 13.1957 31.8669 12.6296H31.99C35.805 12.5312 39.0786 11.6205 42.869 11.4728C44.7396 11.399 46.4626 11.2021 48.3086 11.1282C48.5301 11.1282 48.7024 10.9559 48.7024 10.7344C48.7024 10.5129 48.5301 10.3406 48.3086 10.3406C46.4872 10.3898 44.7643 10.6114 42.8937 10.7098ZM14.5639 30.0312C14.5639 30.2281 14.7115 30.3758 14.9084 30.3758C15.1053 30.3758 15.253 30.2281 15.253 30.0312C15.2038 22.7457 15.2284 15.2879 14.9084 8.02697C14.5885 15.2879 14.6377 22.7703 14.5639 30.0312ZM33.6391 7.01783C35.4359 7.14089 36.9373 7.14089 38.734 7.28857C42.0322 7.58393 44.9365 7.46087 48.2347 7.31319C45.035 7.19012 41.983 7.21473 38.7833 7.01783C38.0449 6.9686 37.3803 6.94399 36.7403 6.94399C35.7312 6.94399 34.7713 6.99321 33.6391 7.01783ZM29.2087 5.8364C27.8796 5.91024 28.5934 5.81178 27.3135 6.10714L28.2488 6.08253C34.8944 6.00869 41.7614 6.20559 48.4562 6.27943C48.6778 6.27943 48.85 6.10714 48.85 5.88562C48.85 5.6641 48.6778 5.49181 48.4562 5.49181C42.1799 5.51643 35.4112 5.44258 29.2087 5.8364ZM21.0617 14.2541C21.3817 18.1922 21.0617 21.4658 21.3571 25.4285C21.3817 25.6254 21.5786 25.7485 21.7755 25.7239C21.9724 25.6993 22.0955 25.5023 22.0709 25.3054C21.7263 21.3673 21.9724 18.1184 21.5786 14.1803C21.1848 10.4391 21.111 7.58393 20.9387 3.86734C20.6925 7.97775 20.7418 10.1683 21.0617 14.2541ZM10.6257 3.84273C10.6011 9.5776 10.2319 11.9651 11.2903 17.6754C11.0196 14.5495 10.8719 13.0235 10.8719 9.87296C10.8719 7.75623 10.8226 5.95946 10.675 3.84273C10.675 3.7935 10.675 3.81812 10.6504 3.76889C10.6257 3.7935 10.6257 3.81811 10.6257 3.84273ZM14.1454 12.7281C14.17 12.9742 14.1454 12.8512 14.2193 13.0727C14.2193 12.9496 14.2439 12.8265 14.2439 12.7035C13.8747 9.79912 13.9731 6.64863 13.7516 3.62121C13.5793 6.79631 13.5055 9.60222 14.1454 12.7281ZM4.5955 51.0508C4.66934 51.1001 4.74318 51.1247 4.84163 51.1739C4.74318 51.1739 4.64473 51.1739 4.52167 51.1739C4.54628 51.1493 4.57089 51.1001 4.5955 51.0508ZM14.49 50.9524C14.0716 50.9278 13.727 50.9032 13.3824 50.8786C13.407 50.8539 13.4316 50.8293 13.4563 50.8047C13.7516 50.4355 13.9731 50.0171 14.2931 49.6971C14.81 49.1802 15.0315 49.0079 15.4745 48.4172C15.573 48.2696 15.6714 48.1465 15.7699 48.048C15.9176 48.0727 16.0406 48.0973 16.1637 48.1219C16.8283 48.245 17.419 48.3434 18.0589 48.4172C17.9359 48.5157 17.8374 48.6141 17.739 48.7126C17.4436 49.0572 17.2959 49.4264 16.9513 49.6725C16.4591 50.0171 16.2375 50.0909 15.7699 50.5586C15.4745 50.8539 15.4499 50.8047 15.573 50.9278C15.2776 50.9524 14.9823 50.977 14.7115 50.977C14.6131 50.9524 14.5392 50.9524 14.49 50.9524ZM12.2502 49.9186C12.6194 49.3279 13.3332 48.4665 13.9239 47.8758C13.9485 47.8758 13.9485 47.9004 13.9731 47.9004C14.0716 47.9496 14.1208 47.9988 14.1947 48.0234C13.9731 48.2696 13.8008 48.5157 13.5301 48.9341C13.284 49.3279 13.1117 49.5002 12.8409 49.8202C12.5456 50.1894 12.3487 50.5832 12.0533 50.9278C12.0779 50.9524 12.1025 50.9524 12.1271 50.9524C11.9302 50.977 11.7579 51.0016 11.5857 51.0016C11.7826 50.657 12.0041 50.2878 12.2502 49.9186ZM11.7579 48.0973C12.0779 47.8265 12.4471 47.6542 12.8163 47.605C12.6194 47.925 12.4471 48.2203 12.2994 48.4665C12.0041 49.008 11.881 49.2049 11.4872 49.6971C11.1672 50.1155 10.8965 50.5832 10.6011 51.0016C9.78889 50.977 9.22278 50.977 8.36132 51.0755C8.31209 51.0755 8.23826 51.0755 8.18903 51.0755C8.26287 50.9524 8.31209 50.8293 8.36132 50.6817C8.509 50.3125 8.63207 50.0663 8.82898 49.7217C9.0505 49.3279 9.22278 48.8357 9.49353 48.4911C9.71505 48.2203 9.93657 47.9742 10.1827 47.6788C10.1827 47.6788 10.1827 47.6788 10.1827 47.6542C10.3796 47.7773 10.6011 47.9004 10.8473 48.0234C11.0934 48.1465 11.2411 48.245 11.3887 48.245C11.4872 48.2942 11.6103 48.2449 11.7579 48.0973ZM6.49072 49.6971C6.71224 49.1802 6.98298 48.7618 7.17989 48.245C7.30295 47.925 7.45063 47.6542 7.62292 47.3589C7.69676 47.3589 7.77061 47.3343 7.84445 47.3096C8.41055 47.1373 8.7059 47.0143 9.09972 47.1374C9.02588 47.2604 8.95204 47.4081 8.8782 47.5804C8.65668 48.0727 8.53361 48.3188 8.23825 48.7864C8.01673 49.131 7.84444 49.451 7.64754 49.8202C7.35218 50.3125 7.17989 50.6078 6.95837 51.1493C6.58917 51.1493 6.21997 51.1247 5.82616 51.1493C6.04768 50.657 6.2692 50.1648 6.49072 49.6971ZM6.36766 47.162C6.39227 47.1127 6.39226 47.0635 6.41688 46.9897C6.4661 47.0143 6.51533 47.0389 6.53994 47.0635C6.49072 47.1373 6.44149 47.2358 6.39226 47.3096C6.31842 47.4081 6.2692 47.5065 6.19536 47.605C6.2692 47.4819 6.31843 47.3343 6.36766 47.162ZM2.70028 51.1493C2.89719 50.6324 3.02026 50.1402 3.16794 49.5987C3.61098 47.9742 3.83249 47.7035 4.54627 46.5712C4.74318 46.5959 4.94009 46.6205 5.11238 46.6451C4.7678 47.162 4.47244 47.8265 4.2263 48.3188C3.85711 49.0572 3.41407 49.9925 3.14332 50.7801C2.99564 51.1493 2.97103 51.0509 3.26639 51.1985C3.0941 51.1739 2.89719 51.1739 2.70028 51.1493ZM14.5392 47.2604C14.8592 46.9405 15.13 46.6205 15.4499 46.3005C15.8191 45.9313 16.1391 45.5129 16.5329 45.1683C16.8775 44.8483 17.0252 44.7006 17.3205 44.3314C17.5667 44.0361 17.7882 43.8638 18.0343 43.6423C18.0835 43.6669 18.1082 43.6669 18.1328 43.6915C18.3051 43.7654 18.4281 43.8638 18.5266 43.913C18.502 43.9376 18.4527 43.9622 18.4281 43.9869C17.8866 44.4299 17.2713 44.8976 16.779 45.4144C16.4837 45.7344 16.2622 45.9805 15.9422 46.3005C15.5976 46.6451 15.2284 46.9897 14.8838 47.3343C14.7854 47.285 14.6623 47.2604 14.5392 47.2604ZM17.2221 47.5312C16.9513 47.4573 16.656 47.285 16.4591 47.2358C16.5329 47.162 16.6068 47.0635 16.7052 46.9651C17.1482 46.4728 17.739 46.2513 18.182 45.8082C18.6004 45.3898 18.7481 45.2421 19.2404 44.8975C19.5603 44.676 19.7819 44.5037 20.0772 44.2576C20.5941 43.8392 21.1356 43.6177 21.6525 43.1746C21.997 42.8793 22.3662 42.6578 22.7354 42.4116C22.957 42.387 23.2523 42.3132 23.4738 42.3378C23.8184 42.387 24.3845 42.707 24.7291 42.8547C25.4675 43.2239 26.2059 43.5684 26.9197 43.9376C26.9197 43.9376 26.9443 43.9376 26.9443 43.9622C26.3043 44.1592 25.6398 44.2822 24.9999 44.4053C23.9415 44.6268 23.8923 44.6514 22.9816 45.2421C22.5878 45.4883 22.2678 45.636 21.874 45.8575C21.4063 46.1282 20.9141 46.4236 20.471 46.7189C19.9788 47.0389 19.4619 47.3343 18.9942 47.6542C18.9942 47.6542 18.9696 47.6542 18.9696 47.6296C18.6004 47.4819 18.3051 47.5066 18.0097 47.5312C17.8866 47.5312 17.7636 47.5558 17.6405 47.5558C17.4928 47.5804 17.3698 47.5558 17.2221 47.5312ZM11.7333 46.6943C11.3887 46.522 11.1918 46.4482 10.9457 46.3743C10.9949 46.2759 11.0688 46.202 11.118 46.1282C11.3887 45.8082 11.561 45.6359 11.8072 45.2667C11.9795 44.996 12.1518 44.7499 12.3487 44.5037C12.8655 43.79 13.4809 42.8793 14.0716 42.2393C14.0962 42.2147 14.1208 42.1901 14.1454 42.1655C14.1454 42.1655 14.1454 42.1655 14.17 42.1655C14.5885 42.3132 15.0315 42.5593 15.4499 42.6578C16.1637 42.83 16.336 42.83 17.0006 43.1746C16.1883 43.8392 15.3022 44.553 14.5639 45.2914C14.1208 45.7344 13.6039 46.4236 13.1363 47.1127C12.6686 46.9897 12.201 46.9158 11.7333 46.6943ZM8.21365 46.3005C8.48439 45.8082 8.82897 45.316 9.17356 44.9222C9.51814 44.553 9.78889 44.233 10.1089 43.8392C10.798 42.9531 11.2903 42.1409 12.0779 41.3286C12.324 41.4025 12.5702 41.5009 12.7917 41.5994C13.0132 41.6978 13.2101 41.7717 13.3824 41.8455C13.1609 42.1163 12.9394 42.3624 12.7179 42.6331C12.3487 43.0762 11.9548 43.3469 11.5857 43.79C11.3149 44.1099 11.0196 44.5037 10.7734 44.8237C10.5273 45.1683 10.3304 45.5621 10.0842 45.8575C9.96118 46.0051 9.86273 46.1036 9.78889 46.2267C9.4443 46.2513 9.19817 46.3251 8.75513 46.3251H8.65668C8.45977 46.3251 8.33671 46.3005 8.21365 46.3005ZM19.0681 42.9039C19.0435 42.8793 18.9696 42.8547 18.8958 42.8054C19.2157 42.5101 19.5357 42.2393 19.9049 41.9932C20.3726 41.6732 20.8156 41.3286 21.2833 40.9841C21.4802 41.1563 21.6525 41.304 21.8001 41.5009C21.8248 41.5502 21.874 41.5994 21.9232 41.6732C20.9141 42.1655 20.0526 42.7316 19.1665 43.4208C19.1911 43.2485 19.2157 43.0762 19.0681 42.9039ZM6.68762 46.2759C6.88453 45.8082 7.10605 45.439 7.47525 44.8483C7.79522 44.3314 8.04135 43.8146 8.33671 43.2977C8.73052 42.6085 9.09972 41.9193 9.56737 41.2794C9.71505 41.0579 9.86273 40.861 10.0104 40.6641C10.1827 40.7133 10.3796 40.7871 10.5519 40.8364C10.5519 40.8364 10.5519 40.8364 10.5765 40.8364C9.93656 41.624 9.32124 42.4608 8.77975 43.2239C8.36132 43.8638 8.1398 44.4791 7.74599 45.0945C7.47524 45.5129 7.22912 45.9067 6.95837 46.3251C6.90914 46.3743 6.81069 46.3251 6.68762 46.2759ZM5.01393 45.8328C5.67849 44.7745 6.29382 43.7407 6.98299 42.707C7.5737 41.8209 8.1398 41.0333 8.75513 40.2457C8.97665 40.3441 9.22279 40.4179 9.44431 40.5164C9.39508 40.5902 9.32124 40.6641 9.27201 40.7379C8.95204 41.181 8.82897 41.4025 8.41055 41.7963C8.1398 42.067 7.9429 42.2886 7.69677 42.5347C7.32757 42.9285 7.2045 43.1008 6.90914 43.5684C6.73685 43.8392 6.61378 44.1099 6.44149 44.4053C6.07229 44.996 6.04768 45.439 5.67848 45.9559C5.48158 45.8821 5.26006 45.8575 5.01393 45.8328ZM16.9267 41.7963C16.3114 41.2302 16.2622 41.4517 15.573 41.3533C15.3761 41.3286 15.1792 41.2548 15.0069 41.2056C15.13 41.0825 15.2284 40.9348 15.3515 40.861C15.7453 40.541 16.1883 40.2949 16.5821 39.9503C16.9021 39.6549 17.2713 39.3842 17.6159 39.0888C17.6897 39.1135 17.739 39.1627 17.8374 39.2119C18.2804 39.4827 18.502 39.778 19.0435 39.778C19.9788 39.8026 20.1018 39.9011 20.7172 40.4672C20.2741 40.7379 19.8311 41.0333 19.388 41.3779C18.9204 41.7717 18.4281 42.1163 17.9359 42.4855C17.4436 42.3132 17.2713 42.1409 16.9267 41.7963ZM24.926 42.3378C24.5568 42.1409 24.2368 42.0178 23.8676 41.8455C23.8184 41.8209 23.7692 41.7963 23.72 41.7717C23.7692 41.7471 23.7938 41.7471 23.843 41.7225C24.3353 41.4763 24.8276 41.3532 25.2952 41.1317C25.8121 40.8856 26.2551 40.6887 26.7966 40.4918C27.3381 40.2949 27.8304 40.098 28.3472 39.8765C28.5934 39.778 28.7903 39.7288 29.0364 39.6795C29.6764 39.5811 30.1686 39.5565 30.784 39.4088C31.6946 39.1873 32.5807 38.9904 33.516 38.8181H33.5406C33.7129 38.9904 33.8852 39.1381 34.156 39.2857C35.0174 39.8026 34.9436 39.8026 35.5589 40.5902C35.8789 41.0087 36.125 41.4025 36.4942 41.7963C36.9126 42.2639 37.208 42.8054 37.651 43.2239C38.0448 43.5931 38.4387 43.9869 38.8325 44.3561C39.5709 45.0452 40.6539 45.7836 41.22 46.5712C41.5153 46.9897 41.6876 47.2358 42.0322 47.605C42.3275 47.925 42.6475 48.1219 42.9183 48.4911C43.3613 49.0572 43.8043 49.4264 44.1735 50.0417C44.3704 50.3617 44.5674 50.6817 44.7643 50.977C44.3458 51.0016 43.9274 51.0016 43.5828 50.977C42.7952 50.9278 42.3768 50.8293 41.5399 50.9032C40.6785 51.0016 40.1862 51.0508 39.3247 51.0016C38.6602 50.977 38.0941 50.977 37.4295 50.977C36.9127 50.977 36.5681 50.9524 36.0512 50.9032C35.6328 50.8786 35.239 50.9032 34.8451 50.9278C34.5006 50.9524 34.1806 50.977 33.8114 50.9524C32.8022 50.9032 31.9408 50.977 30.9316 50.977C29.381 51.0016 27.6827 51.297 26.1321 51.1985C25.1721 51.1247 24.5814 50.7801 23.5969 50.8786C22.8831 50.9524 22.5385 51.2478 21.8494 51.0755C21.4802 50.977 21.1848 50.9278 20.9141 50.8786C20.9141 50.8786 20.9387 50.8786 20.9387 50.8539C22.2432 50.1648 23.2031 49.451 24.7045 49.131C25.2706 49.008 25.8121 48.8849 26.3782 48.7618C27.1658 48.5895 27.978 48.5157 28.7411 48.2942C29.4302 48.1219 29.5779 48.048 30.3163 48.0234C30.587 48.0234 30.8332 48.048 31.0793 48.048C31.3254 48.0727 31.547 48.0973 31.8177 48.0727C32.4084 48.048 32.753 47.9004 33.3191 48.048C33.3191 47.7281 33.3191 47.4819 33.3683 47.1866C33.2453 47.1866 33.1222 47.162 32.9745 47.162C32.1869 47.0635 31.9162 46.9897 31.0301 47.0389C30.1932 47.1127 29.4056 47.1127 28.5688 47.1374C27.7319 47.1374 27.1904 47.2604 26.4028 47.4573C25.8859 47.5804 25.3198 47.8265 24.8276 47.9988C24.5814 48.0973 24.3353 48.1711 24.0892 48.245C23.3262 48.5649 23.2031 48.9587 22.2432 49.131C21.7755 49.2295 21.6278 49.2787 21.2094 49.451C20.4956 49.7217 19.8311 50.2386 19.2157 50.7309C18.9204 50.7555 18.5758 50.8047 18.182 50.8539C17.5667 50.9278 17.2467 50.8786 16.8283 50.8293C17.0744 50.4355 17.3451 50.0417 17.6897 49.8694C18.1574 49.6479 18.4035 49.5494 18.7973 49.2049C19.0927 48.9587 19.388 48.7372 19.6834 48.4911C20.3726 48.5403 21.0617 48.5649 21.7755 48.5895C21.9478 48.5895 22.4893 48.688 22.5877 48.5403C22.637 48.3926 22.3416 48.3434 22.2432 48.3434C21.6032 48.2203 20.9879 48.0973 20.348 47.9988C20.3233 47.9988 20.3233 47.9988 20.2987 47.9988C20.6187 47.7527 20.9387 47.5312 21.2833 47.3096C21.7263 47.0143 22.1201 46.8174 22.5631 46.5466C23.0554 46.2267 23.2769 46.1282 23.843 45.9313C24.3353 45.759 24.6307 45.5867 25.0737 45.3406C25.6152 45.0206 26.0336 44.8483 26.6243 44.6022C27.1658 44.3807 27.3627 44.3807 27.6335 44.3807C27.6827 44.3807 27.7319 44.3807 27.7811 44.3807C28.1257 44.6268 28.4457 44.8975 28.8395 45.2175C28.9134 45.2667 29.4548 45.7344 29.4548 45.5375C29.4548 45.5129 29.5041 44.7006 29.4794 44.6268C29.4056 44.4053 29.2087 44.2576 28.9626 44.1592C29.1595 44.0853 29.3318 44.0361 29.5041 44.0115C29.7502 43.9869 29.9471 44.0115 30.1194 44.0115C30.4394 44.0361 30.7101 44.0361 31.227 43.8638C31.9408 43.6177 31.9654 43.6177 32.7284 43.6915C32.9745 43.7161 33.2453 43.7161 33.516 43.6915C33.7129 43.6915 33.9098 43.6915 34.1067 43.6915C34.5744 43.7161 35.0174 43.79 35.4605 43.7653C36.0266 43.7161 36.125 43.7407 36.6911 43.8146C36.7157 43.47 36.7403 43.1992 36.7896 42.8547C36.8142 42.6824 36.8388 42.6824 36.765 42.6824C36.7404 42.6824 36.7404 42.6824 36.7157 42.6824C36.3958 42.6577 36.0758 42.6331 35.7558 42.6085C34.9928 42.5347 34.3775 42.5839 33.6145 42.6331C33.0484 42.6577 32.7284 42.707 32.1869 42.8054C31.8177 42.8793 31.5962 42.8547 31.3254 42.8547C31.1778 42.8547 31.0301 42.8547 30.8578 42.8547C30.0456 42.8793 29.7256 43.1992 29.061 43.3223C28.4949 43.4208 28.1996 43.4208 27.6827 43.6177C26.7228 43.2731 25.8613 42.8054 24.926 42.3378ZM22.6616 41.2056C22.1201 40.9594 21.874 40.8856 21.6032 40.7379C21.9232 40.5164 22.2186 40.2949 22.5385 40.0734C23.2031 39.6549 23.8184 39.5565 24.4584 39.2119C25.1475 38.8427 25.7875 38.6212 26.5013 38.3012C27.9288 37.6613 29.4548 37.2675 30.9562 36.8983C31.3747 36.7998 31.8177 36.726 32.2608 36.6521C32.433 36.9967 32.5807 37.2921 32.753 37.612C32.6546 37.6367 32.5315 37.6613 32.433 37.6613C31.8423 37.7351 31.2516 37.8582 30.6855 38.0305C29.8979 38.2274 28.9626 38.4735 28.2242 38.7442C27.6089 38.9658 26.8951 39.2611 26.3044 39.5319C25.7382 39.778 25.0737 40.0241 24.5568 40.3195C23.9169 40.6641 23.4246 40.984 22.76 41.2794C22.7354 41.2548 22.7108 41.2302 22.6616 41.2056ZM23.9907 34.7815C24.0645 34.7569 24.1138 34.7077 24.1876 34.6831C24.1876 34.8061 24.1876 34.9292 24.1876 35.0523C24.1138 34.9538 24.0645 34.88 23.9907 34.7815ZM12.8655 40.4672C12.8409 40.4672 12.8409 40.4426 12.8163 40.4426C12.964 40.2457 13.1117 40.0734 13.284 39.8518C13.7762 39.1873 14.0962 38.8673 14.6869 38.2766C15.3761 37.612 15.893 36.8736 16.5329 36.1599C17.0744 35.5691 17.6651 35.1507 18.2312 34.5846C18.8712 33.9447 19.0188 33.7478 19.8065 33.2555C20.0772 33.1078 20.3233 32.9355 20.5695 32.7879C20.8156 32.9848 21.0864 33.1571 21.5048 33.4524C21.7755 33.6247 22.0463 33.797 22.3416 33.9447C22.3662 33.9447 22.3662 33.9693 22.3908 33.9693C21.7755 34.3139 21.2094 34.6831 20.791 35.0769C20.1018 35.7414 19.6342 36.1845 18.8219 36.7014C18.2066 37.0952 17.6405 37.489 17.0744 37.9074C17.0006 37.932 16.9513 37.9566 16.9021 38.0305V38.0551C16.6314 38.252 16.3852 38.4735 16.1145 38.6704C15.4499 39.2365 14.9823 39.9503 14.4162 40.6149C14.2931 40.7379 14.1947 40.8856 14.0716 41.0087C13.6285 40.9102 13.3086 40.7133 12.8655 40.4672ZM28.1011 32.6894C28.175 32.6648 28.2488 32.6156 28.3472 32.5909C28.3719 32.5663 28.3965 32.5663 28.4457 32.5663C28.7657 32.9109 29.0856 33.2309 29.381 33.6001C29.6518 33.9447 29.9963 34.4862 30.3163 34.7323C30.6117 34.9784 31.0055 35.2492 31.3501 35.5445C31.2516 35.5691 31.1532 35.5938 31.0547 35.643C30.6609 35.7661 30.2671 35.8891 29.8486 36.0122C29.4548 36.1353 29.1349 36.2829 28.7411 36.4306C28.0765 36.6767 27.4858 37.0213 26.8212 37.2921C26.329 37.489 25.8367 37.612 25.3691 37.8828C24.8768 38.1535 24.5322 38.3012 24.0153 38.5227C23.4246 38.7935 23.1046 39.0642 22.5877 39.3842C22.0216 39.7042 21.4802 39.9995 20.9633 40.2949C20.9387 40.2703 20.8894 40.2457 20.8648 40.221C20.0034 39.5073 19.1911 38.9904 18.2558 38.4489C18.4035 38.3012 18.5758 38.1535 18.7481 38.0059C18.9942 37.8089 19.265 37.5628 19.4865 37.3905C20.1757 36.8736 20.9879 36.4798 21.7509 36.1106C22.4647 35.7414 23.0554 35.323 23.7446 34.9538C23.8923 35.1753 24.0646 35.3722 24.2122 35.5938C24.2122 36.1845 24.2368 36.6521 24.2368 36.9721C24.2615 37.169 24.4338 37.3167 24.6307 37.2921C24.8276 37.2675 24.9752 37.0952 24.9506 36.8983C24.9506 36.7506 24.9506 36.6029 24.926 36.4552C25.0245 36.5537 25.1229 36.6521 25.2214 36.7506C25.369 36.8736 25.689 37.2428 25.8613 37.1198C25.9105 37.0706 25.9105 36.9967 25.8859 36.9229C25.7875 36.6521 25.1475 36.0614 24.9014 35.8153C24.9014 35.3722 24.8768 34.88 24.8522 34.3877C25.2214 34.1908 25.5906 33.9693 25.9352 33.7232C25.9598 33.6985 25.9844 33.6985 26.009 33.6739C26.009 33.9939 26.009 34.3139 25.9844 34.6585C25.9844 34.8554 26.1321 35.003 26.329 35.003C26.5259 35.003 26.6736 34.8554 26.6736 34.6585C26.6736 34.1908 26.6735 33.7478 26.6489 33.3047C27.1658 33.034 27.6089 32.8863 28.1011 32.6894C28.1011 32.714 28.1011 32.7386 28.1011 32.7386C28.1011 32.7386 28.1011 32.714 28.1011 32.6894ZM10.6504 39.9257C10.6011 39.9257 10.5765 39.9011 10.5519 39.9011C10.6011 39.8272 10.6503 39.7288 10.6996 39.6549C11.5118 38.3751 12.0041 38.3504 13.1117 37.5628C13.6778 37.169 13.7762 36.9721 14.2193 36.4798C14.5639 36.086 14.8838 35.6922 15.253 35.323C15.9422 34.6585 16.5575 33.5016 17.3205 33.0094C18.0343 32.5417 18.6989 32.1725 19.3634 31.6803C19.5603 31.8526 19.7572 32.0002 19.9295 32.1971C19.9788 32.2464 20.028 32.2956 20.0772 32.3448C19.8065 32.5417 19.5357 32.7386 19.265 32.9601C18.502 33.5755 17.6897 34.0431 16.9759 34.6831C16.3606 35.2246 15.8191 35.643 15.1546 36.1106C14.3916 36.6521 13.6532 37.4151 13.0132 38.1043C12.5702 38.572 12.1271 39.0642 11.7087 39.5565C11.5857 39.6795 11.4626 39.8272 11.3641 39.9749C11.118 39.9749 10.8965 39.9503 10.6504 39.9257ZM22.5877 33.6739C22.1201 33.5263 21.5294 32.9355 21.0617 32.5171C21.0864 32.5171 21.111 32.4925 21.111 32.4925C22.0463 31.9264 23.0062 31.4834 23.9415 30.8926C24.0153 30.8434 24.0892 30.7942 24.1384 30.7696C24.1384 31.631 24.163 32.4433 24.163 33.1571C23.7446 33.3293 23.3015 33.5263 22.8585 33.7724C22.7847 33.7232 22.6862 33.6985 22.5877 33.6739ZM9.29663 39.5319C9.32124 39.5073 9.34585 39.4827 9.34585 39.458C10.0104 38.572 10.6504 38.0059 11.4134 37.2182C12.3733 36.2091 13.2594 35.2492 14.2439 34.2646C15.1792 33.3293 16.1391 32.3694 17.1729 31.5572C17.4928 31.3111 17.7882 30.9911 18.1082 30.6957C18.1328 30.7203 18.182 30.745 18.2312 30.7942C18.3543 30.8926 18.4773 30.9911 18.6004 31.0895C18.4773 31.1634 18.3543 31.2618 18.2066 31.3849C17.8128 31.7787 17.5174 32.0741 17.0498 32.4187C16.4591 32.8863 15.8683 33.2309 15.2776 33.6739C14.0224 34.56 12.5456 36.0614 11.7333 37.3659C11.3395 38.0059 11.0442 38.8427 10.5519 39.3596C10.4042 39.5319 10.2565 39.6549 10.1335 39.8026C9.83811 39.7288 9.56737 39.6303 9.29663 39.5319ZM26.6243 30.5727C26.9443 30.9173 27.2643 31.2618 27.5596 31.6064C27.5842 31.6556 27.6335 31.6803 27.6581 31.7049C27.3381 31.8526 27.0181 32.0002 26.6736 32.1479C26.6736 31.6064 26.6489 31.0895 26.6243 30.5727ZM24.7537 30.4004C24.9752 30.2773 25.2214 30.1789 25.6152 30.0558C25.7383 30.0066 25.8613 29.982 26.009 29.9327C26.0336 29.9327 26.0336 29.9327 26.0582 29.9081C26.0582 30.7203 26.0582 31.5326 26.0582 32.394C25.7629 32.5171 25.4675 32.6402 25.1475 32.7632C25.0491 32.7879 24.9506 32.8371 24.8522 32.8863C24.8029 32.0987 24.7783 31.2618 24.7537 30.4004ZM27.5842 30.7696C27.2397 30.4004 26.9197 30.0312 26.5997 29.6866C26.9935 29.5143 27.3381 29.3174 27.7565 29.0959C27.7811 29.0713 27.8304 29.0713 27.855 29.0466C27.9288 29.7604 27.9781 30.4742 28.0273 31.2372C27.8796 31.0895 27.7319 30.9173 27.5842 30.7696ZM24.7045 28.4805C24.9014 28.6528 25.0983 28.8251 25.2706 29.022C25.0491 29.1943 24.9014 29.3912 24.7291 29.5635C24.7291 29.2189 24.7291 28.8497 24.7045 28.4805ZM19.708 31.4341L19.7326 31.4095C20.3972 30.868 21.111 30.4988 21.7755 29.9573C22.4155 29.4405 22.7847 29.2928 23.4738 28.8744C23.6954 28.7513 23.9169 28.6036 24.1384 28.4805C24.1384 29.022 24.1384 29.5389 24.1384 30.0558C23.6461 30.3265 22.7847 30.7203 22.5139 30.8188C21.8247 31.0895 21.6032 31.2618 21.0125 31.6803C20.8402 31.8033 20.6679 31.9264 20.4956 32.0495C20.2249 31.8526 19.9788 31.6557 19.708 31.4341ZM25.0737 27.8652C25.3937 27.6437 25.6398 27.496 25.9844 27.2991C26.009 27.7175 26.009 28.136 26.0336 28.5544C25.9351 28.6036 25.8367 28.6528 25.7383 28.7267C25.4921 28.4313 25.2952 28.136 25.0737 27.8652ZM28.1257 31.3603C28.1257 30.5234 28.1011 29.7358 28.0765 28.9482C28.5442 28.7267 29.0118 28.4805 29.5041 28.3083C29.6271 28.259 29.7256 28.2344 29.8486 28.2098C30.7593 27.9883 30.8824 28.0867 31.7439 27.5206C32.1623 27.2499 32.5561 27.2007 33.0238 27.0038C33.0238 27.0038 33.0484 27.0038 33.073 26.9791C33.1468 27.1514 33.2699 27.3237 33.5899 27.6683C34.1806 28.3329 34.1806 28.8497 34.5252 29.4158C34.279 29.4651 34.0329 29.5389 33.7868 29.5881C33.2945 29.6866 33.0484 29.785 32.5807 29.9573C32.2115 30.105 31.8669 30.1542 31.4977 30.2773C30.9562 30.4496 30.4148 30.6219 29.8979 30.7942C29.3318 30.9911 28.7411 31.1634 28.1996 31.4341C28.1996 31.4095 28.1749 31.3849 28.1257 31.3603ZM18.5266 30.3265C18.6989 30.1789 18.8465 30.0558 19.0188 29.9573C19.8803 29.3912 20.5202 28.8005 21.3325 28.2344C21.8247 27.8898 22.4401 27.3976 22.9569 27.1268C23.0554 27.0776 23.1292 27.0284 23.2277 26.9791C23.4246 27.2253 23.7692 27.5945 23.8923 27.7175C23.8923 27.7175 23.8923 27.7175 23.9169 27.7422C23.6215 27.9391 23.3754 28.1606 23.0308 28.3329C22.6124 28.5544 22.3416 28.6775 21.9232 28.9482C21.6278 29.1451 21.3325 29.2928 21.0125 29.4897C20.5203 29.785 20.4218 30.0804 20.0526 30.4004C19.7572 30.6711 19.4127 30.745 19.0435 30.8926C18.8958 30.6711 18.7235 30.4988 18.5266 30.3265ZM26.4274 27.0776C26.8212 26.8807 27.1658 26.733 27.5842 26.6099C27.6335 27.053 27.7073 27.496 27.7565 27.9637C27.3135 28.0867 26.9197 28.1852 26.5259 28.3329C26.4766 27.9144 26.452 27.496 26.4274 27.0776ZM23.9415 26.5607C23.9907 26.5361 24.0645 26.4869 24.1138 26.4623C24.1138 26.5607 24.1138 26.6592 24.1138 26.7576C24.0645 26.6838 24.0153 26.6099 23.9415 26.5607ZM34.0575 26.7084C34.4513 26.6346 34.8451 26.5853 35.1405 26.5361C35.7804 26.4623 36.0266 26.3638 36.6173 26.2161C37.3311 26.0192 37.8233 26.0931 38.4879 25.9208C38.4879 25.9454 38.4879 25.97 38.5125 25.9946C38.5863 26.3638 38.7094 26.9545 38.8325 27.2991C39.0048 27.816 39.2509 28.2836 39.4478 28.7513C39.0294 28.7513 38.611 28.7759 38.1433 28.8251C37.7495 28.8744 37.3557 28.899 36.9619 28.9728C36.5188 29.0466 36.1004 29.0713 35.682 29.1697C35.6328 29.1697 35.5835 29.1943 35.5343 29.1943C35.042 28.3575 34.5744 27.5206 34.0575 26.7084ZM24.6553 26.1669C25.0983 25.9454 25.4921 25.7239 25.8859 25.5023C25.9105 25.8962 25.9352 26.29 25.9598 26.6838C25.7875 26.7822 25.6152 26.8561 25.4183 26.9545C25.1721 27.0776 24.926 27.176 24.6799 27.2991C24.6799 26.9053 24.6799 26.5361 24.6553 26.1669ZM27.8796 26.5361C27.978 26.5115 28.0519 26.4869 28.1503 26.4623C29.2826 26.1915 30.1932 25.5762 31.3747 25.3301C31.6454 25.2808 31.9162 25.1824 32.1869 25.1085C32.3838 25.4531 32.6053 25.7731 32.753 26.1423C32.753 26.1669 32.7776 26.1669 32.7776 26.1915C32.2854 26.3146 31.7931 26.4623 31.2762 26.5853C30.4886 26.7822 30.0948 27.1514 29.4056 27.3976C28.9626 27.5699 28.4703 27.7914 28.0273 27.9144C27.9781 27.4468 27.9288 26.9791 27.8796 26.5361ZM26.2797 25.2562C26.3536 25.207 26.4274 25.1578 26.5013 25.1085C26.8212 24.9116 27.0427 24.764 27.2889 24.6409C27.3627 25.0593 27.4119 25.4531 27.4858 25.8715C27.1166 26.0685 26.7474 26.2654 26.3782 26.4376C26.3536 26.0684 26.3043 25.65 26.2797 25.2562ZM33.0238 25.1085C32.9499 25.0347 32.8761 24.9609 32.8269 24.887C32.9499 24.8378 33.0976 24.8132 33.2207 24.7886C33.9344 24.6409 34.4513 24.4686 35.1159 24.2471C35.8789 24.0009 36.5927 23.9271 37.3557 23.7302C37.4787 23.681 37.6264 23.6564 37.7495 23.6317C37.8233 23.9763 37.9956 24.3455 38.0941 24.5424C38.1187 24.6409 38.1433 24.6901 38.1925 24.7886C37.9464 24.8132 37.6757 24.887 37.1834 25.0593C36.6173 25.2562 36.1496 25.2562 35.6081 25.4039C35.0667 25.5762 34.599 25.7485 34.0329 25.8715C33.8852 25.8962 33.7622 25.9454 33.6145 25.97C33.4668 25.6746 33.3191 25.4285 33.0238 25.1085ZM27.6089 24.4932C27.7565 24.4194 27.9288 24.3455 28.1011 24.2471C29.1103 23.7548 29.7502 23.5825 30.784 23.2872C30.8824 23.2625 31.0055 23.2133 31.1039 23.1887C31.2516 23.4595 31.3993 23.7302 31.5716 23.9763C31.3008 24.0994 30.9562 24.2225 30.7101 24.3701C30.1194 24.6655 30.0209 24.7886 29.3318 24.9362C28.7164 25.0839 28.298 25.4039 27.7811 25.6992C27.7073 25.3054 27.6581 24.9116 27.6089 24.4932ZM39.3247 24.8132C39.2509 24.8132 39.1771 24.7886 39.1032 24.7886C39.1032 24.7393 39.0786 24.7147 39.0786 24.6655C38.9555 24.1486 38.8571 23.8286 38.6848 23.4102C38.9555 23.361 39.2509 23.3118 39.5463 23.2625C40.3093 23.1395 40.9984 22.9672 41.7861 22.8933C42.4506 22.8195 43.0659 22.6964 43.7305 22.6226C44.5427 22.5488 45.5765 22.4503 46.3641 22.5734C46.438 22.5734 46.5118 22.598 46.5856 22.598C46.561 22.7211 46.5856 22.7211 46.7333 22.918C47.0779 23.4102 47.1517 23.5825 47.0533 24.0256C46.5856 24.0009 45.9211 23.9763 45.478 24.0009C45.1334 24.0256 44.8381 24.0994 44.5181 24.1486L44.4197 24.1732C44.0259 24.2225 43.7551 24.2225 43.509 24.2225C43.1152 24.2225 42.746 24.1979 42.0814 24.444C41.4661 24.6655 41.3923 24.6163 40.7769 24.6655C40.3093 24.6901 39.9155 24.8624 39.497 24.8624C39.4232 24.8378 39.374 24.8378 39.3247 24.8132ZM27.2397 22.278C27.2397 22.2288 27.2397 22.155 27.215 22.0811C27.1658 21.6627 27.1412 21.2443 27.1166 20.8012C28.9626 20.8258 30.907 20.8505 32.6792 20.8258C31.5716 21.2443 30.5132 21.6873 29.8733 21.9827C28.9872 22.4011 28.1996 22.6226 27.4119 23.1641C27.3381 22.8933 27.2889 22.598 27.2397 22.278ZM47.0287 19.3983C47.0533 19.3983 47.0533 19.3983 47.0779 19.3983C47.0779 19.9152 47.2256 20.0628 47.0533 20.6289C46.9548 20.9489 46.881 21.2443 46.8072 21.515C46.3395 21.5642 45.8719 21.6627 45.3796 21.6627C44.8627 21.6873 44.3458 21.8104 43.8536 21.8104C43.2875 21.8104 43.0906 21.7365 42.4752 21.835C41.8107 21.9334 41.2446 21.8596 40.58 21.958C40.1616 22.0319 39.7678 22.0811 39.3494 22.1303C38.9063 22.1796 38.5371 22.3026 38.0941 22.3272C37.3064 22.4011 36.5927 22.5241 35.805 22.6718C34.6236 22.8933 33.3683 23.2625 32.2361 23.7302C32.2115 23.681 32.2115 23.6317 32.1623 23.5825C32.1131 23.4841 31.9654 23.1887 31.8177 22.8933C32.1869 22.7211 32.5561 22.5241 33.0484 22.4011C33.4914 22.278 33.836 22.2042 34.279 22.0073C34.9928 21.7119 35.7312 21.5396 36.445 21.195C37.7987 20.5551 37.5034 20.7028 38.9555 20.5551C40.58 20.3828 41.343 19.4721 42.9675 19.5459C43.7797 19.5706 44.5181 19.5213 45.3304 19.4475C45.6503 19.4229 45.9703 19.4229 46.2657 19.4229C46.5364 19.3983 46.7825 19.3983 47.0287 19.3983ZM47.6686 20.6289C47.6932 20.5305 47.6686 19.9151 47.6686 19.349C48.5547 19.2998 49.3915 19.2752 50.3022 19.3244C50.4253 19.3244 50.5238 19.3244 50.5976 19.3244C50.7945 19.3244 50.7699 19.3244 50.7699 19.5459C50.7945 20.9243 50.6468 22.3272 50.696 23.7056C50.7206 24.3455 50.696 24.9116 50.696 25.527C50.696 26.5115 50.6222 27.4714 50.6468 28.4805C50.6468 29.3174 50.6222 30.1296 50.6468 30.9665C50.6714 31.508 50.6222 31.8033 50.5976 32.3202C50.5484 33.2063 50.6468 33.9693 50.6468 34.8554C50.6468 35.5691 50.5484 36.1845 50.5484 36.849C50.5484 37.4398 50.6222 37.9812 50.6222 38.5473C50.6222 39.2119 50.573 39.8026 50.5976 40.4918C50.6222 41.4517 50.6468 42.4116 50.6714 43.3715C50.7207 44.676 50.696 46.0298 50.7945 47.3096C50.8191 47.7773 51.1637 50.0663 51.0406 50.3125C50.9914 50.3863 50.9668 50.3863 50.8683 50.4355C50.0561 50.8293 47.6932 50.7309 46.7333 50.7801C46.3641 50.8047 45.9703 50.8293 45.5519 50.8786C45.2319 50.5832 44.9365 50.2878 44.6658 49.894C44.592 49.7956 44.5181 49.6971 44.4689 49.5741C44.1982 49.1556 43.7305 48.2449 43.3859 47.9742C43.1398 47.7773 43.0413 47.6788 42.8444 47.4327C42.3522 46.8912 42.3029 46.8174 41.663 46.4728C41.1461 46.2021 40.2847 45.1929 39.9647 44.676C39.5216 43.9869 39.3986 43.2731 38.734 42.7562C38.2418 42.3624 38.0695 42.2147 37.6757 41.7225C37.2818 41.2302 36.8634 40.8364 36.445 40.3687C35.9527 39.8272 35.4605 39.4334 34.9928 38.8919C34.919 38.7935 34.8451 38.7196 34.7713 38.6458C35.6328 38.572 36.5927 38.572 37.3065 38.5473C38.1433 38.5473 39.1032 38.5227 39.9401 38.572C40.137 38.572 40.1124 38.6458 40.137 38.4735C40.1616 38.0059 40.26 37.5382 40.2847 37.0952C40.1862 37.0952 40.0631 37.0706 39.9647 37.0706C39.2509 37.0213 38.5617 37.0952 37.8726 37.1198C37.3803 37.1444 36.8634 37.2428 36.3958 37.2182C35.9527 37.2182 35.5589 37.2428 35.1159 37.2675C34.4759 37.2921 34.2544 37.3413 33.6637 37.4644C33.6637 37.4644 33.6637 37.4644 33.6391 37.4644C33.3683 37.1936 32.9991 36.8983 32.7284 36.5783C32.753 36.5783 32.8022 36.5537 32.8269 36.5537C34.0083 36.2583 35.0667 36.1845 36.2727 36.0122C36.8634 35.9383 37.4295 35.9137 38.0202 35.8645C38.611 35.7907 39.1032 35.8153 39.6693 35.7907C40.3831 35.7414 40.9738 35.4953 41.6876 35.643C41.6384 35.2984 41.663 35.1999 41.7614 34.8554C41.3184 34.9046 40.9 34.8061 40.5062 34.7077C40.1124 34.6092 39.7432 34.5108 39.3001 34.5354C38.8079 34.56 38.4387 34.6338 37.9464 34.6092C37.3557 34.5846 36.9127 34.6092 36.3219 34.6831C35.2882 34.7815 34.2052 34.9292 33.1714 35.1261C32.8515 35.2 32.433 35.2738 32.0146 35.3476V35.323C31.547 34.5846 30.8824 34.1416 30.3163 33.477C29.9471 33.0586 29.6271 32.7632 29.2579 32.394C29.2087 32.3448 29.1841 32.3202 29.1349 32.271C29.9717 31.951 30.7347 31.7049 31.67 31.4834C32.7776 31.2372 33.836 30.8434 34.9436 30.6957C35.1405 30.6711 35.3128 30.6465 35.5097 30.6219C35.5589 30.745 35.6328 30.868 35.7066 31.0157C35.8789 31.4587 35.9773 31.8526 36.5434 31.6803C36.7157 31.5818 36.8388 31.4341 36.7896 31.2372C36.765 31.1634 36.5681 30.7942 36.3958 30.4988C36.9126 30.425 37.4049 30.3511 37.9218 30.3019C38.611 30.2281 39.3001 30.105 39.9893 30.0312C40.0631 30.4496 40.137 30.868 40.4077 31.2618C40.7523 31.7541 40.9984 32.0002 41.2446 32.5663C41.663 33.5509 42.0076 34.56 42.4014 35.5691C42.4506 35.6676 42.4752 35.7661 42.5244 35.8645C42.746 36.5045 43.0167 37.1444 43.0906 37.8336C43.1644 38.5227 43.1644 38.572 43.4351 39.2365C43.6567 39.8272 43.6074 40.2703 43.9766 40.8118C44.3458 41.3779 44.4197 41.944 44.7889 42.5101C45.3304 43.3715 45.6011 43.9376 45.9457 44.8975C46.2903 45.8821 46.6103 46.8174 46.9795 47.8019C47.201 48.368 47.7917 48.1219 47.7671 47.7281C47.7671 47.605 47.1763 46.079 47.0779 45.8328C46.881 45.316 46.5364 44.8483 46.3887 44.3561C46.2657 43.9376 46.1918 43.6423 45.9949 43.2485C45.7488 42.707 45.6011 42.3378 45.4288 41.7471C45.4042 41.6486 45.3796 41.5502 45.355 41.4271C45.2073 40.7625 45.2073 40.6641 44.8873 40.0487C44.592 39.5073 44.4935 39.0396 44.6658 38.4243C44.7643 38.0797 44.9119 37.6613 44.7889 37.2921C44.6166 36.849 43.9274 36.0122 43.5582 35.6922C42.9183 35.1261 42.9429 35.003 42.7214 34.1908C42.5983 33.797 42.426 33.5016 42.3029 33.1571C42.2783 33.0586 42.2291 32.9601 42.2045 32.8617C41.9584 32.0741 42.4014 31.7295 42.0568 31.1388C41.8107 30.6711 41.7122 30.4004 41.6384 29.8835H41.663C42.5244 29.7604 43.0167 29.662 43.8536 29.8343C44.4689 29.9573 44.7643 29.9819 45.3796 30.0066C45.4042 29.5635 45.4288 29.0959 45.4534 28.6528C44.9858 28.6282 44.6166 28.6036 44.1243 28.6775C43.4105 28.8005 43.2875 28.8744 42.5491 28.8251C42.1306 28.8005 41.7368 28.8497 41.3184 28.8744C41.1707 28.6036 41.023 28.3329 40.8508 28.0375C40.5062 27.496 40.0877 27.053 39.8662 26.4376C39.7678 26.1915 39.6693 25.9454 39.5709 25.6746C39.9647 25.5516 40.2846 25.527 40.8015 25.4777C41.1215 25.4531 41.4169 25.4531 41.7122 25.4531C41.9584 25.4531 42.2045 25.4531 42.4752 25.4285C43.3613 25.3547 44.1243 25.2562 45.0104 25.3301C45.6749 25.3793 46.3395 25.4039 47.0041 25.4285C47.6686 26.0438 47.4717 26.6838 47.4471 27.4714C47.4225 28.0867 47.7425 28.3821 47.8163 29.0466C47.8655 29.7604 47.7671 29.9573 48.0132 30.745C48.3332 31.8279 48.2347 32.2956 48.0624 33.4032C47.9886 33.8955 47.964 35.0523 48.1363 35.4953C48.2593 35.8153 48.6285 36.086 48.7762 35.6676C48.8993 35.2492 48.7762 33.6739 48.727 33.1817C48.6531 32.5417 48.4809 31.6803 48.5055 31.0649C48.5301 30.4004 48.6039 30.0312 48.4809 29.3174C48.3824 28.6528 48.4562 28.3329 48.4562 27.6929C48.4809 26.7822 48.1855 26.1423 48.2101 25.3054C48.2101 25.1824 48.2101 25.0839 48.2101 24.9609C48.2101 24.444 48.2101 23.3856 47.9394 22.9918C47.8901 22.918 47.8409 22.8687 47.8163 22.8195C48.3086 22.8441 48.8254 22.8441 49.3423 22.8687C49.3669 22.4503 49.3915 22.0319 49.3915 21.6135H49.3177C48.7516 21.5889 48.2101 21.5642 47.644 21.5642C47.5702 21.5642 47.4963 21.5642 47.4225 21.5889C47.4225 21.1704 47.644 20.8258 47.6686 20.6289ZM24.606 18.9552C24.926 18.9552 25.2706 18.9552 25.6152 18.9306C25.566 19.6444 25.566 20.1121 25.566 20.6043C25.3198 20.6535 25.0491 20.7028 24.8029 20.7766C25.0491 20.7766 25.3198 20.8012 25.566 20.8012V20.8258C25.5413 21.1704 25.4921 21.515 25.4921 21.9088C25.4675 22.6472 25.689 23.5333 25.6152 24.1979C25.2706 24.3455 24.9506 24.4932 24.6553 24.6655C24.606 22.7457 24.606 20.8258 24.606 18.9552ZM24.606 18.1676C24.606 17.1585 24.6307 16.1739 24.6307 15.214C24.9752 15.214 25.3444 15.214 25.689 15.214C25.7382 15.6325 25.7875 16.0509 25.8367 16.4447C25.8367 16.5185 25.8121 16.5678 25.8121 16.6416L25.3691 16.6662H25.8121C25.7875 16.9123 25.7629 17.1585 25.7629 17.4538C25.7629 17.6753 25.7382 17.9215 25.7136 18.1676C25.3444 18.1922 24.9752 18.1922 24.606 18.1676ZM39.817 15.1648C37.7987 15.7555 29.5533 16.4447 26.9197 16.5924C26.8951 16.2232 26.8951 15.8786 26.8951 15.534C26.8951 15.4355 26.8951 15.3125 26.8951 15.214C29.1103 15.214 31.3747 15.2386 33.6145 15.2386C35.7312 15.2386 37.7987 15.2386 39.817 15.1648ZM24.6553 14.8694C24.6553 14.6233 24.6553 14.4018 24.6799 14.1803C24.9014 14.1803 25.2214 14.1803 25.6398 14.1803C25.6644 14.4018 25.6644 14.6479 25.689 14.8694C25.3444 14.8694 24.9999 14.8694 24.6553 14.8694ZM26.9689 13.368C29.0364 13.4173 31.5716 13.4665 32.7776 13.6634C30.7593 13.8849 28.8887 13.9588 26.9443 14.0572C26.9443 13.8111 26.9443 13.5896 26.9689 13.368ZM24.7045 13.2696C24.9506 13.2942 25.246 13.2942 25.566 13.3188C25.5906 13.5896 25.5906 13.8357 25.6152 14.1064C25.2952 14.131 24.9752 14.131 24.6553 14.1557C24.6799 13.8603 24.6799 13.5649 24.7045 13.2696ZM24.8276 10.4637C24.9752 10.4637 25.1475 10.4391 25.3691 10.4391C25.4675 11.3498 25.5167 12.2604 25.566 13.1711C25.246 13.1711 24.9506 13.1711 24.7045 13.1957C24.7291 12.2112 24.7783 11.3005 24.8276 10.4637ZM24.9014 9.28225C24.9999 9.28225 25.0983 9.28225 25.2214 9.28225C25.2706 9.60222 25.2952 9.92219 25.3444 10.2668C25.1721 10.2914 24.9998 10.2914 24.8522 10.316C24.8522 9.9468 24.8768 9.60222 24.9014 9.28225ZM25.689 9.28225C25.7136 9.28225 25.7136 9.28225 25.7383 9.28225C25.7383 9.33147 25.7383 9.35608 25.7383 9.40531C25.7383 9.50376 25.7383 9.5776 25.7383 9.65144C25.7136 9.52838 25.689 9.40531 25.689 9.28225ZM27.0181 9.25763C29.9471 9.23302 32.9007 9.23302 35.805 9.10995C32.9007 8.98688 29.9471 8.96227 27.0181 8.96227C27.0181 8.78998 27.0427 8.6423 27.0181 8.47001C28.7411 8.61768 30.6117 8.59307 32.4577 8.59307C34.3529 8.56846 36.2235 8.56846 37.971 8.71614C38.5617 8.76536 41.1953 9.03611 42.6967 9.2084C39.8908 9.62683 32.3838 9.5776 30.2917 9.82373C29.1841 9.9468 28.0765 10.0453 26.9443 10.1437C26.9443 9.82374 26.9935 9.55299 27.0181 9.25763ZM25.5413 8.2731C25.5906 8.2731 25.6152 8.29772 25.6644 8.29772C25.6644 8.51924 25.689 8.74075 25.689 8.96227C25.6644 8.96227 25.6644 8.96227 25.6398 8.96227C25.6152 8.71614 25.5906 8.49462 25.5413 8.2731ZM24.926 8.93766C24.9506 8.66692 24.9752 8.42078 24.9999 8.17465H25.0245C25.0737 8.42078 25.1229 8.66692 25.1475 8.93766C25.0983 8.93766 25.0245 8.93766 24.926 8.93766ZM27.0181 4.58112C28.9872 4.63035 30.9562 4.63034 32.9007 4.65496C31.6208 4.87648 29.1349 5.098 26.9935 5.27029C26.9935 5.02416 27.0181 4.80264 27.0181 4.58112ZM5.9 2.3167C6.17074 2.3167 6.41688 2.3167 6.68762 2.3167C6.41688 6.77169 6.02307 11.6451 6.07229 16.2232C5.67848 11.4728 5.82616 7.46086 5.9 2.3167ZM17.9605 2.3167C18.4035 2.3167 18.7481 2.31671 19.1173 2.2921C18.8958 5.61488 18.7973 16.3462 18.6004 19.349C17.9112 16.3462 16.5329 5.68871 16.2129 2.3167C16.6806 2.34132 17.1236 2.34132 17.6159 2.34132C17.7143 2.31671 17.8374 2.3167 17.9605 2.3167ZM8.77975 2.2921C9.56737 2.2921 10.4534 2.07057 11.1672 2.1198C11.3395 2.1198 11.4872 2.14442 11.6349 2.16903C12.5456 10.4391 11.5857 17.0846 13.3824 25.6992C13.2594 24.0748 13.3332 24.8378 13.1363 23.2379C12.2748 15.8047 12.9886 9.40531 12.324 2.24287C12.6194 2.26748 12.9148 2.26748 13.3086 2.24287C14.2685 2.14441 14.4162 2.1198 15.4007 2.21825C15.4499 2.21825 15.4745 2.21825 15.4991 2.21825C15.893 6.00869 17.7143 20.6782 18.7235 20.4813C19.4127 20.3582 19.388 5.68872 19.2404 2.26748C19.5357 2.24287 19.8311 2.21826 20.2003 2.16903C21.0125 2.07058 21.3571 2.19364 22.1201 2.19364H22.1447C21.9478 6.79631 22.0955 11.1036 22.1201 15.6817C22.5139 14.1064 22.2924 4.97493 22.1693 2.19364C22.7354 2.19364 23.3261 2.09519 23.8184 2.1198C24.2368 2.14441 24.6799 2.16903 25.0983 2.16903C25.566 2.16903 25.4921 2.04596 25.4675 2.39055C25.4675 2.51361 25.4429 2.63668 25.4429 2.75975C24.5076 2.83359 23.7446 2.93204 23.2769 3.07971C23.1785 3.27662 23.2523 3.52276 23.4246 3.62121C23.6215 3.71966 23.8676 3.64582 23.9661 3.47353C24.1138 3.57198 24.6553 3.59659 25.3937 3.59659C25.3937 3.89195 25.3937 4.1627 25.3937 4.45806C24.6553 4.48267 24.1138 4.50729 23.9169 4.50729C24.4091 4.5319 24.9014 4.55651 25.3937 4.55651C25.4183 4.80264 25.4429 5.098 25.4675 5.39335C24.5814 5.46719 23.843 5.54104 23.4246 5.61488C24.0892 5.59027 24.7783 5.54103 25.4921 5.51642C25.4921 5.56565 25.4921 5.59026 25.5167 5.63949C25.6644 6.52556 25.6644 6.79631 25.6152 7.51009C25.5167 7.48548 25.4183 7.48548 25.3198 7.46087C25.2706 7.23935 25.2214 7.04244 25.1475 6.87015C24.926 6.30404 24.7537 6.52557 24.606 7.31319C24.3599 7.26396 24.1384 7.19012 23.9169 7.11628C23.72 7.01783 23.4738 7.11628 23.4 7.31319C23.3015 7.51009 23.4 7.75623 23.5969 7.83007C23.8923 7.92852 24.1876 8.00236 24.5076 8.05159C24.483 8.29772 24.4584 8.59307 24.4337 8.88843C24.3107 8.88843 24.163 8.88843 24.0399 8.88843C23.9415 8.88843 23.8676 8.96228 23.8676 9.06073C23.8676 9.15918 23.9415 9.23302 24.0399 9.23302C24.163 9.23302 24.2861 9.23302 24.4091 9.23302C24.3845 9.55299 24.3599 9.92219 24.3353 10.2914C23.9415 10.316 23.5723 10.3652 23.2031 10.3898C23.6953 10.4145 24.0153 10.4391 24.3353 10.4391C24.2861 11.2513 24.2615 12.162 24.2122 13.1711C24.1384 13.1711 24.0892 13.1711 24.0399 13.1957C24.0892 13.2204 24.0646 13.1957 24.1384 13.2204C24.163 13.2204 24.1876 13.2204 24.2122 13.2204C24.1876 13.7372 24.1876 14.2787 24.163 14.8448C23.9661 14.8448 23.7692 14.8448 23.5723 14.8448C23.4738 14.8448 23.4 14.9187 23.4 15.0171C23.4 15.1156 23.4738 15.1894 23.5723 15.1894C23.7692 15.1894 23.9661 15.1894 24.163 15.1894C24.1384 16.1493 24.1138 17.1339 24.1138 18.143C24.0399 18.143 23.9661 18.143 23.8923 18.143C23.6707 18.143 23.4984 18.3153 23.4984 18.5368C23.4984 18.7583 23.6707 18.9306 23.8923 18.9306C23.9661 18.9306 24.0399 18.9306 24.1138 18.9306C24.0892 20.8997 24.0892 22.9426 24.0892 24.9116C22.9816 25.6008 21.8001 26.3146 20.7172 27.053C20.0772 27.496 19.388 27.9144 18.7727 28.4067C18.2066 28.8744 17.9851 29.1205 17.3205 29.5143C16.2129 30.1789 15.7699 30.9911 14.81 31.6803C13.8747 32.3448 13.2594 32.7879 12.4963 33.6739C12.0779 34.1662 11.7579 34.5108 11.3149 34.9538C10.6503 35.643 10.3796 36.2091 9.8135 36.8983C9.32124 37.5136 9.14895 38.0305 8.58284 38.6212C8.38594 38.8181 8.23825 38.9658 8.11519 39.1134C7.94289 39.0396 7.84445 39.015 7.79522 39.2611C7.77061 39.3842 7.7706 39.4826 7.7706 39.5565C7.59831 39.8026 7.42602 40.0734 7.17989 40.5164C6.68762 41.3779 5.75232 42.1163 5.21083 42.9531C4.54628 44.0115 3.73404 45.2668 3.26639 46.4236C2.89719 47.3589 2.84796 47.5065 2.23263 48.2942C2.25725 48.0234 2.23263 47.7527 2.20802 47.4819C2.10956 46.8174 1.9865 46.2759 1.91266 45.6113C1.7896 44.3561 1.51885 44.1838 1.76498 42.8054C2.01111 41.4763 1.88805 39.9011 1.86343 38.5227C1.83882 37.7351 1.76498 36.8983 1.76498 36.1353C1.7896 34.6092 1.81421 33.1078 1.81421 31.5572C1.81421 29.7358 2.08495 27.9883 2.23263 26.1669C2.30647 25.1085 2.1834 24.1732 2.20802 23.1395C2.23263 22.3765 2.42954 21.5889 2.33108 20.8751C2.23263 20.1121 2.03573 19.3737 1.88805 18.6106C2.10957 13.245 2.10957 7.75623 2.1588 2.39055C2.23264 2.31671 2.33108 2.2921 2.45415 2.2921C3.02025 2.2921 3.61097 2.2921 4.17707 2.2921C4.20169 10.8329 3.88172 21.2935 4.7678 29.5389C4.64473 20.4074 4.79241 11.399 4.86625 2.2921C4.9647 2.2921 5.06316 2.2921 5.137 2.2921C5.11238 5.56565 4.86625 21.072 6.31843 21.072C6.34304 20.9243 6.34304 20.8012 6.36766 20.6535L6.53994 20.752C6.49072 20.4813 6.46611 20.2105 6.44149 19.9644C6.81069 15.1156 6.66301 8.59307 6.78608 3.59659L6.76146 2.26748C7.00759 2.26748 7.22912 2.26748 7.47525 2.26748C7.9429 2.31671 8.36132 2.31671 8.77975 2.2921ZM28.3226 2.14442C29.1349 2.07058 29.9471 2.09519 30.7593 1.97212C31.7685 1.79983 31.8669 1.67676 32.9253 1.87367C33.7129 2.02135 34.3036 2.14441 35.1405 2.19364C35.4358 2.21825 35.7066 2.19364 35.9773 2.19364C36.2481 2.19364 36.4942 2.16902 36.765 2.19364C37.651 2.24286 38.4633 2.29209 39.374 2.3167C40.2108 2.34132 40.9246 2.3167 41.7368 2.3167C42.1306 2.3167 42.5491 2.34132 42.9429 2.36593C43.4351 2.41516 43.9274 2.43978 44.4197 2.41516C45.2073 2.36594 45.6011 2.36593 46.4133 2.43977C47.0533 2.51361 47.3979 2.43977 48.0132 2.43977C48.6778 2.43977 48.9485 2.51361 49.5638 2.58745C49.8592 2.63668 50.1299 2.53823 50.3268 2.73513C50.573 2.95665 50.4745 3.37507 50.4991 3.71966V3.84273C50.573 4.58112 50.4991 5.4672 50.4991 6.23021C50.4991 7.06706 50.5976 7.80545 50.5237 8.66691C50.4745 9.35608 50.6222 9.9468 50.573 10.636C50.5237 11.522 50.4253 11.9651 50.5237 12.9004C50.573 13.4911 50.5976 14.0818 50.5976 14.6725C50.5976 15.2386 50.7206 15.8294 50.696 16.3708C50.6714 16.8139 50.696 17.06 50.7207 17.5031C50.5976 17.5031 50.4499 17.4784 50.3268 17.4784C49.1946 17.4046 48.6531 17.5523 47.5456 17.6507C47.0779 17.7 46.6595 17.7738 46.2411 17.8476C43.2382 17.6753 41.1953 17.6753 38.1433 17.8723C41.1215 18.0445 43.1398 18.0445 46.0195 17.8969C45.6257 17.9707 45.2073 18.0692 44.7643 18.143C44.0751 18.2907 43.4598 18.4137 42.7706 18.586C41.8845 18.8076 41.2446 18.8814 40.3831 19.0291C39.497 19.1768 38.7833 19.4721 37.9218 19.6444C37.2572 19.7921 36.8388 19.7921 36.1742 19.8659C35.6328 19.9398 34.8451 20.1367 34.0083 20.432C33.9837 20.2105 33.7868 20.0628 33.5899 20.0874C31.3747 20.2597 29.2333 20.1859 27.1166 20.432C27.092 19.9398 27.0427 19.4721 27.0181 18.9798C30.2425 18.9552 33.5652 18.906 36.6665 18.6353C33.5652 18.3645 30.2425 18.2907 26.9935 18.2661C26.9935 18.143 26.9935 17.9953 26.9935 17.8723C26.9935 17.5031 26.9689 17.1339 26.9443 16.7647H27.7073C28.6426 16.74 40.8508 15.8294 40.3585 15.091C39.054 14.9679 39.7924 15.0171 37.8479 14.9925C34.2052 14.9433 30.5624 14.9433 26.9197 14.9433C26.9197 14.7218 26.9197 14.4756 26.9443 14.2541C30.2425 14.2541 35.3866 14.131 33.2945 13.4665C32.9007 13.3434 29.5533 13.245 26.9935 13.2204C26.9935 13.0973 27.0181 12.9742 27.0181 12.8512C27.092 12.1866 27.0674 11.9159 27.0181 11.4974C29.4548 11.4728 32.0392 11.4728 34.3283 11.3744C35.8789 11.3005 37.3557 11.2267 38.8325 10.8083L38.4141 10.8329C34.3775 11.2021 30.9316 10.9559 27.0181 11.3744C26.9935 11.2267 26.9935 11.0544 26.9689 10.8329C26.9443 10.6852 26.9443 10.5375 26.9443 10.3898C30.2178 10.2175 33.196 10.0453 36.5434 9.97141C36.6173 9.97141 36.9373 9.97141 37.4049 9.99603C39.5216 10.0453 44.6904 10.0945 44.0997 9.0115C43.9028 8.66691 38.6848 8.17465 38.0449 8.10081C34.6975 7.75622 30.4886 8.07619 26.9935 7.73161C26.9197 7.06705 26.8951 6.64863 26.9689 5.81178C26.9689 5.71333 26.9935 5.61487 26.9935 5.51642C29.2087 5.41797 31.4731 5.2949 33.4668 4.90109C33.9098 4.80264 34.0329 4.58112 33.9098 4.45806C37.8233 4.55651 41.7861 4.5319 45.675 4.33499C40.9984 4.11347 36.2481 4.13808 31.5716 4.33499C30.2425 4.33499 28.5195 4.38421 27.0427 4.40883C27.0427 4.11347 27.0427 3.84272 27.0427 3.54736C28.4949 3.47352 30.021 3.35046 30.4148 3.35046C34.6482 3.30123 39.2755 3.39969 43.4598 3.07971C41.9584 2.95665 42.5245 2.98126 41.0231 2.93203C38.4141 2.85819 31.5224 2.53822 26.9935 2.71052C26.9689 2.56284 26.9689 2.39054 26.9443 2.21825C27.1166 2.21825 27.2889 2.24287 27.4366 2.24287C27.7319 2.19364 28.0027 2.19364 28.3226 2.14442ZM44.8873 0.667623C43.952 0.667623 43.0413 0.667623 42.106 0.667623C41.7615 0.667623 41.4661 0.692238 41.1461 0.692238C40.6785 0.716851 40.2108 0.741458 39.6939 0.716845C38.6356 0.643006 38.2171 0.667623 37.1588 0.790689C36.6665 0.864529 36.2235 0.839916 35.7804 0.790689C35.3374 0.766076 34.8697 0.741464 34.3775 0.815304C33.196 0.962983 32.0146 0.864524 30.8332 0.839911C30.5378 0.839911 30.2178 0.839911 29.8979 0.839911C29.5533 0.839911 29.1841 0.839911 28.8641 0.839911C28.0765 0.790685 27.6089 0.766078 26.7966 0.815304C26.1074 0.86453 25.7136 0.790689 25.0491 0.790689C24.8276 0.790689 24.5814 0.815304 24.3353 0.815304C24.0399 0.839917 23.72 0.864524 23.4492 0.839911C22.7847 0.790685 22.3416 0.716848 21.6525 0.766075C20.8156 0.839914 20.7664 0.864526 19.9049 0.74146C18.7973 0.593781 17.7636 0.643009 16.656 0.643009C15.7207 0.643009 14.8592 0.889142 13.9731 0.790689C12.7425 0.667623 12.7671 0.64301 11.5364 0.790689C10.5027 0.913755 9.76427 0.643009 8.75513 0.643009C6.66301 0.643009 4.57089 0.643009 2.47876 0.643009C1.88805 0.643009 1.37117 0.889141 1.00197 1.25834C0.608161 1.65215 0.386642 2.16903 0.386642 2.73513V2.8582C0.386642 3.67043 0.362028 4.50728 0.386642 5.31952C0.411255 6.50095 0.485093 7.06706 0.238961 8.2731C0.0174421 9.3807 0.06667 10.0699 0.0174436 11.1775C-0.0317829 12.5558 0.0174421 13.245 0.238961 14.5987C0.38664 15.4355 0.485099 16.1247 0.583552 16.9616C0.755844 18.4876 0.411255 19.6198 0.386642 21.0966C0.362028 22.8195 0.386642 24.5917 0.386642 26.3146C0.386642 27.2007 0.435868 27.816 0.509708 28.6775C0.534321 28.9974 0.558933 29.342 0.608159 29.6866C0.509706 34.6831 0.534322 39.8519 0.534322 44.676C0.43587 45.2668 0.312801 45.8575 0.238961 46.4482C0.0420553 47.8511 -0.0810108 47.8511 0.238961 49.2541C0.362027 49.9433 0.33742 50.4847 0.706618 51.1247C0.854297 51.3462 0.878909 51.2478 0.805069 51.42C0.977362 51.5431 1.27272 51.74 1.44501 51.8385C1.91267 52.06 2.3557 52.06 2.50338 52.06C2.52799 52.06 2.55261 52.06 2.55261 52.06C3.41407 51.9862 4.25092 52.0108 5.06315 52.0354C5.67848 52.06 6.2692 52.06 6.90914 52.06C7.7706 52.0354 8.41055 52.1092 9.27201 52.1584C9.69044 52.1831 10.0842 52.1584 10.4781 52.1584C11.0195 52.1338 11.5364 52.1338 12.0779 52.1831C12.8902 52.2815 13.407 52.3061 14.2193 52.2323C14.8838 52.1831 15.3515 52.2815 15.9914 52.2815C16.2622 52.2815 16.5575 52.2569 16.8283 52.2323C17.1729 52.2077 17.5174 52.1831 17.8374 52.2077C19.0927 52.3061 19.7572 52.4784 21.0617 52.2569C21.5048 52.1831 22.0955 51.9615 22.5139 52.06C23.4984 52.2569 23.9169 52.3554 24.9014 52.1584C25.9598 51.9615 26.5751 51.9615 27.6581 52.0108C28.7657 52.06 29.9471 52.1585 31.0547 52.1831C31.9162 52.1831 32.7284 52.2323 33.5899 52.2077C34.1067 52.1831 34.4021 52.2077 34.919 52.2323C35.4112 52.2569 35.8543 52.2323 36.3219 52.2077C36.6911 52.1831 37.0357 52.1831 37.4295 52.1831C38.2664 52.2077 39.0786 52.1584 39.9155 52.1584C40.3339 52.1584 40.7277 52.1831 41.0969 52.2077C41.663 52.2569 42.2291 52.3061 42.8198 52.2323C44.0997 52.1092 45.0596 52.06 46.3395 52.2323C47.2256 52.3553 47.8655 52.3307 48.727 52.3307C49.7607 52.3307 50.7699 52.5276 51.2621 51.3708C51.2621 51.3462 51.3606 51.0509 51.336 51.1493C51.4344 50.8047 51.4591 50.5586 51.336 50.2386C51.1883 49.771 51.4837 48.2696 51.5821 47.7281C51.8529 46.202 51.7298 44.8237 51.8283 43.2977C51.8775 42.5593 51.8529 41.7963 51.9021 41.0825C51.9513 40.2703 52.0005 39.7288 51.9267 38.8919C51.8529 37.9812 52.1236 37.3413 52.0005 36.4306C51.9021 35.5938 51.8036 35.003 51.8775 34.1416C51.9513 33.2801 52.0498 32.7632 51.9513 31.8772C51.8775 31.1142 51.9759 30.3512 51.9513 29.5881C51.9513 28.7759 51.9759 27.9637 51.9513 27.176C51.8775 25.0101 51.9759 22.8441 51.8775 20.7028C51.8529 19.8905 51.9021 19.1768 51.9513 18.3891C51.9759 17.7984 51.9513 17.2077 52.0005 16.6416C52.0251 16.0509 52.099 15.534 52.099 14.9433C52.1482 12.8758 52.0744 10.8083 52.1482 8.71614C52.1728 7.80545 52.099 7.04244 52.099 6.15636C52.099 5.02416 52.3944 4.11347 52.1975 2.98126C52.0744 2.39055 51.9021 1.72599 51.4837 1.28295C51.0899 0.889142 50.573 0.667623 49.9823 0.667623C48.8501 0.667623 47.7178 0.667623 46.5856 0.667623C46.0195 0.667623 45.4534 0.667623 44.8873 0.667623Z" fill="white"/>
</mask>
<g mask="url(#mask0_368_596)">
<path d="M52.419 0.618439H-0.0809326V52.5769H52.419V0.618439Z" fill="#C39B69"/>
</g>
</svg>
