<svg width="40" height="40" viewBox="0 0 40 40" fill="none" xmlns="http://www.w3.org/2000/svg">
<g clip-path="url(#clip0_42_5179)">
<path d="M6.04717 25.0393H0V2.86636H6.04717C7.15985 2.86636 8.06289 3.7694 8.06289 4.88208V23.0236C8.06289 24.1363 7.15985 25.0393 6.04717 25.0393Z" fill="white"/>
<path d="M39.8206 18.9518L38.6797 23.5114C38.456 24.4084 37.6497 25.0373 36.7245 25.0373H27.0107L27.7485 28.3935C28.0629 29.8166 28.2201 31.2679 28.2201 32.7233V35.1179C28.2201 36.2306 27.3171 37.1337 26.2044 37.1337H24.1887C23.076 37.1337 22.173 36.2306 22.173 35.1179V33.1022C22.173 27.5368 17.6598 23.0236 12.0944 23.0236V4.88211H16.7144C17.6537 4.88211 18.5789 4.66441 19.4195 4.24312L20.897 3.50335C21.7376 3.08408 22.6628 2.86437 23.6021 2.86437H32.9389C33.7452 2.86437 34.4749 3.34411 34.7914 4.0859L39.5122 15.1018C40.0323 16.3193 40.1411 17.6698 39.8206 18.9518Z" fill="white"/>
</g>
<defs>
<clipPath id="clip0_42_5179">
<rect width="40" height="40" fill="white" transform="matrix(1 0 0 -1 0 40)"/>
</clipPath>
</defs>
</svg>
