<svg width="94" height="94" viewBox="0 0 94 94" fill="none" xmlns="http://www.w3.org/2000/svg">
<path d="M80.2305 49.231H71.0291C69.7768 49.231 68.5644 49.4021 67.4105 49.7168C65.1343 45.2422 60.4872 42.1678 55.1323 42.1678H38.8677C33.5128 42.1678 28.8657 45.2422 26.5895 49.7168C25.4356 49.4021 24.2232 49.231 22.9709 49.231H13.7695C6.17701 49.231 0 55.408 0 63.0005V77.7097C0 82.2652 3.70621 85.9714 8.26172 85.9714H85.7383C90.2938 85.9714 94 82.2652 94 77.7097V63.0005C94 55.408 87.823 49.231 80.2305 49.231ZM25.0982 55.9377V80.4638H8.26172C6.74322 80.4638 5.50781 79.2284 5.50781 77.7099V63.0007C5.50781 58.4452 9.21402 54.739 13.7695 54.739H22.9709C23.7185 54.739 24.4424 54.8405 25.1316 55.0276C25.1118 55.3289 25.0982 55.6318 25.0982 55.9377ZM63.394 80.4638H30.606V55.9375C30.606 51.382 34.3122 47.6758 38.8677 47.6758H55.1323C59.6878 47.6758 63.394 51.382 63.394 55.9375V80.4638ZM88.4922 77.7099C88.4922 79.2284 87.2568 80.4638 85.7383 80.4638H68.9018V55.9375C68.9018 55.6315 68.8882 55.3285 68.8684 55.0274C69.5576 54.8405 70.2815 54.7388 71.0291 54.7388H80.2305C84.786 54.7388 88.4922 58.445 88.4922 63.0005V77.7099Z" fill="#A0A0A0"/>
<path d="M18.3704 23.2253C11.6235 23.2253 6.13458 28.7142 6.13458 35.4611C6.1344 42.208 11.6235 47.6969 18.3704 47.6969C25.1171 47.6969 30.6062 42.208 30.6062 35.4611C30.6062 28.7142 25.1173 23.2253 18.3704 23.2253ZM18.3702 42.1891C14.6603 42.1891 11.6422 39.171 11.6422 35.4611C11.6422 31.7513 14.6603 28.7332 18.3702 28.7332C22.0801 28.7332 25.0982 31.7513 25.0982 35.4611C25.0982 39.171 22.0801 42.1891 18.3702 42.1891Z" fill="#A0A0A0"/>
<path d="M47 8.02838C37.9863 8.02838 30.6532 15.3615 30.6532 24.3752C30.6532 33.3889 37.9863 40.722 47 40.722C56.0137 40.722 63.3468 33.3889 63.3468 24.3752C63.3468 15.3617 56.0137 8.02838 47 8.02838ZM47 35.2142C41.0233 35.2142 36.161 30.3519 36.161 24.3752C36.161 18.3987 41.0233 13.5362 47 13.5362C52.9767 13.5362 57.839 18.3985 57.839 24.3752C57.839 30.3519 52.9767 35.2142 47 35.2142Z" fill="#2E1A09"/>
<path d="M75.6296 23.2253C68.8829 23.2253 63.3938 28.7142 63.3938 35.4611C63.394 42.208 68.8829 47.6969 75.6296 47.6969C82.3765 47.6969 87.8654 42.208 87.8654 35.4611C87.8654 28.7142 82.3765 23.2253 75.6296 23.2253ZM75.6296 42.1891C71.9199 42.1891 68.9016 39.171 68.9016 35.4611C68.9018 31.7513 71.9199 28.7332 75.6296 28.7332C79.3395 28.7332 82.3576 31.7513 82.3576 35.4611C82.3576 39.171 79.3395 42.1891 75.6296 42.1891Z" fill="#A0A0A0"/>
</svg>
