<svg width="104" height="97" viewBox="0 0 104 97" fill="none" xmlns="http://www.w3.org/2000/svg">
<path d="M87.2329 51.3H90.516V54.1001H87.2329V51.3Z" fill="#C39B69"/>
<path d="M90.6334 25.7V17.2H57.3338V14.4H34.0007V17.2H27.3173V25.6H20.6339V34.2H27.3173V73.9H30.6003V42.7H90.6334V34.2H93.9164V45.6H62.9619L53.8162 55.2V59.8H47.1328V68.3H50.416V71.1H53.699V68.3H63.6654V90.4L59.5616 93.9H57.6855L53.699 90.4V73.9H50.416V91.6L56.2786 96.8H60.9686L67.0657 91.6V68.3H70.3488V59.8H63.6654V58.1L67.6519 54.1H83.5983V51.3H66.1277L60.3824 57.1V59.8H57.0993V56.2L64.4862 48.4H97.1995V31.3H90.5161V28.6H100.483V51.4H93.9164V54.2H104V25.8H90.6334V25.7ZM67.3002 62.7V65.5H50.6504V62.7H67.3002ZM37.2837 17.2H53.9335V30C53.9335 31.8 50.6504 31.8 50.6504 30V27.2C50.6504 21.7 40.684 21.7 40.684 27.2V32.9C40.684 34.7 37.4009 34.7 37.4009 32.9L37.2837 17.2ZM23.917 31.4V28.5H27.2V31.4H23.917ZM87.3503 39.9H30.6003V20H33.8834V32.8C33.8834 38.3 43.8498 38.3 43.8498 32.8V27.1C43.8498 25.3 47.1328 25.3 47.1328 27.1V29.9C47.1328 35.4 57.0993 35.4 57.0993 29.9V20H87.1158V39.9H87.3503Z" fill="#C39B69"/>
<path d="M60.4996 22.8H63.7826V25.6001H60.4996V22.8Z" fill="#C39B69"/>
<path d="M67.3001 22.8H70.5832V25.6001H67.3001V22.8Z" fill="#C39B69"/>
<path d="M40.5667 94H13.9504V62.6H10.6674V94H3.74949V2.8H10.6674V37H13.9504V2.8H40.5667V11.4H43.8497V0H0.231934V96.8H43.8497V45.5H40.5667V94Z" fill="#C39B69"/>
<path d="M10.6675 39.9H13.9505V42.6H10.6675V39.9Z" fill="#C39B69"/>
<path d="M27.3173 76.8H30.6004V79.6001H27.3173V76.8Z" fill="#C39B69"/>
</svg>
