<svg width="104" height="97" viewBox="0 0 104 97" fill="none" xmlns="http://www.w3.org/2000/svg">
<path d="M48.4818 43.4L45.7868 42L43.523 45.6H16.8959L3.52836 24.2L16.8959 2.80002H43.523L56.8905 24.2L50.7457 34.2L53.4407 35.6L60.4479 24.2L45.3556 0H15.1709L0.0786133 24.3L15.1709 48.6H45.3556L48.4818 43.4Z" fill="#C39B69"/>
<path d="M47.5116 39.3L49.0209 36.8L51.7159 38.2L50.2067 40.7L47.5116 39.3Z" fill="#C39B69"/>
<path d="M30.1554 34C35.9767 34 40.7201 29.6 40.7201 24.2C40.7201 18.8 35.9767 14.4 30.1554 14.4C27.7838 14.4 25.4122 15.2 23.5795 16.6L25.52 18.8C26.8136 17.8 28.5384 17.3 30.2632 17.3C34.3597 17.3 37.8094 20.4 37.8094 24.3C37.8094 28.1 34.4675 31.3 30.2632 31.3C26.1667 31.3 22.717 28.2 22.717 24.3C22.717 23.1 23.0405 22 23.5795 21L20.8845 19.6C20.022 21 19.5909 22.6 19.5909 24.3C19.5909 29.6 24.3341 34 30.1554 34Z" fill="#C39B69"/>
<path d="M18.1895 5.80005H21.208V8.60004H18.1895V5.80005Z" fill="#C39B69"/>
<path d="M24.2263 5.80005H27.2448V8.60004H24.2263V5.80005Z" fill="#C39B69"/>
<path d="M88.7999 48.3H58.6153L43.5229 72.6L47.5116 78.9L50.2066 77.5L47.1883 72.6L60.5558 51.2H87.1829L100.55 72.6L87.1829 94H60.5558L52.0394 80.2L49.3443 81.6L58.723 96.9H88.9077L104 72.6L88.7999 48.3Z" fill="#C39B69"/>
<path d="M63.1429 72.6C63.1429 78 67.8863 82.4 73.7076 82.4C79.5289 82.4 84.2723 78 84.2723 72.6C84.2723 70.4 83.4098 68.2 81.9006 66.5L79.529 68.3C80.607 69.5 81.146 71.1 81.146 72.7C81.146 76.5 77.8041 79.7 73.5998 79.7C69.5034 79.7 66.0537 76.6 66.0537 72.7C66.0537 68.9 69.3956 65.7 73.5998 65.7C74.8935 65.7 76.0792 66 77.1572 66.5L78.6665 64C77.1573 63.2 75.4325 62.8 73.5998 62.8C67.8863 62.7 63.1429 67.1 63.1429 72.6Z" fill="#C39B69"/>
<path d="M82.4395 54.2H85.458V56.9999H82.4395V54.2Z" fill="#C39B69"/>
<path d="M76.4026 54.2H79.4212V56.9999H76.4026V54.2Z" fill="#C39B69"/>
<path d="M57.9684 38.4V41.2H60.9868V44H64.0053V41.2H67.0239V38.4H64.0053V35.6H60.9868V38.4H57.9684Z" fill="#C39B69"/>
<path d="M44.1697 62.6V59.8H41.1514V57H38.1328V59.8H35.1143V62.6H38.1328V65.4H41.1514V62.6H44.1697Z" fill="#C39B69"/>
</svg>
