<svg width="98" height="70" viewBox="0 0 98 70" fill="none" xmlns="http://www.w3.org/2000/svg">
<path d="M2.99384 45.1718H34.6962V42.1094H2.99384V35.7656H53.2734V32.7031H38.8357V29.6407H46.0041V17.1719H31.8692V20.2344H43.1771V26.4688H23.1865V20.2344H28.9414V17.1719H20.3595V29.6407H27.4269V32.7031H0.267822V70H80.7354V66.9375H3.19578V45.1718H2.99384ZM30.2539 29.6407H36.0088V32.7031H30.2539V29.6407Z" fill="#C39B69"/>
<path d="M83.4614 66.8281H86.2884V69.8906H83.4614V66.8281Z" fill="#C39B69"/>
<path d="M76.5959 32.7032V35.7657H95.1731V57.6407H54.8888V60.7031H95.1731V66.8282H89.3172V69.8907H98V32.5938H76.5959V32.7032Z" fill="#C39B69"/>
<path d="M59.1293 16.0781H56.2014V19.1406H59.1293V24.1719H56.2014V27.2344H59.1293V32.5937H56.2014V35.6563H59.1293V42.9844L66.4996 49.7656H70.6391V43.75H73.668V40.6875H70.6391V35.7656H73.668V32.7032H70.6391V27.5625H73.668V24.5H70.6391V12.4688H77.8075V0H69.1247V3.06249H74.8796V9.29688H54.8888V3.06249H66.2977V0H52.0619V12.4688H59.1293V16.0781ZM61.9563 25.0469V21L67.7112 26.5781V30.625L61.9563 25.0469ZM67.7112 34.7812V38.7188L61.9563 33.4688V29.2031L67.7112 34.7812ZM67.5092 46.7031L61.9563 41.6719V37.625L67.7112 42.875V46.7031H67.5092ZM67.7112 12.4688V22.4219L61.9563 16.8438V12.3594H67.7112V12.4688Z" fill="#C39B69"/>
<path d="M37.6241 42.1094H40.4511V45.1719H37.6241V42.1094Z" fill="#C39B69"/>
<path d="M49.033 57.6406H51.8599V60.7031H49.033V57.6406Z" fill="#C39B69"/>
</svg>
