<svg width="346" height="42" viewBox="0 0 346 42" fill="none" xmlns="http://www.w3.org/2000/svg">
<path d="M19.3137 3.32104C17.1088 1.11609 14.2233 0 11.3106 0C8.42508 0 5.51237 1.11609 3.30742 3.32104C-1.10247 7.73094 -1.10247 14.8902 3.30742 19.3273L11.3106 27.3305L19.3137 19.3273C21.5187 17.1224 22.6348 14.2369 22.6348 11.3242C22.6348 8.43869 21.5187 5.52599 19.3137 3.32104ZM15.5299 16.6596L11.3106 20.879L7.11845 16.6596C4.80461 14.3186 4.80461 10.562 7.11845 8.22092C8.28897 7.0504 9.81338 6.47874 11.3378 6.47874C12.8622 6.47874 14.3866 7.0504 15.5571 8.22092C16.7277 9.39145 17.2993 10.9159 17.2993 12.4403C17.2721 13.9647 16.7004 15.4891 15.5299 16.6596Z" fill="#D9D9D9"/>
<path d="M7.11843 31.5499L11.3378 27.3305L15.5571 31.5499C17.871 33.8637 17.871 37.6475 15.5571 39.9613C14.3866 41.1319 12.8622 41.7035 11.3378 41.7035C9.81337 41.7035 8.28896 41.1319 7.11843 39.9613C5.94791 38.7908 5.37625 37.2664 5.37625 35.742C5.37625 34.2448 5.94791 32.7204 7.11843 31.5499Z" fill="#D9D9D9"/>
<path d="M26.4186 38.4096C28.6235 40.6146 31.509 41.7307 34.4217 41.7307C37.3072 41.7307 40.2199 40.6146 42.4249 38.4096C46.8348 33.9997 46.8348 26.8405 42.4249 22.4034L34.4217 14.4002L26.4186 22.4034C24.2136 24.6083 23.0975 27.4938 23.0975 30.4065C23.0975 33.3192 24.2136 36.2047 26.4186 38.4096ZM30.2024 25.0983L34.4217 20.8789L38.6411 25.0983C40.9549 27.4393 40.9549 31.1959 38.6411 33.537C37.4705 34.7075 35.9461 35.2792 34.4217 35.2792C32.8973 35.2792 31.3729 34.7075 30.2024 33.537C29.0318 32.3665 28.4602 30.842 28.4602 29.3176C28.4602 27.766 29.0318 26.2688 30.2024 25.0983Z" fill="#936037"/>
<path d="M38.641 10.1809L34.4217 14.4002L30.2024 10.1809C27.8885 7.86704 27.8885 4.08324 30.2024 1.7694C31.3729 0.598873 32.8973 0.0272217 34.4217 0.0272217C35.9461 0.0272217 37.4705 0.598873 38.641 1.7694C39.8116 2.93993 40.3832 4.46434 40.3832 5.98875C40.3832 7.48594 39.8116 9.01035 38.641 10.1809Z" fill="#936037"/>
<path d="M72.6136 38.4096C74.8186 40.6146 77.704 41.7307 80.6168 41.7307C83.5022 41.7307 86.415 40.6146 88.6199 38.4096C93.0298 33.9997 93.0298 26.8405 88.6199 22.4034L80.6168 14.4002L72.6136 22.4034C70.4087 24.6083 69.2926 27.4938 69.2926 30.4065C69.2926 33.3192 70.4087 36.2047 72.6136 38.4096ZM76.3974 25.0983L80.6168 20.8789L84.8361 25.0983C87.1499 27.4393 87.1499 31.1959 84.8361 33.537C83.6656 34.7075 82.1412 35.2792 80.6168 35.2792C79.0923 35.2792 77.5679 34.7075 76.3974 33.537C75.2269 32.3665 74.6552 30.842 74.6552 29.3176C74.6552 27.766 75.2269 26.2688 76.3974 25.0983Z" fill="#936037"/>
<path d="M84.8361 10.1809L80.6167 14.4002L76.3974 10.1809C74.0836 7.86704 74.0836 4.08324 76.3974 1.7694C77.5679 0.598873 79.0923 0.0272217 80.6167 0.0272217C82.1412 0.0272217 83.6656 0.598873 84.8361 1.7694C86.0066 2.93993 86.5783 4.46434 86.5783 5.98875C86.5783 7.48594 85.9794 9.01035 84.8361 10.1809Z" fill="#936037"/>
<path d="M118.809 38.4096C121.014 40.6146 123.899 41.7307 126.812 41.7307C129.697 41.7307 132.61 40.6146 134.815 38.4096C139.225 33.9997 139.225 26.8405 134.815 22.4034L126.812 14.4002L118.809 22.4034C116.604 24.6083 115.488 27.4938 115.488 30.4065C115.488 33.3192 116.604 36.2047 118.809 38.4096ZM122.592 25.0983L126.812 20.8789L131.031 25.0983C133.345 27.4393 133.345 31.1959 131.031 33.537C129.861 34.7075 128.336 35.2792 126.812 35.2792C125.287 35.2792 123.763 34.7075 122.592 33.537C121.422 32.3665 120.85 30.842 120.85 29.3176C120.85 27.766 121.422 26.2688 122.592 25.0983Z" fill="#936037"/>
<path d="M131.031 10.1809L126.812 14.4002L122.592 10.1809C120.279 7.86704 120.279 4.08324 122.592 1.7694C123.763 0.598873 125.287 0.0272217 126.812 0.0272217C128.336 0.0272217 129.861 0.598873 131.031 1.7694C132.202 2.93993 132.773 4.46434 132.773 5.98875C132.773 7.51316 132.174 9.01035 131.031 10.1809Z" fill="#936037"/>
<path d="M165.004 38.4096C167.209 40.6146 170.094 41.7307 173.007 41.7307C175.892 41.7307 178.805 40.6146 181.01 38.4096C185.42 33.9997 185.42 26.8405 181.01 22.4034L173.007 14.4002L165.004 22.4034C162.799 24.6083 161.683 27.4938 161.683 30.4065C161.683 33.3192 162.799 36.2047 165.004 38.4096ZM168.787 25.0983L173.007 20.8789L177.226 25.0983C179.54 27.4393 179.54 31.1959 177.226 33.537C176.056 34.7075 174.531 35.2792 173.007 35.2792C171.482 35.2792 169.958 34.7075 168.787 33.537C167.617 32.3665 167.045 30.842 167.045 29.3176C167.045 27.766 167.617 26.2688 168.787 25.0983Z" fill="#936037"/>
<path d="M177.226 10.1809L173.007 14.4002L168.787 10.1809C166.474 7.86704 166.474 4.08324 168.787 1.7694C169.958 0.598873 171.482 0.0272217 173.007 0.0272217C174.531 0.0272217 176.056 0.598873 177.226 1.7694C178.397 2.93993 178.968 4.46434 178.968 5.98875C178.968 7.48594 178.369 9.01035 177.226 10.1809Z" fill="#936037"/>
<path d="M211.199 38.4096C213.404 40.6146 216.289 41.7307 219.202 41.7307C222.087 41.7307 225 40.6146 227.205 38.4096C231.615 33.9997 231.615 26.8405 227.205 22.4034L219.202 14.4002L211.199 22.4034C208.994 24.6083 207.878 27.4938 207.878 30.4065C207.878 33.3192 208.994 36.2047 211.199 38.4096ZM214.983 25.0983L219.202 20.8789L223.421 25.0983C225.735 27.4393 225.735 31.1959 223.421 33.537C222.251 34.7075 220.726 35.2792 219.202 35.2792C217.677 35.2792 216.153 34.7075 214.983 33.537C213.812 32.3665 213.24 30.842 213.24 29.3176C213.24 27.766 213.812 26.2688 214.983 25.0983Z" fill="#936037"/>
<path d="M223.421 10.1809L219.202 14.4002L214.983 10.1809C212.669 7.86704 212.669 4.08324 214.983 1.7694C216.153 0.598873 217.677 0.0272217 219.202 0.0272217C220.726 0.0272217 222.251 0.598873 223.421 1.7694C224.592 2.93993 225.163 4.46434 225.163 5.98875C225.163 7.48594 224.565 9.01035 223.421 10.1809Z" fill="#936037"/>
<path d="M257.394 38.4096C259.599 40.6146 262.484 41.7307 265.397 41.7307C268.282 41.7307 271.195 40.6146 273.4 38.4096C277.81 33.9997 277.81 26.8405 273.4 22.4034L265.397 14.4002L257.394 22.4034C255.189 24.6083 254.073 27.4938 254.073 30.4065C254.073 33.3192 255.189 36.2047 257.394 38.4096ZM261.178 25.0983L265.397 20.8789L269.616 25.0983C271.93 27.4393 271.93 31.1959 269.616 33.537C268.446 34.7075 266.921 35.2792 265.397 35.2792C263.872 35.2792 262.348 34.7075 261.178 33.537C260.007 32.3665 259.435 30.842 259.435 29.3176C259.435 27.766 260.007 26.2688 261.178 25.0983Z" fill="#936037"/>
<path d="M269.616 10.1809L265.397 14.4002L261.178 10.1809C258.864 7.86704 258.864 4.08324 261.178 1.7694C262.348 0.598873 263.872 0.0272217 265.397 0.0272217C266.921 0.0272217 268.446 0.598873 269.616 1.7694C270.787 2.93993 271.358 4.46434 271.358 5.98875C271.358 7.48594 270.76 9.01035 269.616 10.1809Z" fill="#936037"/>
<path d="M303.589 38.4096C305.794 40.6146 308.679 41.7307 311.592 41.7307C314.477 41.7307 317.39 40.6146 319.595 38.4096C324.005 33.9997 324.005 26.8405 319.595 22.4034L311.592 14.4002L303.589 22.4034C301.384 24.6083 300.268 27.4938 300.268 30.4065C300.268 33.3192 301.384 36.2047 303.589 38.4096ZM307.373 25.0983L311.592 20.8789L315.811 25.0983C318.125 27.4393 318.125 31.1959 315.811 33.537C314.641 34.7075 313.116 35.2792 311.592 35.2792C310.068 35.2792 308.543 34.7075 307.373 33.537C306.202 32.3665 305.63 30.842 305.63 29.3176C305.63 27.766 306.202 26.2688 307.373 25.0983Z" fill="#936037"/>
<path d="M315.811 10.1809L311.592 14.4002L307.373 10.1809C305.059 7.86704 305.059 4.08324 307.373 1.7694C308.543 0.598873 310.068 0.0272217 311.592 0.0272217C313.116 0.0272217 314.641 0.598873 315.811 1.7694C316.982 2.93993 317.553 4.46434 317.553 5.98875C317.553 7.48594 316.955 9.01035 315.811 10.1809Z" fill="#936037"/>
<path d="M65.5088 3.32104C63.3038 1.11609 60.4183 0 57.5056 0C54.6201 0 51.7074 1.11609 49.5025 3.32104C45.0926 7.73094 45.0926 14.8902 49.5025 19.3273L57.5056 27.3305L65.5088 19.3273C67.7137 17.1224 68.8298 14.2369 68.8298 11.3242C68.8298 8.43869 67.7137 5.52599 65.5088 3.32104ZM61.725 16.6596L57.5056 20.879L53.3135 16.6596C50.9996 14.3186 50.9996 10.562 53.3135 8.22092C54.484 7.0504 56.0084 6.47874 57.5328 6.47874C59.0572 6.47874 60.5816 7.0504 61.7522 8.22092C62.9227 9.39145 63.4944 10.9159 63.4944 12.4403C63.4671 13.9647 62.8955 15.4891 61.725 16.6596Z" fill="#D9D9D9"/>
<path d="M53.3135 31.5499L57.5328 27.3305L61.7522 31.5499C64.066 33.8637 64.066 37.6475 61.7522 39.9613C60.5816 41.1319 59.0572 41.7035 57.5328 41.7035C56.0084 41.7035 54.484 41.1319 53.3135 39.9613C52.1429 38.7908 51.5713 37.2664 51.5713 35.742C51.5713 34.2448 52.1429 32.7204 53.3135 31.5499Z" fill="#D9D9D9"/>
<path d="M65.5088 3.32104C63.3038 1.11609 60.4183 0 57.5056 0C54.6201 0 51.7074 1.11609 49.5025 3.32104C45.0926 7.73094 45.0926 14.8902 49.5025 19.3273L57.5056 27.3305L65.5088 19.3273C67.7137 17.1224 68.8298 14.2369 68.8298 11.3242C68.8298 8.43869 67.7137 5.52599 65.5088 3.32104ZM61.725 16.6596L57.5056 20.879L53.3135 16.6596C50.9996 14.3186 50.9996 10.562 53.3135 8.22092C54.484 7.0504 56.0084 6.47874 57.5328 6.47874C59.0572 6.47874 60.5816 7.0504 61.7522 8.22092C62.9227 9.39145 63.4944 10.9159 63.4944 12.4403C63.4671 13.9647 62.8955 15.4891 61.725 16.6596Z" fill="#D9D9D9"/>
<path d="M53.3135 31.5499L57.5328 27.3305L61.7522 31.5499C64.066 33.8637 64.066 37.6475 61.7522 39.9613C60.5816 41.1319 59.0572 41.7035 57.5328 41.7035C56.0084 41.7035 54.484 41.1319 53.3135 39.9613C52.1429 38.7908 51.5713 37.2664 51.5713 35.742C51.5713 34.2448 52.1429 32.7204 53.3135 31.5499Z" fill="#D9D9D9"/>
<path d="M111.704 3.32104C109.499 1.11609 106.613 0 103.701 0C100.815 0 97.9024 1.11609 95.6975 3.32104C91.2876 7.73094 91.2876 14.8902 95.6975 19.3273L103.701 27.3305L111.704 19.3273C113.909 17.1224 115.025 14.2369 115.025 11.3242C115.025 8.43869 113.909 5.52599 111.704 3.32104ZM107.92 16.6596L103.728 20.8517L99.5085 16.6596C97.1947 14.3186 97.1947 10.562 99.5085 8.22092C100.679 7.0504 102.203 6.47874 103.728 6.47874C105.252 6.47874 106.777 7.0504 107.947 8.22092C109.118 9.39145 109.689 10.9159 109.689 12.4403C109.662 13.9647 109.091 15.4891 107.92 16.6596Z" fill="#D9D9D9"/>
<path d="M99.5085 31.5499L103.728 27.3305L107.947 31.5499C110.261 33.8637 110.261 37.6475 107.947 39.9613C106.777 41.1319 105.252 41.7035 103.728 41.7035C102.203 41.7035 100.679 41.1319 99.5085 39.9613C98.338 38.7908 97.7663 37.2664 97.7663 35.742C97.7663 34.2448 98.338 32.7204 99.5085 31.5499Z" fill="#D9D9D9"/>
<path d="M157.899 3.32104C155.694 1.11609 152.808 0 149.896 0C147.01 0 144.097 1.11609 141.893 3.32104C137.483 7.73094 137.483 14.8902 141.893 19.3273L149.896 27.3305L157.899 19.3273C160.104 17.1224 161.22 14.2369 161.22 11.3242C161.22 8.43869 160.104 5.52599 157.899 3.32104ZM154.115 16.6596L149.896 20.879L145.704 16.6596C143.39 14.3186 143.39 10.562 145.704 8.22092C146.874 7.0504 148.398 6.47874 149.923 6.47874C151.447 6.47874 152.972 7.0504 154.142 8.22092C155.313 9.39145 155.884 10.9159 155.884 12.4403C155.857 13.9647 155.286 15.4891 154.115 16.6596Z" fill="#D9D9D9"/>
<path d="M145.704 31.5499L149.923 27.3305L154.142 31.5499C156.456 33.8637 156.456 37.6475 154.142 39.9613C152.972 41.1319 151.447 41.7035 149.923 41.7035C148.398 41.7035 146.874 41.1319 145.704 39.9613C144.533 38.7908 143.961 37.2664 143.961 35.742C143.961 34.2448 144.533 32.7204 145.704 31.5499Z" fill="#D9D9D9"/>
<path d="M204.094 3.32104C201.889 1.11609 199.003 0 196.091 0C193.205 0 190.293 1.11609 188.088 3.32104C183.678 7.73094 183.678 14.8902 188.088 19.3273L196.091 27.3305L204.094 19.3273C206.299 17.1224 207.415 14.2369 207.415 11.3242C207.415 8.43869 206.299 5.52599 204.094 3.32104ZM200.31 16.6596L196.091 20.879L191.899 16.6596C189.585 14.3186 189.585 10.562 191.899 8.22092C193.069 7.0504 194.594 6.47874 196.118 6.47874C197.642 6.47874 199.167 7.0504 200.337 8.22092C201.508 9.39145 202.079 10.9159 202.079 12.4403C202.052 13.9647 201.481 15.4891 200.31 16.6596Z" fill="#D9D9D9"/>
<path d="M191.899 31.5499L196.118 27.3305L200.337 31.5499C202.651 33.8637 202.651 37.6475 200.337 39.9613C199.167 41.1319 197.642 41.7035 196.118 41.7035C194.594 41.7035 193.069 41.1319 191.899 39.9613C190.728 38.7908 190.156 37.2664 190.156 35.742C190.156 34.2448 190.728 32.7204 191.899 31.5499Z" fill="#D9D9D9"/>
<path d="M250.289 3.32104C248.084 1.11609 245.199 0 242.286 0C239.4 0 236.488 1.11609 234.283 3.32104C229.873 7.73094 229.873 14.8902 234.283 19.3273L242.286 27.3305L250.289 19.3273C252.494 17.1224 253.61 14.2369 253.61 11.3242C253.61 8.43869 252.494 5.52599 250.289 3.32104ZM246.505 16.6596L242.286 20.879L238.094 16.6596C235.78 14.3186 235.78 10.562 238.094 8.22092C239.264 7.0504 240.789 6.47874 242.313 6.47874C243.837 6.47874 245.362 7.0504 246.532 8.22092C247.703 9.39145 248.275 10.9159 248.275 12.4403C248.247 13.9647 247.676 15.4891 246.505 16.6596Z" fill="#D9D9D9"/>
<path d="M238.094 31.5499L242.313 27.3305L246.532 31.5499C248.846 33.8637 248.846 37.6475 246.532 39.9613C245.362 41.1319 243.837 41.7035 242.313 41.7035C240.789 41.7035 239.264 41.1319 238.094 39.9613C236.923 38.7908 236.352 37.2664 236.352 35.742C236.352 34.2448 236.923 32.7204 238.094 31.5499Z" fill="#D9D9D9"/>
<path d="M296.484 3.32104C294.279 1.11609 291.394 0 288.481 0C285.595 0 282.683 1.11609 280.478 3.32104C276.068 7.73094 276.068 14.8902 280.478 19.3273L288.481 27.3305L296.484 19.3273C298.689 17.1224 299.805 14.2369 299.805 11.3242C299.805 8.43869 298.689 5.52599 296.484 3.32104ZM292.7 16.6596L288.481 20.879L284.261 16.6596C281.948 14.3186 281.948 10.562 284.261 8.22092C285.432 7.0504 286.956 6.47874 288.481 6.47874C290.005 6.47874 291.53 7.0504 292.7 8.22092C293.871 9.39145 294.442 10.9159 294.442 12.4403C294.442 13.9647 293.871 15.4891 292.7 16.6596Z" fill="#D9D9D9"/>
<path d="M284.289 31.5499L288.508 27.3305L292.727 31.5499C295.041 33.8637 295.041 37.6475 292.727 39.9613C291.557 41.1319 290.032 41.7035 288.508 41.7035C286.984 41.7035 285.459 41.1319 284.289 39.9613C283.118 38.7908 282.547 37.2664 282.547 35.742C282.547 34.2448 283.118 32.7204 284.289 31.5499Z" fill="#D9D9D9"/>
<path d="M342.679 3.32104C340.474 1.11609 337.589 0 334.676 0C331.79 0 328.878 1.11609 326.673 3.32104C322.263 7.73094 322.263 14.8902 326.673 19.3273L334.676 27.3305L342.679 19.3273C344.884 17.1224 346 14.2369 346 11.3242C346 8.43869 344.884 5.52599 342.679 3.32104ZM338.895 16.6596L334.676 20.879L330.484 16.6596C328.17 14.3186 328.17 10.562 330.484 8.22092C331.654 7.0504 333.179 6.47874 334.703 6.47874C336.227 6.47874 337.752 7.0504 338.922 8.22092C340.093 9.39145 340.665 10.9159 340.665 12.4403C340.637 13.9647 340.066 15.4891 338.895 16.6596Z" fill="#D9D9D9"/>
<path d="M330.484 31.5499L334.703 27.3305L338.922 31.5499C341.236 33.8637 341.236 37.6475 338.922 39.9613C337.752 41.1319 336.227 41.7035 334.703 41.7035C333.179 41.7035 331.654 41.1319 330.484 39.9613C329.313 38.7908 328.742 37.2664 328.742 35.742C328.742 34.2448 329.313 32.7204 330.484 31.5499Z" fill="#D9D9D9"/>
</svg>
