<svg width="97" height="97" viewBox="0 0 97 97" fill="none" xmlns="http://www.w3.org/2000/svg">
<path d="M84.3 52.7L96.8 40.2L82.7001 26.1L86.7001 22.1L74.7001 10.1L70.7001 14.1L56.6 0L44.1 12.5V19.7L54 29.7L53.3 35.6L42.6 46.3L44.6 48.3L54.6 38.3L58.6 42.3L38.5 62.4L34.5 58.4L38.6 54.3L36.6 52.3L32.5 56.4L30.5 54.4L0 84.9L12 96.9L42.5 66.4L40.5 64.4L61.3 43.6L67 42.7L77 52.7H84.3ZM84.8 36.2L80.9 32.3L81.3 28.7L86.8 34.2L84.8 36.2ZM74.7001 14.1L82.7001 22.1L80.7001 24.1L72.7001 16.1L74.7001 14.1ZM68 15.4L64.4 15.8L60.7001 12.1L62.7001 10.1L68 15.4ZM46.9 18.5V13.6L56.5 4L60.6 8.10004L48.5 20.2L46.9 18.5ZM12.1 92.8L4.09998 84.8L30.6 58.3L38.6 66.3L12.1 92.8ZM61.2001 40.7L56.2001 35.7L56.6 32.2L64.6 40.2L61.2001 40.7ZM78.8 42.2L74.7001 46.3L50.6 22.2L58.7001 14.1L63.4 18.8L70.6 18L78.7001 26.1L77.9 33.3L82.7001 38.1L80.7001 40.1L82.7001 42.1L88.7001 36.1L92.7001 40.1L83.1 49.7H78.2001L76.6 48.1L80.7001 44L78.8 42.2Z" fill="#C39B69"/>
<path d="M38.6 50.2L40.6 48.2L42.6 50.2L40.6 52.2L38.6 50.2Z" fill="#C39B69"/>
<path d="M28.6 64.3L30.6 62.3L32.6 64.3L30.6 66.3L28.6 64.3Z" fill="#C39B69"/>
<path d="M24.5 68.3L26.5 66.3L28.5 68.3L26.5 70.3L24.5 68.3Z" fill="#C39B69"/>
<path d="M56.5 20.1001L58.5 18.1001L60.5 20.1001L58.5 22.1001L56.5 20.1001Z" fill="#C39B69"/>
<path d="M60.6 24.2L62.6 22.2L64.6 24.2L62.6 26.2L60.6 24.2Z" fill="#C39B69"/>
<path d="M85 59.6001H82.2001V62.4001H79.4V65.2001H82.2001V68.0001H85V65.2001H87.8V62.4001H85V59.6001Z" fill="#C39B69"/>
<path d="M33.9 11.2999H36.7001V8.49988H39.5V5.69989H36.7001V2.8999H33.9V5.69989H31.1V8.49988H33.9V11.2999Z" fill="#C39B69"/>
</svg>
