<svg width="133" height="133" viewBox="0 0 133 133" fill="none" xmlns="http://www.w3.org/2000/svg">
<path d="M41.4508 42.2795L54.5923 52.7532L50.1166 68.9496C49.9425 69.5756 50.1763 70.2432 50.7037 70.6251C51.2284 71.0069 51.9375 71.0225 52.4779 70.664L66.5 61.4034L80.5221 70.6666C80.7819 70.8381 81.0832 70.9238 81.382 70.9238C81.7041 70.9238 82.0262 70.8251 82.299 70.6251C82.8237 70.2432 83.0575 69.5756 82.886 68.9496L78.4077 52.7532L91.5492 42.2821C92.0583 41.8768 92.261 41.1988 92.0609 40.5806C91.8609 39.9623 91.2972 39.5337 90.6478 39.5052L73.8592 38.757L67.9599 23.0204C67.7313 22.4126 67.1494 22.0099 66.5 22.0099C65.8506 22.0099 65.2687 22.4126 65.0401 23.0204L59.1408 38.757L42.3522 39.5052C41.7028 39.5337 41.1391 39.9623 40.9391 40.5806C40.739 41.1988 40.9443 41.8742 41.4508 42.2795ZM60.3098 41.8249C60.9332 41.7963 61.4813 41.3988 61.6995 40.8144L66.5 28.0079L71.3005 40.8144C71.5187 41.3988 72.0668 41.7963 72.6902 41.8249L86.3539 42.4327L75.6567 50.9556C75.1684 51.3453 74.9606 51.9869 75.1268 52.5896L78.7713 65.7727L67.3598 58.2343C66.8377 57.8888 66.1623 57.8888 65.6402 58.2343L54.2287 65.7727L57.8732 52.5896C58.0394 51.9869 57.8316 51.3453 57.3433 50.9556L46.6461 42.4327L60.3098 41.8249ZM127.545 108.382H120.747V92.3363C120.747 91.4765 120.048 90.7777 119.188 90.7777H114.196V74.732C114.196 73.8721 113.497 73.1734 112.637 73.1734H20.363C19.5032 73.1734 18.8044 73.8721 18.8044 74.732V90.7777H13.8117C12.9519 90.7777 12.2531 91.4765 12.2531 92.3363V108.382H5.45508C4.59525 108.382 3.89648 109.081 3.89648 109.941V127.545C3.89648 128.405 4.59525 129.104 5.45508 129.104H127.545C128.405 129.104 129.104 128.405 129.104 127.545V109.941C129.104 109.078 128.405 108.382 127.545 108.382ZM21.9216 76.288H111.081V90.7751H21.9216V76.288ZM15.3703 93.8949H117.632V108.382H15.3703V93.8949ZM125.986 125.986H7.01367V111.499H125.986V125.986ZM64.2348 17.6199V5.45508C64.2348 4.59525 64.9336 3.89648 65.7934 3.89648C66.6533 3.89648 67.352 4.59525 67.352 5.45508V17.6199C67.352 18.4797 66.6533 19.1785 65.7934 19.1785C64.9336 19.1785 64.2348 18.4797 64.2348 17.6199ZM79.4441 20.4799L85.5252 9.94643C85.9564 9.2009 86.9098 8.94633 87.6553 9.37494C88.4008 9.80355 88.6554 10.7595 88.2268 11.505L82.1457 22.0385C81.8573 22.5373 81.3326 22.8178 80.7949 22.8178C80.5299 22.8178 80.2624 22.7503 80.0182 22.61C79.2675 22.1788 79.0129 21.2254 79.4441 20.4799ZM90.614 32.6915C90.1828 31.946 90.44 30.9926 91.1855 30.5614L101.719 24.4803C102.465 24.0491 103.418 24.3063 103.849 25.0518C104.28 25.7973 104.023 26.7507 103.278 27.1819L92.7441 33.263C92.4999 33.4059 92.2298 33.4708 91.9674 33.4708C91.4271 33.4708 90.9024 33.1903 90.614 32.6915ZM43.3601 11.505C42.9289 10.7595 43.186 9.80615 43.9316 9.37494C44.6771 8.94373 45.6304 9.2009 46.0616 9.94643L52.1428 20.4799C52.574 21.2254 52.3168 22.1788 51.5713 22.61C51.3271 22.7529 51.0569 22.8178 50.7946 22.8178C50.2569 22.8178 49.7321 22.5373 49.4438 22.0385L43.3601 11.505ZM27.7378 25.0518C28.169 24.3063 29.1223 24.0517 29.8679 24.4803L40.4013 30.5614C41.1469 30.9926 41.4014 31.946 40.9728 32.6915C40.6845 33.1903 40.1598 33.4708 39.6221 33.4708C39.3571 33.4708 39.0895 33.4033 38.8453 33.263L28.3119 27.1819C27.5611 26.7507 27.3066 25.7973 27.7378 25.0518Z" fill="#D9D9D9"/>
</svg>
