<svg width="33" height="31" viewBox="0 0 33 31" fill="none" xmlns="http://www.w3.org/2000/svg">
<path d="M26.2553 8.79884C24.9455 8.53222 23.7582 7.87722 22.8638 6.92783C21.9695 5.97844 21.4141 4.78346 21.2773 3.51438L21.2742 2.96439L16.7461 2.98997L16.8427 20.0772C16.8479 20.8354 16.6025 21.576 16.1412 22.1943C15.6799 22.8125 15.0262 23.2769 14.2726 23.5217C13.519 23.7666 12.7038 23.7795 11.9423 23.5585C11.1809 23.3376 10.5119 22.8941 10.0301 22.2907C9.59845 21.7567 9.33238 21.1182 9.26197 20.4475C9.19156 19.7768 9.31961 19.1006 9.63164 18.4954C9.94367 17.8902 10.4272 17.3801 11.0276 17.0228C11.628 16.6656 12.3213 16.4753 13.0291 16.4737C13.4205 16.4693 13.8103 16.5219 14.185 16.6297L14.1603 12.2547C13.7247 12.2058 13.2859 12.1874 12.8475 12.1996C11.2324 12.2499 9.6676 12.7475 8.34454 13.6317C7.02148 14.5159 5.99764 15.7481 5.3984 17.1776C4.79915 18.6071 4.65051 20.1718 4.97068 21.68C5.29084 23.1882 6.06592 24.5746 7.20099 25.6693C8.36425 26.783 9.84907 27.542 11.4668 27.8499C13.0845 28.1579 14.7621 28.0008 16.2864 27.3987C17.8107 26.7966 19.1129 25.7766 20.0275 24.4683C20.9422 23.1601 21.428 21.6226 21.4232 20.0513L21.3738 11.3015C23.2071 12.5336 25.4008 13.1858 27.645 13.1661L27.621 8.91612C27.1802 8.92034 26.7401 8.88094 26.3078 8.79854L26.2553 8.79884Z" fill="white"/>
</svg>
