<svg width="102" height="97" viewBox="0 0 102 97" fill="none" xmlns="http://www.w3.org/2000/svg">
<path d="M11.6572 94.0601H6.40619L3.1506 90.8601V85.9601L55.1355 36.4601C59.6513 32.1601 62.1718 26.3601 62.2768 20.1601C62.3819 15.6601 64.2722 11.4601 67.5278 8.26011C72.3587 3.66011 79.5001 1.76011 85.5913 3.36011L82.5457 6.26011L84.6461 8.26011L89.8971 3.26011L87.4816 0.960116C87.4816 0.960116 75.2993 -3.33989 65.3224 6.26011C61.4366 9.96011 59.2313 14.8601 59.1262 20.0601C59.0212 25.5601 56.8158 30.6601 52.825 34.4601L0 84.7601V91.9601L4.93589 96.8601H12.7074L17.3283 92.4601L15.2279 90.4601L11.6572 94.0601Z" fill="#C39B69"/>
<path d="M100.714 13.6601L98.4036 11.4601L87.1665 22.1601L82.0205 22.0601L78.6599 18.8601V14.1601L82.5456 10.4601L80.4452 8.46014L75.6143 13.0601V20.1601L80.6553 24.9601L86.9565 25.0601L93.8878 31.6601C90.5271 35.3601 85.6962 37.6601 80.5502 37.7601C74.039 37.8601 68.0529 40.3601 63.537 44.5601L21.5291 84.5601L23.6295 86.5601L65.6374 46.5601C69.5232 42.8601 74.8792 40.6601 80.5502 40.5601C96.3032 40.4601 104.915 26.0601 100.714 13.6601ZM95.8832 29.2601L89.897 23.5601L98.1936 15.6601C99.4539 20.0601 98.5087 25.0601 95.8832 29.2601Z" fill="#C39B69"/>
<path d="M17.5385 88.4601L19.6389 86.4601L21.7393 88.4601L19.6389 90.4601L17.5385 88.4601Z" fill="#C39B69"/>
<path d="M74.1441 34.4601L80.4453 28.4601L72.0437 20.4601L65.7425 26.4601L74.1441 34.4601ZM76.2445 28.3601L74.1441 30.3601L69.9433 26.3601L72.0437 24.3601L76.2445 28.3601Z" fill="#C39B69"/>
<path d="M58.2861 39.4601L60.3865 37.4601L62.4869 39.4601L60.3865 41.4601L58.2861 39.4601Z" fill="#C39B69"/>
<path d="M54.0853 43.4601L56.1857 41.4601L58.2861 43.4601L56.1857 45.4601L54.0853 43.4601Z" fill="#C39B69"/>
</svg>
