<svg width="101" height="97" viewBox="0 0 101 97" fill="none" xmlns="http://www.w3.org/2000/svg">
<path d="M73.5314 94.0071H76.4312V96.8071H73.5314V94.0071Z" fill="#C39B69"/>
<path d="M99.3191 90.2071C90.516 82.3071 85.4414 71.1071 85.4414 59.4071V25.6071H47.1222C50.747 23.0071 52.9218 18.8071 53.0254 14.5071C53.1289 12.5071 53.0254 10.5071 53.0254 8.6071C49.297 8.6071 45.3615 8.2071 41.8403 9.6071C36.3514 11.6071 32.623 16.8071 32.4159 22.4071L27.859 18.0071C27.859 15.8071 27.9626 13.6071 27.5483 11.5071C26.8234 8.1071 24.8556 5.1071 22.0594 3.0071C17.6061 -0.292899 12.4278 0.00710059 7.14593 0.00710059C7.14593 5.1071 6.83526 10.1071 10.1493 14.4071C12.2207 17.0071 15.3276 18.9071 18.7453 19.6071C21.0237 20.1071 23.4057 19.9071 25.6842 19.9071L31.5874 25.6071H14.6026V42.6071H17.5025V28.5071H55.8216V54.0071H58.7215V28.5071H82.3344V59.4071C82.3344 71.8071 87.7198 83.7071 97.0406 92.2071V94.0071H87.6162C82.1273 86.4071 79.4345 77.5071 79.4345 68.3071H76.5347C76.5347 77.4071 78.9167 86.3071 84.095 94.0071H79.5381V96.8071H100.251V90.9071L99.3191 90.2071ZM24.8556 17.1071C20.6095 17.1071 16.7775 16.8071 13.567 13.8071C10.3565 10.7071 10.1493 7.0071 10.1493 2.9071C14.3955 2.9071 18.2274 3.2071 21.4379 6.2071C24.5449 9.3071 24.8556 13.0071 24.8556 17.1071ZM35.8335 25.6071L35.3157 25.1071C35.3157 21.0071 35.8335 17.3071 39.044 14.4071C42.151 11.6071 45.983 11.3071 50.022 11.3071C50.022 15.2071 49.8148 18.9071 46.8114 21.9071C43.9116 25.1071 39.9762 25.6071 35.8335 25.6071Z" fill="#C39B69"/>
<path d="M26.4092 31.2072H29.309V34.0071H26.4092V31.2072Z" fill="#C39B69"/>
<path d="M26.4092 36.9071H29.309V59.7071H26.4092V36.9071Z" fill="#C39B69"/>
<path d="M38.2156 45.5071H41.1154V81.9071H38.2156V45.5071Z" fill="#C39B69"/>
<path d="M55.9253 56.9071H58.8251V59.7071H55.9253V56.9071Z" fill="#C39B69"/>
<path d="M58.9286 71.1071H56.0288V94.0071H16.0526C21.2309 86.3071 23.6129 77.4071 23.6129 68.3071H20.7131C20.7131 77.5071 18.1239 86.4071 12.5314 94.0071H3.00336V91.9071C12.4278 83.4071 17.7096 71.5071 17.7096 59.1071V45.5071H14.8098V59.1071C14.8098 70.9071 9.63158 82.2071 0.517827 90.2071L0 90.6071V96.8071H70.7351V94.0071H59.0322V71.1071H58.9286Z" fill="#C39B69"/>
<path d="M67.7317 34.1071H70.6315V68.3071H67.7317V34.1071Z" fill="#C39B69"/>
<path d="M13.9812 8.60712L16.0525 6.60712L18.1238 8.60712L16.0525 10.6071L13.9812 8.60712Z" fill="#C39B69"/>
<path d="M41.944 17.0071L44.0153 15.0071L46.0866 17.0071L44.0153 19.0071L41.944 17.0071Z" fill="#C39B69"/>
</svg>
