<svg width="43" height="43" viewBox="0 0 43 43" fill="none" xmlns="http://www.w3.org/2000/svg">
<g clip-path="url(#clip0_42_5175)">
<path d="M6.50071 16.0828H0V39.9187H6.50071C7.69684 39.9187 8.66761 38.9479 8.66761 37.7518V18.2497C8.66761 17.0535 7.69684 16.0828 6.50071 16.0828Z" fill="white"/>
<path d="M42.8072 22.6268L41.5807 17.7252C41.3402 16.761 40.4734 16.0849 39.4788 16.0849H29.0365L29.8296 12.477C30.1677 10.9472 30.3367 9.38698 30.3367 7.82248V5.2482C30.3367 4.05207 29.3659 3.0813 28.1698 3.0813H26.0029C24.8067 3.0813 23.836 4.05207 23.836 5.2482V7.4151C23.836 13.3979 18.9843 18.2496 13.0015 18.2496V37.7517H17.968C18.9778 37.7517 19.9724 37.9858 20.876 38.4386L22.4643 39.2339C23.3679 39.6846 24.3625 39.9208 25.3723 39.9208H35.4094C36.2762 39.9208 37.0606 39.4051 37.4008 38.6077L42.4757 26.7655C43.0347 25.4567 43.1517 24.0049 42.8072 22.6268Z" fill="white"/>
</g>
<defs>
<clipPath id="clip0_42_5175">
<rect width="43" height="43" fill="white"/>
</clipPath>
</defs>
</svg>
